# Blender 5.1.1
# www.blender.org
mtllib cone.mtl
o Cone
v 0.000000 4.000000 2.000000
v -1.414214 4.000000 1.414214
v -2.000000 4.000000 0.000000
v -1.414214 4.000000 -1.414213
v 0.000000 4.000000 -2.000000
v 1.414214 4.000000 -1.414213
v 2.000000 4.000000 0.000000
v 1.414214 4.000000 1.414214
v -0.000000 7.000000 0.000001
v -0.000000 4.000000 1.000000
v -0.000000 0.000000 1.000000
v 0.707107 4.000000 0.707107
v 0.707107 -0.000000 0.707107
v 1.000000 4.000000 0.000000
v 1.000000 -0.000000 -0.000000
v 0.707107 4.000000 -0.707106
v 0.707107 -0.000000 -0.707107
v -0.000000 4.000000 -1.000000
v -0.000000 0.000000 -1.000000
v -0.707107 4.000000 -0.707106
v -0.707107 0.000000 -0.707107
v -1.000000 4.000000 0.000000
v -1.000000 0.000000 -0.000000
v -0.707107 4.000000 0.707107
v -0.707107 0.000000 0.707107
vn -0.0000 0.5547 0.8321
vn -0.0000 1.0000 -0.0000
vn -0.5883 0.5547 0.5883
vn -0.8321 0.5547 -0.0000
vn -0.5883 0.5547 -0.5883
vn -0.0000 0.5547 -0.8321
vn 0.5883 0.5547 -0.5883
vn 0.8321 0.5547 -0.0000
vn 0.5883 0.5547 0.5883
vn -0.0000 -0.0000 1.0000
vn 0.7071 -0.0000 0.7071
vn 1.0000 -0.0000 -0.0000
vn 0.7071 -0.0000 -0.7071
vn -0.0000 -0.0000 -1.0000
vn -0.7071 -0.0000 -0.7071
vn -1.0000 -0.0000 -0.0000
vn -0.0000 -1.0000 -0.0000
vn -0.7071 -0.0000 0.7071
vt 0.250000 0.490000
vt 0.250000 0.250000
vt 0.419706 0.419706
vt 0.490000 0.250000
vt 0.419706 0.080294
vt 0.250000 0.010000
vt 0.080294 0.080294
vt 0.010000 0.250000
vt 0.080294 0.419706
vt 1.000000 0.500000
vt 1.000000 1.000000
vt 0.875000 1.000000
vt 0.875000 0.500000
vt 0.750000 1.000000
vt 0.750000 0.500000
vt 0.625000 1.000000
vt 0.625000 0.500000
vt 0.500000 1.000000
vt 0.500000 0.500000
vt 0.375000 1.000000
vt 0.375000 0.500000
vt 0.250000 1.000000
vt 0.250000 0.500000
vt 0.125000 1.000000
vt 0.125000 0.500000
vt 0.000000 1.000000
vt 0.000000 0.500000
s 1
f 1/1/1 9/2/2 2/3/3
f 2/3/3 9/2/2 3/4/4
f 3/4/4 9/2/2 4/5/5
f 4/5/5 9/2/2 5/6/6
f 5/6/6 9/2/2 6/7/7
f 6/7/7 9/2/2 7/8/8
f 7/8/8 9/2/2 8/9/9
f 8/9/9 9/2/2 1/1/1
f 10/10/10 11/11/10 13/12/11 12/13/11
f 12/13/11 13/12/11 15/14/12 14/15/12
f 14/15/12 15/14/12 17/16/13 16/17/13
f 16/17/13 17/16/13 19/18/14 18/19/14
f 18/19/14 19/18/14 21/20/15 20/21/15
f 20/21/15 21/20/15 23/22/16 22/23/16
f 13/3/17 11/1/17 25/9/17 23/8/17 21/7/17 19/6/17 17/5/17 15/4/17
f 22/23/16 23/22/16 25/24/18 24/25/18
f 24/25/18 25/24/18 11/26/10 10/27/10
f 10/10/17 12/13/17 8/9/17 1/1/17
f 12/13/17 14/15/17 7/8/17 8/9/17
f 14/15/17 16/17/17 6/7/17 7/8/17
f 16/17/17 18/19/17 5/6/17 6/7/17
f 18/19/17 20/21/17 4/5/17 5/6/17
f 20/21/17 22/23/17 3/4/17 4/5/17
f 22/23/17 24/25/17 2/3/17 3/4/17
f 24/25/17 10/27/17 1/1/17 2/3/17
