# Blender 5.1.1
# www.blender.org
o bar
v -0.001014 1.200870 -0.019405
v -0.001014 0.000869 -0.019405
v -0.001014 1.200870 -0.719405
v -0.001014 0.000869 -0.719405
v -0.001014 1.118336 -0.623116
v -0.001014 1.118336 -0.115693
v -0.001014 0.083402 -0.115693
v -0.001014 0.083402 -0.623116
v -0.001014 1.098303 -0.599744
v -0.001014 1.098303 -0.139065
v -0.001014 0.103436 -0.139065
v -0.001014 0.103436 -0.599744
v -0.001014 1.118336 -0.623116
v -0.001014 1.118336 -0.115693
v -0.001014 0.083402 -0.115693
v -0.001014 0.083402 -0.623116
v 0.002536 1.113328 -0.121536
v -0.001014 1.108320 -0.127379
v 0.002536 1.103311 -0.133222
v 0.002536 1.103311 -0.605587
v -0.001014 1.108320 -0.611430
v 0.002536 1.113328 -0.617273
v 0.002536 0.088411 -0.121536
v -0.001014 0.093419 -0.127379
v 0.002536 0.098427 -0.133222
v 0.002536 0.088411 -0.617273
v -0.001014 0.093419 -0.611430
v 0.002536 0.098427 -0.605587
v -0.021014 1.118336 -0.623116
v -0.021014 1.118336 -0.115693
v -0.021014 0.083402 -0.115693
v -0.021014 0.083402 -0.623116
v -0.021014 1.200870 -0.719405
v -0.021014 1.200870 -0.019405
v -0.021014 0.000869 -0.019405
v -0.021014 0.000869 -0.719405
v -0.021014 1.118336 -0.623116
v -0.021014 1.118336 -0.115693
v -0.021014 0.083402 -0.115693
v -0.021014 0.083402 -0.623116
v -0.021014 1.098303 -0.599744
v -0.021014 1.098303 -0.139065
v -0.021014 0.103436 -0.139065
v -0.021014 0.103436 -0.599744
v -0.017464 1.103311 -0.133222
v -0.017464 1.113328 -0.617273
v -0.017464 0.098427 -0.133222
v -0.017464 0.098427 -0.605587
v -0.017464 1.113328 -0.121536
v -0.021014 1.108320 -0.127379
v -0.017464 1.103311 -0.605587
v -0.021014 1.108320 -0.611430
v -0.017464 0.088411 -0.121536
v -0.021014 0.093419 -0.127379
v -0.017464 0.088411 -0.617273
v -0.021014 0.093419 -0.611430
v -0.001014 0.000869 -0.019405
v -0.001014 0.000869 -0.719405
v -0.001014 1.200870 -0.719405
v -0.001014 0.000869 -0.719405
v -0.001014 1.200870 -1.419405
v -0.001014 0.000869 -1.419405
v -0.001014 1.118336 -1.323116
v -0.001014 1.118336 -0.815693
v -0.001014 0.083402 -0.815693
v -0.001014 0.083402 -1.323116
v -0.001014 1.098303 -1.299744
v -0.001014 1.098303 -0.839065
v -0.001014 0.103436 -0.839065
v -0.001014 0.103436 -1.299744
v -0.001014 1.118336 -1.323116
v -0.001014 1.118336 -0.815693
v -0.001014 0.083402 -0.815693
v -0.001014 0.083402 -1.323116
v 0.002536 1.113328 -0.821536
v -0.001014 1.108320 -0.827379
v 0.002536 1.103311 -0.833222
v 0.002536 1.103311 -1.305587
v -0.001014 1.108320 -1.311430
v 0.002536 1.113328 -1.317273
v 0.002536 0.088411 -0.821536
v -0.001014 0.093419 -0.827379
v 0.002536 0.098427 -0.833222
v 0.002536 0.088411 -1.317273
v -0.001014 0.093419 -1.311430
v 0.002536 0.098427 -1.305587
v -0.021014 1.118336 -1.323116
v -0.021014 1.118336 -0.815693
v -0.021014 0.083402 -0.815693
v -0.021014 0.083402 -1.323116
v -0.021014 1.200870 -1.419405
v -0.021014 1.200870 -0.719405
v -0.021014 0.000869 -0.719405
v -0.021014 0.000869 -1.419405
v -0.021014 1.118336 -1.323116
v -0.021014 1.118336 -0.815693
v -0.021014 0.083402 -0.815693
v -0.021014 0.083402 -1.323116
v -0.021014 1.098303 -1.299744
v -0.021014 1.098303 -0.839065
v -0.021014 0.103436 -0.839065
v -0.021014 0.103436 -1.299744
v -0.017464 1.103311 -0.833222
v -0.017464 1.113328 -1.317273
v -0.017464 0.098427 -0.833222
v -0.017464 0.098427 -1.305587
v -0.017464 1.113328 -0.821536
v -0.021014 1.108320 -0.827379
v -0.017464 1.103311 -1.305587
v -0.021014 1.108320 -1.311430
v -0.017464 0.088411 -0.821536
v -0.021014 0.093419 -0.827379
v -0.017464 0.088411 -1.317273
v -0.021014 0.093419 -1.311430
v -0.001014 0.000869 -0.719405
v -0.001014 0.000869 -1.419405
v -0.001014 1.200870 -1.419405
v -0.001014 0.000869 -1.419405
v -0.001014 1.200870 -2.119405
v -0.001014 0.000869 -2.119405
v -0.001014 1.118336 -2.023116
v -0.001014 1.118336 -1.515693
v -0.001014 0.083402 -1.515693
v -0.001014 0.083402 -2.023116
v -0.001014 1.098303 -1.999744
v -0.001014 1.098303 -1.539065
v -0.001014 0.103436 -1.539065
v -0.001014 0.103436 -1.999744
v -0.001014 1.118336 -2.023116
v -0.001014 1.118336 -1.515693
v -0.001014 0.083402 -1.515693
v -0.001014 0.083402 -2.023116
v 0.002536 1.113328 -1.521536
v -0.001014 1.108320 -1.527379
v 0.002536 1.103311 -1.533222
v 0.002536 1.103311 -2.005587
v -0.001014 1.108320 -2.011430
v 0.002536 1.113328 -2.017273
v 0.002536 0.088411 -1.521536
v -0.001014 0.093419 -1.527379
v 0.002536 0.098427 -1.533222
v 0.002536 0.088411 -2.017273
v -0.001014 0.093419 -2.011430
v 0.002536 0.098427 -2.005587
v -0.021014 1.118336 -2.023116
v -0.021014 1.118336 -1.515693
v -0.021014 0.083402 -1.515693
v -0.021014 0.083402 -2.023116
v -0.021014 1.200870 -2.119405
v -0.021014 1.200870 -1.419405
v -0.021014 0.000869 -1.419405
v -0.021014 0.000869 -2.119405
v -0.021014 1.118336 -2.023116
v -0.021014 1.118336 -1.515693
v -0.021014 0.083402 -1.515693
v -0.021014 0.083402 -2.023116
v -0.021014 1.098303 -1.999744
v -0.021014 1.098303 -1.539065
v -0.021014 0.103436 -1.539065
v -0.021014 0.103436 -1.999744
v -0.017464 1.103311 -1.533222
v -0.017464 1.113328 -2.017273
v -0.017464 0.098427 -1.533222
v -0.017464 0.098427 -2.005587
v -0.017464 1.113328 -1.521536
v -0.021014 1.108320 -1.527379
v -0.017464 1.103311 -2.005587
v -0.021014 1.108320 -2.011430
v -0.017464 0.088411 -1.521536
v -0.021014 0.093419 -1.527379
v -0.017464 0.088411 -2.017273
v -0.021014 0.093419 -2.011430
v -0.001014 0.000869 -1.419405
v -0.001014 0.000869 -2.119405
v -0.001014 1.200870 -2.119405
v -0.001014 0.000869 -2.119405
v -0.001014 1.200870 -2.819405
v -0.001014 0.000869 -2.819405
v -0.001014 1.118336 -2.723116
v -0.001014 1.118336 -2.215693
v -0.001014 0.083402 -2.215693
v -0.001014 0.083402 -2.723116
v -0.001014 1.098303 -2.699744
v -0.001014 1.098303 -2.239065
v -0.001014 0.103436 -2.239065
v -0.001014 0.103436 -2.699744
v -0.001014 1.118336 -2.723116
v -0.001014 1.118336 -2.215693
v -0.001014 0.083402 -2.215693
v -0.001014 0.083402 -2.723116
v 0.002536 1.113328 -2.221536
v -0.001014 1.108320 -2.227379
v 0.002536 1.103311 -2.233222
v 0.002536 1.103311 -2.705587
v -0.001014 1.108320 -2.711430
v 0.002536 1.113328 -2.717273
v 0.002536 0.088411 -2.221536
v -0.001014 0.093419 -2.227379
v 0.002536 0.098427 -2.233222
v 0.002536 0.088411 -2.717273
v -0.001014 0.093419 -2.711430
v 0.002536 0.098427 -2.705587
v -0.021014 1.118336 -2.723116
v -0.021014 1.118336 -2.215693
v -0.021014 0.083402 -2.215693
v -0.021014 0.083402 -2.723116
v -0.021014 1.200870 -2.819405
v -0.021014 1.200870 -2.119405
v -0.021014 0.000869 -2.119405
v -0.021014 0.000869 -2.819405
v -0.021014 1.118336 -2.723116
v -0.021014 1.118336 -2.215693
v -0.021014 0.083402 -2.215693
v -0.021014 0.083402 -2.723116
v -0.021014 1.098303 -2.699744
v -0.021014 1.098303 -2.239065
v -0.021014 0.103436 -2.239065
v -0.021014 0.103436 -2.699744
v -0.017464 1.103311 -2.233222
v -0.017464 1.113328 -2.717273
v -0.017464 0.098427 -2.233222
v -0.017464 0.098427 -2.705587
v -0.017464 1.113328 -2.221536
v -0.021014 1.108320 -2.227379
v -0.017464 1.103311 -2.705587
v -0.021014 1.108320 -2.711430
v -0.017464 0.088411 -2.221536
v -0.021014 0.093419 -2.227379
v -0.017464 0.088411 -2.717273
v -0.021014 0.093419 -2.711430
v -0.001014 0.000869 -2.119405
v -0.001014 0.000869 -2.819405
v -0.001014 1.200870 -2.819405
v -0.001014 0.000869 -2.819405
v -0.001014 1.200870 -3.519404
v -0.001014 0.000869 -3.519404
v -0.001014 1.118336 -3.423116
v -0.001014 1.118336 -2.915693
v -0.001014 0.083402 -2.915693
v -0.001014 0.083402 -3.423116
v -0.001014 1.098303 -3.399744
v -0.001014 1.098303 -2.939065
v -0.001014 0.103436 -2.939065
v -0.001014 0.103436 -3.399744
v -0.001014 1.118336 -3.423116
v -0.001014 1.118336 -2.915693
v -0.001014 0.083402 -2.915693
v -0.001014 0.083402 -3.423116
v 0.002536 1.113328 -2.921536
v -0.001014 1.108320 -2.927379
v 0.002536 1.103311 -2.933222
v 0.002536 1.103311 -3.405587
v -0.001014 1.108320 -3.411430
v 0.002536 1.113328 -3.417273
v 0.002536 0.088411 -2.921536
v -0.001014 0.093419 -2.927379
v 0.002536 0.098427 -2.933222
v 0.002536 0.088411 -3.417273
v -0.001014 0.093419 -3.411430
v 0.002536 0.098427 -3.405587
v -0.021014 1.118336 -3.423116
v -0.021014 1.118336 -2.915693
v -0.021014 0.083402 -2.915693
v -0.021014 0.083402 -3.423116
v -0.021014 1.200870 -3.519404
v -0.021014 1.200870 -2.819405
v -0.021014 0.000869 -2.819405
v -0.021014 0.000869 -3.519404
v -0.021014 1.118336 -3.423116
v -0.021014 1.118336 -2.915693
v -0.021014 0.083402 -2.915693
v -0.021014 0.083402 -3.423116
v -0.021014 1.098303 -3.399744
v -0.021014 1.098303 -2.939065
v -0.021014 0.103436 -2.939065
v -0.021014 0.103436 -3.399744
v -0.017464 1.103311 -2.933222
v -0.017464 1.113328 -3.417273
v -0.017464 0.098427 -2.933222
v -0.017464 0.098427 -3.405587
v -0.017464 1.113328 -2.921536
v -0.021014 1.108320 -2.927379
v -0.017464 1.103311 -3.405587
v -0.021014 1.108320 -3.411430
v -0.017464 0.088411 -2.921536
v -0.021014 0.093419 -2.927379
v -0.017464 0.088411 -3.417273
v -0.021014 0.093419 -3.411430
v -0.001014 0.000869 -2.819405
v -0.001014 0.000869 -3.519404
v -0.700000 1.200870 -0.001014
v -0.700000 0.000869 -0.001014
v 0.000000 1.200870 -0.001014
v 0.000000 0.000869 -0.001014
v -0.096289 1.118336 -0.001014
v -0.603711 1.118336 -0.001014
v -0.603711 0.083402 -0.001014
v -0.096289 0.083402 -0.001014
v -0.119661 1.098303 -0.001014
v -0.580339 1.098303 -0.001014
v -0.580339 0.103436 -0.001014
v -0.119661 0.103436 -0.001014
v -0.096289 1.118336 -0.001014
v -0.603711 1.118336 -0.001014
v -0.603711 0.083402 -0.001014
v -0.096289 0.083402 -0.001014
v -0.597868 1.113328 0.002536
v -0.592025 1.108320 -0.001014
v -0.586182 1.103311 0.002536
v -0.113818 1.103311 0.002536
v -0.107975 1.108320 -0.001014
v -0.102132 1.113328 0.002536
v -0.597868 0.088411 0.002536
v -0.592025 0.093419 -0.001014
v -0.586182 0.098427 0.002536
v -0.102132 0.088411 0.002536
v -0.107975 0.093419 -0.001014
v -0.113818 0.098427 0.002536
v -0.096289 1.118336 -0.021014
v -0.603711 1.118336 -0.021014
v -0.603711 0.083402 -0.021014
v -0.096289 0.083402 -0.021014
v 0.000000 1.200870 -0.021014
v -0.700000 1.200870 -0.021014
v -0.700000 0.000869 -0.021014
v 0.000000 0.000869 -0.021014
v -0.096289 1.118336 -0.021014
v -0.603711 1.118336 -0.021014
v -0.603711 0.083402 -0.021014
v -0.096289 0.083402 -0.021014
v -0.119661 1.098303 -0.021014
v -0.580339 1.098303 -0.021014
v -0.580339 0.103436 -0.021014
v -0.119661 0.103436 -0.021014
v -0.586182 1.103311 -0.017464
v -0.102132 1.113328 -0.017464
v -0.586182 0.098427 -0.017464
v -0.113818 0.098427 -0.017464
v -0.597868 1.113328 -0.017464
v -0.592025 1.108320 -0.021014
v -0.113818 1.103311 -0.017464
v -0.107975 1.108320 -0.021014
v -0.597868 0.088411 -0.017464
v -0.592025 0.093419 -0.021014
v -0.102132 0.088411 -0.017464
v -0.107975 0.093419 -0.021014
v -1.400000 1.200870 -0.001014
v -1.400000 0.000869 -0.001014
v -0.700000 1.200870 -0.001014
v -0.700000 0.000869 -0.001014
v -0.796289 1.118336 -0.001014
v -1.303712 1.118336 -0.001014
v -1.303712 0.083402 -0.001014
v -0.796289 0.083402 -0.001014
v -0.819661 1.098303 -0.001014
v -1.280339 1.098303 -0.001014
v -1.280339 0.103436 -0.001014
v -0.819661 0.103436 -0.001014
v -0.796289 1.118336 -0.001014
v -1.303712 1.118336 -0.001014
v -1.303712 0.083402 -0.001014
v -0.796289 0.083402 -0.001014
v -1.297868 1.113328 0.002536
v -1.292025 1.108320 -0.001014
v -1.286182 1.103311 0.002536
v -0.813818 1.103311 0.002536
v -0.807975 1.108320 -0.001014
v -0.802132 1.113328 0.002536
v -1.297868 0.088411 0.002536
v -1.292025 0.093419 -0.001014
v -1.286182 0.098427 0.002536
v -0.802132 0.088411 0.002536
v -0.807975 0.093419 -0.001014
v -0.813818 0.098427 0.002536
v -0.796289 1.118336 -0.021014
v -1.303712 1.118336 -0.021014
v -1.303712 0.083402 -0.021014
v -0.796289 0.083402 -0.021014
v -0.700000 1.200870 -0.021014
v -1.400000 1.200870 -0.021014
v -1.400000 0.000869 -0.021014
v -0.700000 0.000869 -0.021014
v -0.796289 1.118336 -0.021014
v -1.303712 1.118336 -0.021014
v -1.303712 0.083402 -0.021014
v -0.796289 0.083402 -0.021014
v -0.819661 1.098303 -0.021014
v -1.280339 1.098303 -0.021014
v -1.280339 0.103436 -0.021014
v -0.819661 0.103436 -0.021014
v -1.286182 1.103311 -0.017464
v -0.802132 1.113328 -0.017464
v -1.286182 0.098427 -0.017464
v -0.813818 0.098427 -0.017464
v -1.297868 1.113328 -0.017464
v -1.292025 1.108320 -0.021014
v -0.813818 1.103311 -0.017464
v -0.807975 1.108320 -0.021014
v -1.297868 0.088411 -0.017464
v -1.292025 0.093419 -0.021014
v -0.802132 0.088411 -0.017464
v -0.807975 0.093419 -0.021014
v -2.100000 1.200870 -0.001014
v -2.100000 0.000869 -0.001014
v -1.400000 1.200870 -0.001014
v -1.400000 0.000869 -0.001014
v -1.496289 1.118336 -0.001014
v -2.003711 1.118336 -0.001014
v -2.003711 0.083402 -0.001014
v -1.496289 0.083402 -0.001014
v -1.519661 1.098303 -0.001014
v -1.980339 1.098303 -0.001014
v -1.980339 0.103436 -0.001014
v -1.519661 0.103436 -0.001014
v -1.496289 1.118336 -0.001014
v -2.003711 1.118336 -0.001014
v -2.003711 0.083402 -0.001014
v -1.496289 0.083402 -0.001014
v -1.997869 1.113328 0.002536
v -1.992025 1.108320 -0.001014
v -1.986182 1.103311 0.002536
v -1.513818 1.103311 0.002536
v -1.507975 1.108320 -0.001014
v -1.502132 1.113328 0.002536
v -1.997869 0.088411 0.002536
v -1.992025 0.093419 -0.001014
v -1.986182 0.098427 0.002536
v -1.502132 0.088411 0.002536
v -1.507975 0.093419 -0.001014
v -1.513818 0.098427 0.002536
v -1.496289 1.118336 -0.021014
v -2.003711 1.118336 -0.021014
v -2.003711 0.083402 -0.021014
v -1.496289 0.083402 -0.021014
v -1.400000 1.200870 -0.021014
v -2.100000 1.200870 -0.021014
v -2.100000 0.000869 -0.021014
v -1.400000 0.000869 -0.021014
v -1.496289 1.118336 -0.021014
v -2.003711 1.118336 -0.021014
v -2.003711 0.083402 -0.021014
v -1.496289 0.083402 -0.021014
v -1.519661 1.098303 -0.021014
v -1.980339 1.098303 -0.021014
v -1.980339 0.103436 -0.021014
v -1.519661 0.103436 -0.021014
v -1.986182 1.103311 -0.017464
v -1.502132 1.113328 -0.017464
v -1.986182 0.098427 -0.017464
v -1.513818 0.098427 -0.017464
v -1.997869 1.113328 -0.017464
v -1.992025 1.108320 -0.021014
v -1.513818 1.103311 -0.017464
v -1.507975 1.108320 -0.021014
v -1.997869 0.088411 -0.017464
v -1.992025 0.093419 -0.021014
v -1.502132 0.088411 -0.017464
v -1.507975 0.093419 -0.021014
v -2.800000 1.200870 -0.001014
v -2.800000 0.000869 -0.001014
v -2.100000 1.200870 -0.001014
v -2.100000 0.000869 -0.001014
v -2.196289 1.118336 -0.001014
v -2.703712 1.118336 -0.001014
v -2.703712 0.083402 -0.001014
v -2.196289 0.083402 -0.001014
v -2.219661 1.098303 -0.001014
v -2.680339 1.098303 -0.001014
v -2.680339 0.103436 -0.001014
v -2.219661 0.103436 -0.001014
v -2.196289 1.118336 -0.001014
v -2.703712 1.118336 -0.001014
v -2.703712 0.083402 -0.001014
v -2.196289 0.083402 -0.001014
v -2.697868 1.113328 0.002536
v -2.692025 1.108320 -0.001014
v -2.686182 1.103311 0.002536
v -2.213818 1.103311 0.002536
v -2.207975 1.108320 -0.001014
v -2.202132 1.113328 0.002536
v -2.697868 0.088411 0.002536
v -2.692025 0.093419 -0.001014
v -2.686182 0.098427 0.002536
v -2.202132 0.088411 0.002536
v -2.207975 0.093419 -0.001014
v -2.213818 0.098427 0.002536
v -2.196289 1.118336 -0.021014
v -2.703712 1.118336 -0.021014
v -2.703712 0.083402 -0.021014
v -2.196289 0.083402 -0.021014
v -2.100000 1.200870 -0.021014
v -2.800000 1.200870 -0.021014
v -2.800000 0.000869 -0.021014
v -2.100000 0.000869 -0.021014
v -2.196289 1.118336 -0.021014
v -2.703712 1.118336 -0.021014
v -2.703712 0.083402 -0.021014
v -2.196289 0.083402 -0.021014
v -2.219661 1.098303 -0.021014
v -2.680339 1.098303 -0.021014
v -2.680339 0.103436 -0.021014
v -2.219661 0.103436 -0.021014
v -2.686182 1.103311 -0.017464
v -2.202132 1.113328 -0.017464
v -2.686182 0.098427 -0.017464
v -2.213818 0.098427 -0.017464
v -2.697868 1.113328 -0.017464
v -2.692025 1.108320 -0.021014
v -2.213818 1.103311 -0.017464
v -2.207975 1.108320 -0.021014
v -2.697868 0.088411 -0.017464
v -2.692025 0.093419 -0.021014
v -2.202132 0.088411 -0.017464
v -2.207975 0.093419 -0.021014
v -3.546450 1.200870 -0.001014
v -3.546450 0.000869 -0.001014
v -2.800000 1.200870 -0.001014
v -2.800000 0.000869 -0.001014
v -2.896289 1.118336 -0.001014
v -3.403712 1.118336 -0.001014
v -3.403712 0.083402 -0.001014
v -2.896289 0.083402 -0.001014
v -2.919661 1.098303 -0.001014
v -3.380339 1.098303 -0.001014
v -3.380339 0.103436 -0.001014
v -2.919661 0.103436 -0.001014
v -2.896289 1.118336 -0.001014
v -3.403712 1.118336 -0.001014
v -3.403712 0.083402 -0.001014
v -2.896289 0.083402 -0.001014
v -3.397868 1.113328 0.002536
v -3.392025 1.108320 -0.001014
v -3.386182 1.103311 0.002536
v -2.913818 1.103311 0.002536
v -2.907975 1.108320 -0.001014
v -2.902132 1.113328 0.002536
v -3.397868 0.088411 0.002535
v -3.392025 0.093419 -0.001014
v -3.386182 0.098427 0.002535
v -2.902132 0.088411 0.002535
v -2.907975 0.093419 -0.001014
v -2.913818 0.098427 0.002535
v -2.896289 1.118336 -0.021014
v -3.403712 1.118336 -0.021014
v -3.403712 0.083402 -0.021014
v -2.896289 0.083402 -0.021014
v -2.800000 1.200870 -0.021014
v -3.546450 1.200870 -0.021014
v -3.546450 0.000869 -0.021014
v -2.800000 0.000869 -0.021014
v -2.896289 1.118336 -0.021014
v -3.403712 1.118336 -0.021014
v -3.403712 0.083402 -0.021014
v -2.896289 0.083402 -0.021014
v -2.919661 1.098303 -0.021014
v -3.380339 1.098303 -0.021014
v -3.380339 0.103436 -0.021014
v -2.919661 0.103436 -0.021014
v -3.386182 1.103311 -0.017464
v -2.902132 1.113328 -0.017464
v -3.386182 0.098427 -0.017465
v -2.913818 0.098427 -0.017465
v -3.397868 1.113328 -0.017464
v -3.392025 1.108320 -0.021014
v -2.913818 1.103311 -0.017464
v -2.907975 1.108320 -0.021014
v -3.397868 0.088411 -0.017465
v -3.392025 0.093419 -0.021014
v -2.902132 0.088411 -0.017465
v -2.907975 0.093419 -0.021014
v -0.359575 1.246653 0.159575
v 0.159575 1.246653 0.159575
v -0.359575 1.246653 -0.359575
v 0.159575 1.246653 -0.359575
v -0.338618 1.189703 -0.338618
v -0.338618 1.189703 0.138618
v 0.138618 1.189703 0.138618
v 0.138618 1.189703 -0.338618
v -0.359370 1.231813 -0.359370
v -0.355829 1.216805 -0.355829
v -0.348860 1.202488 -0.348860
v 0.148860 1.202488 -0.348860
v 0.155829 1.216805 -0.355829
v 0.159370 1.231813 -0.359370
v 0.159370 1.231813 0.159370
v 0.155829 1.216805 0.155829
v 0.148860 1.202488 0.148860
v -0.348860 1.202488 0.148860
v -0.355829 1.216805 0.155829
v -0.359370 1.231813 0.159370
v -0.355095 1.258664 -0.355095
v -0.355095 1.258664 0.155095
v 0.155095 1.258664 0.155095
v 0.155095 1.258664 -0.355095
v -3.568730 1.246653 -0.359575
v -3.568730 1.246653 0.159575
v -3.547773 1.189703 -0.338618
v -3.547773 1.189703 0.138618
v -3.558015 1.202488 -0.348860
v -3.568524 1.231813 0.159370
v -3.568524 1.231813 -0.359370
v -3.564984 1.216805 -0.355829
v -3.558015 1.202488 0.148860
v -3.564984 1.216805 0.155829
v -3.564249 1.258664 -0.355095
v -3.564249 1.258664 0.155095
v 0.159575 1.246653 -3.530566
v -0.359575 1.246653 -3.530566
v 0.138618 1.189703 -3.509609
v -0.338618 1.189703 -3.509609
v -0.348860 1.202488 -3.519851
v 0.159370 1.231813 -3.530361
v -0.359370 1.231813 -3.530361
v -0.355829 1.216805 -3.526820
v 0.148860 1.202488 -3.519851
v 0.155829 1.216805 -3.526820
v 0.155095 1.258664 -3.526086
v -0.355095 1.258664 -3.526086
v 0.005327 0.000869 -0.684856
v 0.027050 -0.048723 -0.684856
v 0.024389 -0.039770 -0.684856
v 0.018292 -0.030817 -0.684856
v 0.011329 -0.021865 -0.684856
v -0.002771 0.000869 -0.684856
v 0.005327 0.000869 -1.403352
v 0.027050 -0.048723 -1.403352
v 0.006164 -0.012912 -0.684856
v 0.024389 -0.039770 -1.403352
v 0.018292 -0.030817 -1.403352
v 0.011329 -0.021865 -1.403352
v -0.002771 0.000869 -1.403352
v 0.005327 0.000869 -2.121848
v 0.027050 -0.048723 -2.121848
v 0.006164 -0.012912 -1.403352
v 0.024389 -0.039770 -2.121848
v 0.018292 -0.030817 -2.121848
v 0.011329 -0.021865 -2.121848
v -0.002771 0.000869 -2.121848
v 0.005327 0.000869 -2.840344
v 0.027050 -0.048723 -2.840344
v 0.006164 -0.012912 -2.840344
v 0.006164 -0.012912 -2.121848
v 0.024389 -0.039770 -2.840344
v 0.018292 -0.030817 -2.840344
v 0.011329 -0.021865 -2.840344
v -0.002771 0.000869 -2.840344
v 0.005327 0.000869 -3.558840
v 0.027050 -0.048723 -3.558840
v 0.006164 -0.012912 -3.558840
v 0.024389 -0.039770 -3.558840
v 0.018292 -0.030817 -3.558840
v 0.011329 -0.021865 -3.558840
v -0.002771 0.000869 -3.558840
v -0.002771 0.000869 0.006782
v 0.004942 0.000869 -0.000580
v 0.004933 0.000869 -0.001317
v -0.002771 0.000869 -0.001317
v 0.024389 -0.039770 0.025843
v 0.027050 -0.048723 0.028504
v 0.005327 0.000869 0.006782
v 0.005327 0.000869 -0.001317
v 0.005327 0.000869 -0.000584
v 0.005327 0.000869 0.006778
v 0.006164 -0.012912 0.007618
v 0.006164 -0.012912 0.007618
v 0.006164 -0.012912 0.007618
v 0.006164 -0.012912 0.007618
v 0.011329 -0.021865 0.012784
v 0.018292 -0.030817 0.019746
v -0.002771 0.000869 0.006782
v 0.005025 0.000869 0.006782
v -0.002771 0.000869 -0.001317
v 0.005021 0.000869 0.006475
v 0.004942 0.000869 -0.000580
v 0.016873 -0.039770 0.025843
v 0.019534 -0.048723 0.028504
v 0.019534 -0.048723 -0.684856
v 0.016873 -0.039770 -0.684856
v -0.002189 0.000869 0.006782
v -0.002189 0.000869 0.006778
v -0.001352 -0.012912 0.007618
v -0.001352 -0.012912 0.007618
v -0.001352 -0.012912 0.007618
v -0.001352 -0.012912 -0.684856
v -0.002189 0.000869 -0.684856
v -0.002189 0.000869 -0.001317
v -0.002189 0.000869 -0.000584
v -0.001352 -0.012912 0.007618
v 0.003813 -0.021865 0.012784
v 0.003813 -0.021865 -0.684856
v 0.010776 -0.030817 0.019746
v 0.010776 -0.030817 -0.684856
v -0.002583 0.000869 -0.001317
v -0.010287 0.000869 -0.684856
v -0.010287 0.000869 -0.001317
v -0.010287 0.000869 -0.001317
v -0.010287 0.000869 0.006782
v -0.010287 0.000869 0.006782
v -0.002491 0.000869 0.006782
v -0.002495 0.000869 0.006475
v -0.002574 0.000869 -0.000580
v -0.002574 0.000869 -0.000580
v 0.019534 -0.048723 -1.403352
v 0.016873 -0.039770 -1.403352
v -0.002189 0.000869 -1.403352
v -0.001352 -0.012912 -1.403352
v 0.003813 -0.021865 -1.403352
v 0.010776 -0.030817 -1.403352
v -0.010287 0.000869 -1.403352
v 0.019534 -0.048723 -2.121848
v 0.016873 -0.039770 -2.121848
v -0.002189 0.000869 -2.121848
v -0.001352 -0.012912 -2.121848
v 0.003813 -0.021865 -2.121848
v 0.010776 -0.030817 -2.121848
v -0.010287 0.000869 -2.121848
v 0.019534 -0.048723 -2.840344
v 0.016873 -0.039770 -2.840344
v -0.002189 0.000869 -2.840344
v -0.001352 -0.012912 -2.840344
v 0.003813 -0.021865 -2.840344
v 0.010776 -0.030817 -2.840344
v -0.010287 0.000869 -2.840344
v 0.019534 -0.048723 -3.558840
v 0.016873 -0.039770 -3.558840
v -0.002189 0.000869 -3.558840
v -0.001352 -0.012912 -3.558840
v 0.003813 -0.021865 -3.558840
v 0.010776 -0.030817 -3.558840
v -0.010287 0.000869 -3.558840
v -3.547511 0.000869 0.006782
v -2.803679 0.000869 0.006782
v -3.547511 -0.048723 0.028504
v -2.803679 -0.048723 0.028504
v -3.547511 -0.012912 0.007618
v -3.547511 -0.021865 0.012784
v -3.547511 -0.030817 0.019746
v -3.547511 -0.039770 0.025843
v -2.803679 -0.039770 0.025843
v -2.803679 -0.030817 0.019746
v -2.803679 -0.021865 0.012784
v -3.547511 0.000869 -0.001317
v -2.803679 0.000869 -0.001317
v -2.085182 0.000869 0.006782
v -2.085182 -0.048723 0.028504
v -2.803679 -0.012912 0.007618
v -2.085182 -0.039770 0.025843
v -2.085182 -0.030817 0.019746
v -2.085182 -0.021865 0.012784
v -2.085182 0.000869 -0.001317
v -1.366686 0.000869 0.006782
v -1.366686 -0.048723 0.028504
v -2.085182 -0.012912 0.007618
v -1.366686 -0.039770 0.025843
v -1.366686 -0.030817 0.019746
v -1.366686 -0.021865 0.012784
v -1.366686 0.000869 -0.001317
v -0.648190 0.000869 0.006782
v -0.648190 -0.048723 0.028504
v -0.648190 -0.012912 0.007618
v -1.366686 -0.012912 0.007618
v -0.648190 -0.039770 0.025843
v -0.648190 -0.030817 0.019746
v -0.648190 -0.021865 0.012784
v -0.648190 0.000869 -0.001317
v 0.024389 -0.039770 0.025843
v 0.027050 -0.048723 0.028504
v -0.002771 0.000869 0.006782
v 0.005327 0.000869 0.006782
v 0.006164 -0.012912 0.007618
v 0.006164 -0.012912 0.007618
v 0.011329 -0.021865 0.012784
v 0.018292 -0.030817 0.019746
v 0.005327 0.000869 -0.001317
v 0.005327 0.000869 -0.000584
v 0.004942 0.000869 -0.000580
v 0.004933 0.000869 -0.001317
v -0.002771 0.000869 -0.001317
v -2.803679 -0.048723 0.022241
v -2.803679 -0.039770 0.019580
v -3.547511 -0.039770 0.019580
v -3.547511 -0.048723 0.022241
v -2.803679 0.000869 0.000518
v -2.803679 -0.012912 0.001355
v -3.547511 0.000869 0.000518
v -3.547511 -0.012912 0.001355
v -2.803679 -0.021865 0.006520
v -3.547511 -0.021865 0.006520
v -2.803679 -0.030817 0.013483
v -3.547511 -0.030817 0.013483
v -3.547511 0.000869 -0.007580
v -2.803679 0.000869 -0.007580
v -2.085182 -0.048723 0.022241
v -2.085182 -0.039770 0.019580
v -2.085182 0.000869 0.000518
v -2.085182 -0.012912 0.001355
v -2.085182 -0.021865 0.006520
v -2.085182 -0.030817 0.013483
v -2.085182 0.000869 -0.007580
v -1.366686 -0.048723 0.022241
v -1.366686 -0.039770 0.019580
v -1.366686 0.000869 0.000518
v -1.366686 -0.012912 0.001355
v -1.366686 -0.021865 0.006520
v -1.366686 -0.030817 0.013483
v -1.366686 0.000869 -0.007580
v -0.648190 -0.048723 0.022241
v -0.648190 -0.039770 0.019580
v -0.648190 0.000869 0.000519
v -0.648190 -0.012912 0.001355
v -0.648190 -0.021865 0.006520
v -0.648190 -0.030817 0.013483
v -0.648190 0.000869 -0.007580
v 0.024389 -0.039770 0.019580
v 0.027050 -0.048723 0.022241
v 0.005327 0.000869 0.000519
v 0.006164 -0.012912 0.001355
v -0.002771 0.000869 0.000519
v 0.006164 -0.012912 0.001355
v 0.011329 -0.021865 0.006520
v 0.018292 -0.030817 0.013483
v -0.002771 0.000869 -0.007580
v 0.005327 0.000869 -0.006848
v 0.005327 0.000869 -0.007580
v 0.004942 0.000869 -0.006843
v 0.004933 0.000869 -0.007580
v -0.168873 1.239134 -0.051127
v -0.168873 1.239134 -0.188873
v -0.031127 1.239134 -0.051127
v -0.031127 1.239134 -0.188873
v -0.136481 1.542393 -0.120000
v -0.100000 1.542393 -0.083519
v -0.100000 1.542393 -0.156481
v -0.136481 1.542393 -0.120000
v -0.100000 1.542393 -0.083519
v -0.063519 1.542393 -0.120000
v -0.063519 1.542393 -0.120000
v -0.100000 1.542393 -0.156481
v -0.132391 1.542393 -0.051127
v -0.168873 1.542393 -0.087609
v -0.168873 1.494717 -0.051127
v -0.168873 1.542393 -0.152391
v -0.132391 1.542393 -0.188873
v -0.168873 1.494717 -0.188873
v -0.067609 1.542393 -0.188873
v -0.031127 1.542393 -0.152391
v -0.031127 1.494717 -0.188873
v -0.031127 1.542393 -0.087609
v -0.067609 1.542393 -0.051127
v -0.031127 1.494717 -0.051127
v -0.100000 1.682928 -0.120000
v -0.100000 1.682139 -0.120000
v -0.100000 1.659985 -0.173484
v -0.100000 1.606501 -0.195638
v -0.100000 1.553016 -0.173484
v -0.100000 1.530863 -0.120000
v -0.062181 1.659985 -0.157819
v -0.046516 1.606501 -0.173484
v -0.062181 1.553016 -0.157819
v -0.046516 1.659985 -0.120000
v -0.024362 1.606501 -0.120000
v -0.046516 1.553016 -0.120000
v -0.062181 1.659985 -0.082181
v -0.046516 1.606501 -0.066516
v -0.062181 1.553016 -0.082181
v -0.100000 1.659985 -0.066516
v -0.100000 1.606501 -0.044362
v -0.100000 1.553016 -0.066516
v -0.137819 1.659985 -0.082181
v -0.153484 1.606501 -0.066516
v -0.137819 1.553016 -0.082181
v -0.153484 1.659985 -0.120000
v -0.175638 1.606501 -0.120000
v -0.153484 1.553016 -0.120000
v -0.137819 1.659985 -0.157819
v -0.153484 1.606501 -0.173484
v -0.137819 1.553016 -0.157819
v -0.134868 2.236224 -0.154868
v -0.134868 2.236224 -0.085132
v -0.065132 2.236224 -0.154868
v -0.065132 2.236224 -0.085132
v -0.136481 1.671854 -0.120000
v -0.100000 1.671854 -0.156481
v -0.100000 1.671854 -0.083519
v -0.136481 1.671854 -0.120000
v -0.100000 1.671854 -0.156481
v -0.063519 1.671854 -0.120000
v -0.063519 1.671854 -0.120000
v -0.100000 1.671854 -0.083519
v -0.132391 1.671854 -0.188873
v -0.168873 1.671854 -0.152391
v -0.168873 1.719531 -0.188873
v -0.168873 1.671854 -0.087609
v -0.132391 1.671854 -0.051127
v -0.168873 1.719531 -0.051127
v -0.067609 1.671854 -0.051127
v -0.031127 1.671854 -0.087609
v -0.031127 1.719531 -0.051127
v -0.031127 1.671854 -0.152391
v -0.067609 1.671854 -0.188873
v -0.031127 1.719531 -0.188873
v -0.062681 2.200671 -0.157319
v -0.059936 2.159514 -0.160064
v -0.056781 2.111302 -0.163219
v -0.052997 2.053469 -0.167003
v -0.048064 1.980336 -0.171936
v -0.039462 1.867659 -0.180538
v -0.160538 1.867659 -0.059462
v -0.151936 1.980336 -0.068064
v -0.147003 2.053469 -0.072997
v -0.143219 2.111302 -0.076781
v -0.140064 2.159514 -0.079936
v -0.137319 2.200671 -0.082681
v -0.039462 1.867659 -0.059462
v -0.048064 1.980336 -0.068064
v -0.052997 2.053469 -0.072997
v -0.056781 2.111302 -0.076781
v -0.059936 2.159514 -0.079936
v -0.062681 2.200671 -0.082681
v -0.137319 2.200671 -0.157319
v -0.140064 2.159514 -0.160064
v -0.143219 2.111302 -0.163219
v -0.147003 2.053469 -0.167003
v -0.151936 1.980336 -0.171936
v -0.160538 1.867659 -0.180538
v -3.618719 2.236160 0.006095
v 0.008535 2.236160 0.006095
v -3.618719 2.954126 0.006095
v 0.008535 2.954126 0.006095
v 0.008535 2.236160 -3.555756
v 0.008535 2.954126 -3.555756
v -3.618719 2.236160 -0.103905
v -0.069246 2.236160 -0.071686
v -3.618719 2.954126 -0.103905
v -0.069246 2.954126 -0.071686
v -0.101465 2.236160 -3.555756
v -0.101465 2.954126 -3.555756
v -0.419575 2.260025 0.099575
v 0.099575 2.260025 0.099575
v -0.419575 2.260025 -0.419575
v 0.099575 2.260025 -0.419575
v -0.398618 2.203075 -0.398618
v -0.398618 2.203075 0.078618
v -0.419370 2.245184 -0.419370
v -0.415829 2.230176 -0.415829
v -0.408860 2.215859 -0.408860
v 0.088860 2.215859 -0.408860
v 0.095829 2.230176 -0.415829
v 0.099370 2.245184 -0.419370
v 0.099370 2.245184 0.099370
v 0.095829 2.230176 0.095829
v 0.088860 2.215859 0.088860
v -0.408860 2.215859 0.088860
v -0.415829 2.230176 0.095829
v -0.419370 2.245184 0.099370
v -0.415095 2.272035 -0.415095
v -0.415095 2.272035 0.095095
v 0.095095 2.272035 0.095095
v 0.095095 2.272035 -0.415095
v -3.628730 2.260025 -0.419575
v -3.628730 2.260025 0.099575
v -3.618015 2.215859 -0.408860
v -3.628524 2.245184 0.099370
v -3.628524 2.245184 -0.419370
v -3.624984 2.230176 -0.415829
v -3.618015 2.215859 0.088860
v -3.624984 2.230176 0.095829
v -3.624249 2.272035 -0.415095
v -3.624249 2.272035 0.095095
v 0.099575 2.260025 -3.590566
v -0.419575 2.260025 -3.590566
v -0.408860 2.215859 -3.579851
v 0.099370 2.245184 -3.590361
v -0.419370 2.245184 -3.590361
v -0.415829 2.230176 -3.586820
v 0.088860 2.215859 -3.579851
v 0.095829 2.230176 -3.586820
v 0.095095 2.272035 -3.586086
v -0.415095 2.272035 -3.586086
v 0.078618 2.203075 -3.569609
v 0.078618 2.203075 -0.398618
v 0.078618 2.203075 0.078618
v -0.398618 2.203075 -3.569609
v -3.607773 2.203075 -0.398618
v -3.607773 2.203075 0.078618
v -0.353948 2.168334 -0.353948
v -0.398618 2.168334 0.033948
v 0.033948 2.168334 -0.398618
v 0.033948 2.168334 -3.524939
v 0.033948 2.168334 0.033948
v -0.353948 2.168334 -3.524939
v -3.563102 2.168334 -0.353948
v -3.563102 2.168334 0.033948
v 0.058291 2.203075 0.058291
v 0.033948 2.178731 0.033948
v 0.041078 2.195945 0.041078
v 0.033948 2.178731 -0.398618
v 0.058291 2.203075 -0.398618
v 0.041078 2.195945 -0.398618
v -3.563102 2.178731 -0.353948
v -3.587446 2.203075 -0.378291
v -3.570233 2.195945 -0.361078
v -3.587446 2.203075 0.058291
v -3.563102 2.178731 0.033948
v -3.570233 2.195945 0.041078
v 0.058291 2.203075 -3.549283
v 0.033948 2.178731 -3.524939
v 0.041078 2.195945 -3.532069
v -0.353948 2.178731 -3.524939
v -0.378291 2.203075 -3.549283
v -0.361078 2.195945 -3.532069
v -0.398618 2.178731 0.033948
v -0.398618 2.203075 0.058291
v -0.398618 2.195945 0.041078
v -0.378291 2.203075 -0.378291
v -0.353948 2.178731 -0.353948
v -0.361078 2.195945 -0.361078
v 0.014135 2.170237 -3.512869
v 0.014193 2.170237 -3.060310
v 0.014193 1.257126 -3.060310
v 0.014129 2.107435 -3.133534
v 0.014129 2.107435 -3.439595
v 0.014129 1.319927 -3.439595
v 0.014129 1.319927 -3.133534
v 0.014129 2.092191 -3.151319
v 0.014129 2.092191 -3.421811
v 0.014129 1.335171 -3.421811
v 0.014129 1.335171 -3.151319
v 0.016831 2.103624 -3.435149
v 0.014129 2.099813 -3.430703
v 0.016831 2.096002 -3.426257
v 0.016831 2.096002 -3.146873
v 0.014129 2.099813 -3.142426
v 0.016831 2.103624 -3.137980
v 0.016831 1.323738 -3.435149
v 0.014129 1.327549 -3.430703
v 0.016831 1.331360 -3.426257
v 0.016831 1.323738 -3.137980
v 0.014129 1.327549 -3.142426
v 0.016831 1.331360 -3.146873
v -0.351513 2.170237 -3.060359
v -0.351512 1.257126 -3.060359
v -0.278250 2.107435 -3.060355
v -0.059012 2.107435 -3.060355
v -0.059012 1.319927 -3.060355
v -0.278250 1.319927 -3.060355
v -0.260466 2.092191 -3.060355
v -0.076797 2.092191 -3.060355
v -0.076797 1.335171 -3.060355
v -0.260466 1.335171 -3.060355
v -0.063459 2.103624 -3.057654
v -0.067905 2.099813 -3.060355
v -0.072351 2.096002 -3.057654
v -0.264912 2.096002 -3.057654
v -0.269358 2.099813 -3.060355
v -0.273804 2.103624 -3.057654
v -0.063459 1.323738 -3.057654
v -0.067905 1.327549 -3.060355
v -0.072351 1.331360 -3.057654
v -0.273804 1.323738 -3.057654
v -0.269358 1.327549 -3.060355
v -0.264912 1.331360 -3.057654
v -0.351570 2.170237 -3.512918
v -0.351570 1.257126 -3.512918
v -0.351507 2.107435 -3.439694
v -0.351507 2.107435 -3.133633
v -0.351507 1.319927 -3.133633
v -0.351507 1.319927 -3.439694
v -0.351507 2.092191 -3.421909
v -0.351507 2.092191 -3.151417
v -0.351507 1.335171 -3.151417
v -0.351507 1.335171 -3.421909
v -0.354208 2.103624 -3.138079
v -0.351507 2.099813 -3.142525
v -0.354208 2.096002 -3.146971
v -0.354208 2.096002 -3.426356
v -0.351507 2.099813 -3.430802
v -0.354208 2.103624 -3.435248
v -0.354208 1.323738 -3.138079
v -0.351507 1.327549 -3.142525
v -0.354208 1.331360 -3.146971
v -0.354208 1.323738 -3.435248
v -0.351507 1.327549 -3.430802
v -0.354208 1.331360 -3.426356
v 0.014135 1.257126 -3.512869
v -0.059127 2.107435 -3.512873
v -0.278365 2.107435 -3.512873
v -0.278365 1.319927 -3.512873
v -0.059127 1.319927 -3.512873
v -0.076912 2.092191 -3.512873
v -0.260580 2.092191 -3.512873
v -0.260580 1.335171 -3.512873
v -0.076912 1.335171 -3.512873
v -0.273919 2.103624 -3.515574
v -0.269473 2.099813 -3.512873
v -0.265026 2.096002 -3.515574
v -0.072466 2.096002 -3.515574
v -0.068019 2.099813 -3.512873
v -0.063573 2.103624 -3.515574
v -0.273919 1.323738 -3.515574
v -0.269473 1.327549 -3.512873
v -0.265026 1.331360 -3.515574
v -0.063573 1.323738 -3.515574
v -0.068019 1.327549 -3.512873
v -0.072466 1.331360 -3.515574
v -3.102789 2.170237 0.021342
v -3.555347 2.170237 0.021399
v -3.555347 1.257126 0.021399
v -3.482123 2.107435 0.021336
v -3.176062 2.107435 0.021336
v -3.176062 1.319927 0.021336
v -3.482123 1.319927 0.021336
v -3.464339 2.092191 0.021336
v -3.193846 2.092191 0.021336
v -3.193846 1.335171 0.021336
v -3.464339 1.335171 0.021336
v -3.180508 2.103624 0.024037
v -3.184954 2.099813 0.021336
v -3.189400 2.096002 0.024037
v -3.468785 2.096002 0.024037
v -3.473231 2.099813 0.021336
v -3.477677 2.103624 0.024037
v -3.180508 1.323738 0.024037
v -3.184954 1.327549 0.021336
v -3.189400 1.331360 0.024037
v -3.477677 1.323738 0.024037
v -3.473231 1.327549 0.021336
v -3.468785 1.331360 0.024037
v -3.555298 2.170237 -0.344306
v -3.555298 1.257126 -0.344306
v -3.555302 2.107435 -0.271043
v -3.555302 2.107435 -0.051806
v -3.555302 1.319927 -0.051806
v -3.555302 1.319927 -0.271043
v -3.555302 2.092191 -0.253259
v -3.555302 2.092191 -0.069590
v -3.555302 1.335171 -0.069590
v -3.555302 1.335171 -0.253259
v -3.558004 2.103624 -0.056252
v -3.555302 2.099813 -0.060698
v -3.558004 2.096002 -0.065144
v -3.558004 2.096002 -0.257705
v -3.555302 2.099813 -0.262151
v -3.558004 2.103624 -0.266597
v -3.558004 1.323738 -0.056252
v -3.555302 1.327549 -0.060698
v -3.558004 1.331360 -0.065144
v -3.558004 1.323738 -0.266597
v -3.555302 1.327549 -0.262151
v -3.558004 1.331360 -0.257705
v -3.102740 2.170237 -0.344363
v -3.102740 1.257126 -0.344363
v -3.175963 2.107435 -0.344300
v -3.482025 2.107435 -0.344300
v -3.482025 1.319927 -0.344300
v -3.175963 1.319927 -0.344300
v -3.193748 2.092191 -0.344300
v -3.464240 2.092191 -0.344300
v -3.464240 1.335171 -0.344300
v -3.193748 1.335171 -0.344300
v -3.477578 2.103624 -0.347001
v -3.473132 2.099813 -0.344300
v -3.468686 2.096002 -0.347001
v -3.189302 2.096002 -0.347001
v -3.184856 2.099813 -0.344300
v -3.180409 2.103624 -0.347001
v -3.477578 1.323738 -0.347001
v -3.473132 1.327549 -0.344300
v -3.468686 1.331360 -0.347001
v -3.180409 1.323738 -0.347001
v -3.184856 1.327549 -0.344300
v -3.189302 1.331360 -0.347001
v -3.102789 1.257126 0.021342
v -3.102784 2.107435 -0.051920
v -3.102784 2.107435 -0.271158
v -3.102784 1.319927 -0.271158
v -3.102784 1.319927 -0.051920
v -3.102784 2.092191 -0.069705
v -3.102784 2.092191 -0.253373
v -3.102784 1.335171 -0.253373
v -3.102784 1.335171 -0.069705
v -3.100083 2.103624 -0.266712
v -3.102784 2.099813 -0.262266
v -3.100083 2.096002 -0.257820
v -3.100083 2.096002 -0.065259
v -3.102784 2.099813 -0.060813
v -3.100083 2.103624 -0.056367
v -3.100083 1.323738 -0.266712
v -3.102784 1.327549 -0.262266
v -3.100083 1.331360 -0.257820
v -3.100083 1.323738 -0.056367
v -3.102784 1.327549 -0.060813
v -3.100083 1.331360 -0.065259
vn -0.0000 1.0000 -0.0000
vn 1.0000 -0.0000 -0.0000
vn 0.8158 0.5783 -0.0000
vn 0.8546 -0.0000 0.5192
vn 0.8158 -0.5783 -0.0000
vn 0.8546 -0.0000 -0.5192
vn -1.0000 -0.0000 -0.0000
vn -0.8158 -0.5783 -0.0000
vn -0.8546 -0.0000 -0.5192
vn -0.8158 0.5783 -0.0000
vn -0.8546 -0.0000 0.5192
vn -0.0000 -1.0000 -0.0000
vn -0.0000 -0.0000 -1.0000
vn -0.0000 -0.0000 1.0000
vn 0.8546 -0.0000 0.5193
vn -0.8546 -0.0000 -0.5193
vn 0.8546 -0.0000 -0.5193
vn -0.8546 -0.0000 0.5193
vn -0.0000 0.5783 0.8158
vn -0.5192 -0.0000 0.8546
vn -0.0000 -0.5783 0.8158
vn 0.5192 -0.0000 0.8546
vn -0.0000 -0.5783 -0.8158
vn 0.5192 -0.0000 -0.8546
vn -0.0000 0.5783 -0.8158
vn -0.5192 -0.0000 -0.8546
vn 0.5193 -0.0000 0.8546
vn -0.5193 -0.0000 0.8546
vn 0.9925 -0.1225 -0.0000
vn 0.9935 -0.1136 -0.0000
vn 0.9888 0.1494 -0.0000
vn 0.9853 0.1708 -0.0000
vn -0.9822 0.1878 -0.0000
vn -0.9888 0.1494 -0.0000
vn -0.9935 -0.1136 -0.0000
vn -0.9915 -0.1302 -0.0000
vn -0.0000 -0.5347 0.8450
vn -0.0000 -0.6252 0.7804
vn -0.0000 -0.5038 0.8638
vn 0.8638 -0.5038 -0.0000
vn 0.7804 -0.6252 -0.0000
vn 0.8450 -0.5347 -0.0000
vn -0.0000 -0.1302 -0.9915
vn -0.0000 -0.1136 -0.9935
vn -0.0000 0.1494 -0.9888
vn -0.0000 0.1878 -0.9822
vn -0.0000 -0.3357 0.9420
vn -0.0000 -0.3130 0.9498
vn -0.0000 -0.6252 -0.7804
vn -0.0000 -0.5038 -0.8638
vn -0.0000 -0.5623 -0.8269
vn -0.0000 0.3495 0.9369
vn -0.0000 0.1494 0.9888
vn -0.0000 0.1708 0.9853
vn 0.9498 -0.3130 -0.0000
vn 0.9420 -0.3357 -0.0000
vn -0.0000 -0.1225 0.9925
vn -0.0000 -0.1136 0.9935
vn -0.8269 -0.5623 -0.0000
vn -0.8638 -0.5038 -0.0000
vn -0.7804 -0.6252 -0.0000
vn 0.9369 0.3495 -0.0000
vn -0.7805 -0.6252 -0.0000
vn -0.9498 -0.3130 -0.0000
vn -0.9369 0.3495 -0.0000
vn -0.0000 -0.3557 -0.9346
vn -0.0000 -0.3130 -0.9498
vn -0.0000 0.3495 -0.9369
vn -0.0000 -0.6252 -0.7805
vn -0.9346 -0.3557 -0.0000
vn 0.9585 0.2849 -0.0000
vn 0.9982 0.0606 -0.0000
vn 0.8662 0.4998 -0.0000
vn 0.7894 0.6139 -0.0000
vn 0.8265 0.5629 -0.0000
vn -0.9585 -0.2849 -0.0000
vn -0.9982 -0.0606 -0.0000
vn -0.8662 -0.4998 -0.0000
vn -0.7894 -0.6139 -0.0000
vn -0.8265 -0.5629 -0.0000
vn -0.0000 0.6139 0.7894
vn -0.0000 0.0606 0.9982
vn -0.0000 0.5629 0.8265
vn -0.0000 0.4998 0.8662
vn -0.0000 0.2849 0.9585
vn -0.0000 -0.2849 -0.9585
vn -0.0000 -0.0606 -0.9982
vn -0.0000 -0.4998 -0.8662
vn -0.0000 -0.6139 -0.7894
vn -0.0000 -0.5629 -0.8265
vn 0.9586 0.2849 -0.0000
vn -0.6219 0.4759 0.6219
vn -0.6219 0.4759 -0.6219
vn 0.6219 0.4759 -0.6219
vn 0.6219 0.4759 0.6219
vn 0.3574 0.3574 -0.8629
vn 0.3574 -0.3574 -0.8629
vn 0.1566 0.9125 -0.3780
vn 0.1566 -0.9125 -0.3780
vn 0.8629 -0.3574 -0.3574
vn 0.3780 0.9125 -0.1566
vn 0.3780 -0.9125 -0.1566
vn 0.8629 0.3574 -0.3574
vn 0.8629 -0.3574 0.3574
vn 0.3780 0.9125 0.1566
vn 0.3780 -0.9125 0.1566
vn 0.8629 0.3574 0.3574
vn 0.3574 0.3574 0.8629
vn 0.3574 -0.3574 0.8629
vn 0.1566 0.9125 0.3780
vn 0.1566 -0.9125 0.3780
vn -0.1566 -0.9125 0.3780
vn -0.3574 0.3574 0.8629
vn -0.3574 -0.3574 0.8629
vn -0.1566 0.9125 0.3780
vn -0.3780 -0.9125 0.1566
vn -0.8629 0.3574 0.3574
vn -0.8629 -0.3574 0.3574
vn -0.3780 0.9125 0.1566
vn -0.3780 -0.9125 -0.1566
vn -0.8629 0.3574 -0.3574
vn -0.8629 -0.3574 -0.3574
vn -0.3780 0.9125 -0.1566
vn -0.1566 -0.9125 -0.3780
vn -0.3574 0.3574 -0.8629
vn -0.3574 -0.3574 -0.8629
vn -0.1566 0.9125 -0.3780
vn -0.6219 -0.4759 -0.6219
vn -0.6219 -0.4759 0.6219
vn 0.6219 -0.4759 0.6219
vn 0.6219 -0.4759 -0.6219
vn 0.9984 0.0562 -0.0000
vn -0.0000 0.0562 0.9984
vn -0.0000 0.0562 -0.9984
vn -0.9984 0.0562 -0.0000
vn -0.9976 0.0688 -0.0000
vn -0.9978 0.0665 -0.0000
vn -0.9979 0.0653 -0.0000
vn -0.9977 0.0673 -0.0000
vn -0.9971 0.0761 -0.0000
vn -0.0000 0.0688 -0.9976
vn -0.0000 0.0665 -0.9978
vn -0.0000 0.0653 -0.9979
vn -0.0000 0.0673 -0.9977
vn -0.0000 0.0761 -0.9971
vn -0.0000 0.0688 0.9976
vn -0.0000 0.0665 0.9978
vn -0.0000 0.0653 0.9979
vn -0.0000 0.0673 0.9977
vn -0.0000 0.0761 0.9971
vn 0.9976 0.0688 -0.0000
vn 0.9978 0.0665 -0.0000
vn 0.9979 0.0653 -0.0000
vn 0.9977 0.0673 -0.0000
vn 0.9971 0.0761 -0.0000
vn 0.0091 -0.0000 -1.0000
vn -1.0000 -0.0000 0.0092
vn -0.0000 -0.1224 0.9925
vn 0.9765 -0.2154 -0.0000
vn 0.9239 -0.3827 -0.0000
vn 0.9808 -0.1951 -0.0000
vn 0.3827 -0.9239 -0.0000
vn 0.0505 -0.9974 -0.0505
vn 0.1951 -0.9808 -0.0000
vn -0.0000 -0.9808 0.1951
vn -0.0000 -0.9239 0.3827
vn 0.0505 -0.9974 0.0505
vn -0.0000 -0.3827 0.9239
vn -0.0000 -0.1951 0.9808
vn -0.0000 -0.2154 0.9765
vn -0.9856 -0.1693 -0.0000
vn -0.9239 -0.3827 -0.0000
vn -0.9765 -0.2154 -0.0000
vn -0.3827 -0.9239 -0.0000
vn -0.1481 -0.9778 -0.1481
vn -0.0505 -0.9974 -0.0505
vn -0.0505 -0.9974 0.0505
vn -0.0000 -0.2154 -0.9765
vn -0.0000 -0.3827 -0.9239
vn -0.0000 -0.1693 -0.9856
vn -0.0000 -0.9239 -0.3827
vn 1.0000 -0.0006 -0.0001
vn 1.0000 -0.0000 0.0001
vn 1.0000 0.0006 -0.0001
vn 1.0000 -0.0000 -0.0009
vn 0.8159 0.5783 -0.0000
vn -0.0001 -0.0003 1.0000
vn -0.0006 -0.0000 1.0000
vn -0.0001 0.0003 1.0000
vn -0.0001 -0.0000 1.0000
vn -0.0000 -0.5783 0.8159
vn -0.0000 0.5782 0.8159
vn -0.0000 0.5783 0.8159
vn -0.0000 -0.5782 0.8159
vn -1.0000 -0.0006 0.0001
vn -1.0000 -0.0000 -0.0001
vn -1.0000 0.0006 0.0001
vn -1.0000 -0.0000 0.0009
vn -0.8159 0.5783 -0.0000
vn 0.0001 -0.0003 -1.0000
vn 0.0006 -0.0000 -1.0000
vn 0.0001 0.0003 -1.0000
vn 0.0001 -0.0000 -1.0000
vn -0.0000 0.5782 -0.8159
vn -0.0000 0.5783 -0.8159
vn 0.0001 -0.0006 1.0000
vn 0.0001 0.0006 1.0000
vn 0.0009 -0.0000 1.0000
vn 0.5192 -0.0000 0.8547
vn -1.0000 -0.0003 -0.0001
vn -1.0000 -0.0000 -0.0006
vn -1.0000 0.0003 -0.0001
vn -0.0001 -0.0006 -1.0000
vn -0.0001 0.0006 -1.0000
vn -0.0009 -0.0000 -1.0000
vn -0.5193 -0.0000 -0.8546
vn -0.0000 -0.5783 -0.8159
vn 1.0000 -0.0003 0.0001
vn 1.0000 -0.0000 0.0006
vn 1.0000 0.0003 0.0001
vn 0.8159 -0.5783 -0.0000
vn 0.8159 0.5782 -0.0000
vt 0.068778 0.862445
vt 0.068778 0.137555
vt 0.000000 1.000000
vt 0.000000 0.000000
vt 0.931222 0.137555
vt 1.000000 0.000000
vt 0.931222 0.862445
vt 1.000000 1.000000
vt 0.085472 0.170944
vt 0.914528 0.170944
vt 0.914528 0.829056
vt 0.085472 0.829056
vt 0.072951 0.145902
vt 0.072951 0.854098
vt 0.927049 0.145902
vt 0.927049 0.854098
vt 0.918702 0.837403
vt 0.081298 0.837403
vt 0.922875 0.845750
vt 0.077125 0.845750
vt 0.918702 0.162597
vt 0.922875 0.154250
vt 0.081298 0.162597
vt 0.077125 0.154250
vt 0.125000 0.500000
vt 0.375000 0.500000
vt 0.375000 0.750000
vt 0.125000 0.750000
vt 0.625000 0.000000
vt 0.625000 0.066211
vt 0.585696 0.000000
vt 0.625000 0.183789
vt 0.625000 0.283106
vt 0.585696 0.250000
vt 0.658106 0.466894
vt 0.625000 0.549659
vt 0.585696 0.500000
vt 0.625000 0.700341
vt 0.658106 0.783106
vt 0.585696 0.750000
vt 0.808789 0.750000
vt 0.750000 0.691211
vt 0.816211 0.625000
vt 0.875000 0.683789
vt 0.750000 0.558789
vt 0.808789 0.500000
vt 0.875000 0.566211
vt 0.683789 0.625000
vt 0.625000 0.933789
vt 0.585696 1.000000
vt 0.375000 1.000000
vt 0.375000 0.000000
vt 0.375000 0.250000
vt 0.750000 0.500000
vt 0.750000 0.750000
vt 0.625000 0.750000
vt 0.625000 0.500000
vt 0.750000 0.250000
vt 0.625000 0.250000
vt 0.687500 1.000000
vt 0.687500 0.000000
vt 0.500000 0.500000
vt 0.500000 0.250000
vt 0.562500 1.000000
vt 0.500000 0.750000
vt 0.562500 0.000000
vt 0.437500 1.000000
vt 0.375000 0.750000
vt 0.437500 0.000000
vt 0.250000 0.750000
vt 0.250000 0.500000
vt 0.250000 0.250000
vt 0.312500 1.000000
vt 0.312500 0.000000
vt 0.187500 0.000000
vt 0.125000 0.250000
vt 0.125000 0.750000
vt 0.187500 1.000000
vt 0.062500 0.000000
vt 0.000000 0.250000
vt 0.000000 0.750000
vt 0.000000 0.500000
vt 0.062500 1.000000
vt 0.937500 0.000000
vt 1.000000 0.250000
vt 0.875000 0.250000
vt 1.000000 0.500000
vt 1.000000 0.750000
vt 0.875000 0.750000
vt 0.875000 0.500000
vt 0.937500 1.000000
vt 0.812500 0.000000
vt 0.812500 1.000000
vt 0.555597 0.750000
vt 0.555597 0.500000
vt 0.555597 0.250000
vt 0.519883 0.107143
vt 0.190814 0.642857
vt 0.405099 0.250000
vt 0.256628 0.535714
vt 0.435199 0.250000
vt 0.322441 0.428571
vt 0.465298 0.250000
vt 0.388255 0.321429
vt 0.495398 0.250000
vt 0.454069 0.214286
vt 0.525497 0.250000
vt 0.405100 0.750000
vt 0.435199 0.750000
vt 0.465298 0.750000
vt 0.495398 0.750000
vt 0.525497 0.750000
vt 0.405099 0.500000
vt 0.435199 0.500000
vt 0.465298 0.500000
vt 0.495398 0.500000
vt 0.525497 0.500000
vt 0.000000 0.093602
vt 0.093602 0.906398
vt 0.906398 1.000000
vt 0.906398 0.093602
vt 0.000000 0.093602
vt 0.000000 0.906398
vt 0.000000 0.906398
vt 0.093602 1.000000
vt 0.957407 1.000000
vt 0.957407 1.000000
vt 0.000000 0.042593
vt 0.957407 0.042593
vt 0.906398 0.093602
vt 0.000105 0.906503
vt 0.000000 0.957407
vt 0.042593 1.000000
vt 0.000000 0.957407
vt 0.000000 0.042593
s 0
f 5/1/1 6/2/1 14/2/1 13/1/1
f 6/2/2 5/1/2 3/3/2 1/4/2
f 7/5/2 6/2/2 1/4/2 2/6/2
f 8/7/2 7/5/2 2/6/2 4/8/2
f 5/1/2 8/7/2 4/8/2 3/3/2
f 10/9/2 11/10/2 12/11/2 9/12/2
f 8/7/1 5/1/1 13/1/1 16/7/1
f 6/2/1 7/5/1 15/5/1 14/2/1
f 7/5/1 8/7/1 16/7/1 15/5/1
f 17/13/3 22/14/3 13/1/3 14/2/3
f 23/15/4 17/13/4 14/2/4 15/5/4
f 26/16/5 23/15/5 15/5/5 16/7/5
f 22/14/6 26/16/6 16/7/6 13/1/6
f 9/12/4 12/11/4 28/17/4 20/18/4
f 20/18/6 28/17/6 27/19/6 21/20/6
f 21/20/4 27/19/4 26/16/4 22/14/4
f 12/11/3 11/10/3 25/21/3 28/17/3
f 28/17/5 25/21/5 24/22/5 27/19/5
f 27/19/3 24/22/3 23/15/3 26/16/3
f 11/10/6 10/9/6 19/23/6 25/21/6
f 25/21/4 19/23/4 18/24/4 24/22/4
f 24/22/6 18/24/6 17/13/6 23/15/6
f 10/9/5 9/12/5 20/18/5 19/23/5
f 19/23/3 20/18/3 21/20/3 18/24/3
f 18/24/5 21/20/5 22/14/5 17/13/5
f 29/1/1 37/1/1 38/2/1 30/2/1
f 30/2/7 34/4/7 33/3/7 29/1/7
f 31/5/7 35/6/7 34/4/7 30/2/7
f 32/7/7 36/8/7 35/6/7 31/5/7
f 29/1/7 33/3/7 36/8/7 32/7/7
f 42/9/7 41/12/7 44/11/7 43/10/7
f 32/7/1 40/7/1 37/1/1 29/1/1
f 30/2/1 38/2/1 39/5/1 31/5/1
f 31/5/1 39/5/1 40/7/1 32/7/1
f 49/13/8 38/2/8 37/1/8 46/14/8
f 53/15/9 39/5/9 38/2/9 49/13/9
f 55/16/10 40/7/10 39/5/10 53/15/10
f 46/14/11 37/1/11 40/7/11 55/16/11
f 41/12/9 51/18/9 48/17/9 44/11/9
f 51/18/11 52/20/11 56/19/11 48/17/11
f 52/20/9 46/14/9 55/16/9 56/19/9
f 44/11/8 48/17/8 47/21/8 43/10/8
f 48/17/10 56/19/10 54/22/10 47/21/10
f 56/19/8 55/16/8 53/15/8 54/22/8
f 43/10/11 47/21/11 45/23/11 42/9/11
f 47/21/9 54/22/9 50/24/9 45/23/9
f 54/22/11 53/15/11 49/13/11 50/24/11
f 42/9/10 45/23/10 51/18/10 41/12/10
f 45/23/8 50/24/8 52/20/8 51/18/8
f 50/24/10 49/13/10 46/14/10 52/20/10
f 2/6/12 35/6/12 36/8/12 4/8/12
f 3/3/1 33/3/1 34/4/1 1/4/1
f 4/8/13 36/8/13 33/3/13 3/3/13
f 1/4/14 34/4/14 35/6/14 2/6/14
f 4/8/1 2/6/1 57/6/1 58/8/1
f 63/1/1 64/2/1 72/2/1 71/1/1
f 64/2/2 63/1/2 61/3/2 59/4/2
f 65/5/2 64/2/2 59/4/2 60/6/2
f 66/7/2 65/5/2 60/6/2 62/8/2
f 63/1/2 66/7/2 62/8/2 61/3/2
f 68/9/2 69/10/2 70/11/2 67/12/2
f 66/7/1 63/1/1 71/1/1 74/7/1
f 64/2/1 65/5/1 73/5/1 72/2/1
f 65/5/1 66/7/1 74/7/1 73/5/1
f 75/13/3 80/14/3 71/1/3 72/2/3
f 81/15/4 75/13/4 72/2/4 73/5/4
f 84/16/5 81/15/5 73/5/5 74/7/5
f 80/14/6 84/16/6 74/7/6 71/1/6
f 67/12/4 70/11/4 86/17/4 78/18/4
f 78/18/6 86/17/6 85/19/6 79/20/6
f 79/20/4 85/19/4 84/16/4 80/14/4
f 70/11/3 69/10/3 83/21/3 86/17/3
f 86/17/5 83/21/5 82/22/5 85/19/5
f 85/19/3 82/22/3 81/15/3 84/16/3
f 69/10/6 68/9/6 77/23/6 83/21/6
f 83/21/4 77/23/4 76/24/4 82/22/4
f 82/22/6 76/24/6 75/13/6 81/15/6
f 68/9/5 67/12/5 78/18/5 77/23/5
f 77/23/3 78/18/3 79/20/3 76/24/3
f 76/24/5 79/20/5 80/14/5 75/13/5
f 87/1/1 95/1/1 96/2/1 88/2/1
f 88/2/7 92/4/7 91/3/7 87/1/7
f 89/5/7 93/6/7 92/4/7 88/2/7
f 90/7/7 94/8/7 93/6/7 89/5/7
f 87/1/7 91/3/7 94/8/7 90/7/7
f 100/9/7 99/12/7 102/11/7 101/10/7
f 90/7/1 98/7/1 95/1/1 87/1/1
f 88/2/1 96/2/1 97/5/1 89/5/1
f 89/5/1 97/5/1 98/7/1 90/7/1
f 107/13/8 96/2/8 95/1/8 104/14/8
f 111/15/9 97/5/9 96/2/9 107/13/9
f 113/16/10 98/7/10 97/5/10 111/15/10
f 104/14/11 95/1/11 98/7/11 113/16/11
f 99/12/9 109/18/9 106/17/9 102/11/9
f 109/18/11 110/20/11 114/19/11 106/17/11
f 110/20/9 104/14/9 113/16/9 114/19/9
f 102/11/8 106/17/8 105/21/8 101/10/8
f 106/17/10 114/19/10 112/22/10 105/21/10
f 114/19/8 113/16/8 111/15/8 112/22/8
f 101/10/11 105/21/11 103/23/11 100/9/11
f 105/21/9 112/22/9 108/24/9 103/23/9
f 112/22/11 111/15/11 107/13/11 108/24/11
f 100/9/10 103/23/10 109/18/10 99/12/10
f 103/23/8 108/24/8 110/20/8 109/18/8
f 108/24/10 107/13/10 104/14/10 110/20/10
f 60/6/12 93/6/12 94/8/12 62/8/12
f 61/3/1 91/3/1 92/4/1 59/4/1
f 62/8/13 94/8/13 91/3/13 61/3/13
f 59/4/14 92/4/14 93/6/14 60/6/14
f 62/8/1 60/6/1 115/6/1 116/8/1
f 121/1/1 122/2/1 130/2/1 129/1/1
f 122/2/2 121/1/2 119/3/2 117/4/2
f 123/5/2 122/2/2 117/4/2 118/6/2
f 124/7/2 123/5/2 118/6/2 120/8/2
f 121/1/2 124/7/2 120/8/2 119/3/2
f 126/9/2 127/10/2 128/11/2 125/12/2
f 124/7/1 121/1/1 129/1/1 132/7/1
f 122/2/1 123/5/1 131/5/1 130/2/1
f 123/5/1 124/7/1 132/7/1 131/5/1
f 133/13/3 138/14/3 129/1/3 130/2/3
f 139/15/4 133/13/4 130/2/4 131/5/4
f 142/16/5 139/15/5 131/5/5 132/7/5
f 138/14/6 142/16/6 132/7/6 129/1/6
f 125/12/4 128/11/4 144/17/4 136/18/4
f 136/18/6 144/17/6 143/19/6 137/20/6
f 137/20/4 143/19/4 142/16/4 138/14/4
f 128/11/3 127/10/3 141/21/3 144/17/3
f 144/17/5 141/21/5 140/22/5 143/19/5
f 143/19/3 140/22/3 139/15/3 142/16/3
f 127/10/6 126/9/6 135/23/6 141/21/6
f 141/21/4 135/23/4 134/24/4 140/22/4
f 140/22/6 134/24/6 133/13/6 139/15/6
f 126/9/5 125/12/5 136/18/5 135/23/5
f 135/23/3 136/18/3 137/20/3 134/24/3
f 134/24/5 137/20/5 138/14/5 133/13/5
f 145/1/1 153/1/1 154/2/1 146/2/1
f 146/2/7 150/4/7 149/3/7 145/1/7
f 147/5/7 151/6/7 150/4/7 146/2/7
f 148/7/7 152/8/7 151/6/7 147/5/7
f 145/1/7 149/3/7 152/8/7 148/7/7
f 158/9/7 157/12/7 160/11/7 159/10/7
f 148/7/1 156/7/1 153/1/1 145/1/1
f 146/2/1 154/2/1 155/5/1 147/5/1
f 147/5/1 155/5/1 156/7/1 148/7/1
f 165/13/8 154/2/8 153/1/8 162/14/8
f 169/15/9 155/5/9 154/2/9 165/13/9
f 171/16/10 156/7/10 155/5/10 169/15/10
f 162/14/11 153/1/11 156/7/11 171/16/11
f 157/12/9 167/18/9 164/17/9 160/11/9
f 167/18/11 168/20/11 172/19/11 164/17/11
f 168/20/9 162/14/9 171/16/9 172/19/9
f 160/11/8 164/17/8 163/21/8 159/10/8
f 164/17/10 172/19/10 170/22/10 163/21/10
f 172/19/8 171/16/8 169/15/8 170/22/8
f 159/10/11 163/21/11 161/23/11 158/9/11
f 163/21/9 170/22/9 166/24/9 161/23/9
f 170/22/11 169/15/11 165/13/11 166/24/11
f 158/9/10 161/23/10 167/18/10 157/12/10
f 161/23/8 166/24/8 168/20/8 167/18/8
f 166/24/10 165/13/10 162/14/10 168/20/10
f 118/6/12 151/6/12 152/8/12 120/8/12
f 119/3/1 149/3/1 150/4/1 117/4/1
f 120/8/13 152/8/13 149/3/13 119/3/13
f 117/4/14 150/4/14 151/6/14 118/6/14
f 120/8/1 118/6/1 173/6/1 174/8/1
f 179/1/1 180/2/1 188/2/1 187/1/1
f 180/2/2 179/1/2 177/3/2 175/4/2
f 181/5/2 180/2/2 175/4/2 176/6/2
f 182/7/2 181/5/2 176/6/2 178/8/2
f 179/1/2 182/7/2 178/8/2 177/3/2
f 184/9/2 185/10/2 186/11/2 183/12/2
f 182/7/1 179/1/1 187/1/1 190/7/1
f 180/2/1 181/5/1 189/5/1 188/2/1
f 181/5/1 182/7/1 190/7/1 189/5/1
f 191/13/3 196/14/3 187/1/3 188/2/3
f 197/15/4 191/13/4 188/2/4 189/5/4
f 200/16/5 197/15/5 189/5/5 190/7/5
f 196/14/6 200/16/6 190/7/6 187/1/6
f 183/12/4 186/11/4 202/17/4 194/18/4
f 194/18/6 202/17/6 201/19/6 195/20/6
f 195/20/15 201/19/15 200/16/15 196/14/15
f 186/11/3 185/10/3 199/21/3 202/17/3
f 202/17/5 199/21/5 198/22/5 201/19/5
f 201/19/3 198/22/3 197/15/3 200/16/3
f 185/10/6 184/9/6 193/23/6 199/21/6
f 199/21/4 193/23/4 192/24/4 198/22/4
f 198/22/6 192/24/6 191/13/6 197/15/6
f 184/9/5 183/12/5 194/18/5 193/23/5
f 193/23/3 194/18/3 195/20/3 192/24/3
f 192/24/5 195/20/5 196/14/5 191/13/5
f 203/1/1 211/1/1 212/2/1 204/2/1
f 204/2/7 208/4/7 207/3/7 203/1/7
f 205/5/7 209/6/7 208/4/7 204/2/7
f 206/7/7 210/8/7 209/6/7 205/5/7
f 203/1/7 207/3/7 210/8/7 206/7/7
f 216/9/7 215/12/7 218/11/7 217/10/7
f 206/7/1 214/7/1 211/1/1 203/1/1
f 204/2/1 212/2/1 213/5/1 205/5/1
f 205/5/1 213/5/1 214/7/1 206/7/1
f 223/13/8 212/2/8 211/1/8 220/14/8
f 227/15/9 213/5/9 212/2/9 223/13/9
f 229/16/10 214/7/10 213/5/10 227/15/10
f 220/14/11 211/1/11 214/7/11 229/16/11
f 215/12/9 225/18/9 222/17/9 218/11/9
f 225/18/11 226/20/11 230/19/11 222/17/11
f 226/20/16 220/14/16 229/16/16 230/19/16
f 218/11/8 222/17/8 221/21/8 217/10/8
f 222/17/10 230/19/10 228/22/10 221/21/10
f 230/19/8 229/16/8 227/15/8 228/22/8
f 217/10/11 221/21/11 219/23/11 216/9/11
f 221/21/9 228/22/9 224/24/9 219/23/9
f 228/22/11 227/15/11 223/13/11 224/24/11
f 216/9/10 219/23/10 225/18/10 215/12/10
f 219/23/8 224/24/8 226/20/8 225/18/8
f 224/24/10 223/13/10 220/14/10 226/20/10
f 176/6/12 209/6/12 210/8/12 178/8/12
f 177/3/1 207/3/1 208/4/1 175/4/1
f 178/8/13 210/8/13 207/3/13 177/3/13
f 175/4/14 208/4/14 209/6/14 176/6/14
f 178/8/1 176/6/1 231/6/1 232/8/1
f 237/1/1 238/2/1 246/2/1 245/1/1
f 238/2/2 237/1/2 235/3/2 233/4/2
f 239/5/2 238/2/2 233/4/2 234/6/2
f 240/7/2 239/5/2 234/6/2 236/8/2
f 237/1/2 240/7/2 236/8/2 235/3/2
f 242/9/2 243/10/2 244/11/2 241/12/2
f 240/7/1 237/1/1 245/1/1 248/7/1
f 238/2/1 239/5/1 247/5/1 246/2/1
f 239/5/1 240/7/1 248/7/1 247/5/1
f 249/13/3 254/14/3 245/1/3 246/2/3
f 255/15/4 249/13/4 246/2/4 247/5/4
f 258/16/5 255/15/5 247/5/5 248/7/5
f 254/14/6 258/16/6 248/7/6 245/1/6
f 241/12/15 244/11/15 260/17/15 252/18/15
f 252/18/6 260/17/6 259/19/6 253/20/6
f 253/20/4 259/19/4 258/16/4 254/14/4
f 244/11/3 243/10/3 257/21/3 260/17/3
f 260/17/5 257/21/5 256/22/5 259/19/5
f 259/19/3 256/22/3 255/15/3 258/16/3
f 243/10/6 242/9/6 251/23/6 257/21/6
f 257/21/4 251/23/4 250/24/4 256/22/4
f 256/22/17 250/24/17 249/13/17 255/15/17
f 242/9/5 241/12/5 252/18/5 251/23/5
f 251/23/3 252/18/3 253/20/3 250/24/3
f 250/24/5 253/20/5 254/14/5 249/13/5
f 261/1/1 269/1/1 270/2/1 262/2/1
f 262/2/7 266/4/7 265/3/7 261/1/7
f 263/5/7 267/6/7 266/4/7 262/2/7
f 264/7/7 268/8/7 267/6/7 263/5/7
f 261/1/7 265/3/7 268/8/7 264/7/7
f 274/9/7 273/12/7 276/11/7 275/10/7
f 264/7/1 272/7/1 269/1/1 261/1/1
f 262/2/1 270/2/1 271/5/1 263/5/1
f 263/5/1 271/5/1 272/7/1 264/7/1
f 281/13/8 270/2/8 269/1/8 278/14/8
f 285/15/9 271/5/9 270/2/9 281/13/9
f 287/16/10 272/7/10 271/5/10 285/15/10
f 278/14/11 269/1/11 272/7/11 287/16/11
f 273/12/16 283/18/16 280/17/16 276/11/16
f 283/18/11 284/20/11 288/19/11 280/17/11
f 284/20/9 278/14/9 287/16/9 288/19/9
f 276/11/8 280/17/8 279/21/8 275/10/8
f 280/17/10 288/19/10 286/22/10 279/21/10
f 288/19/8 287/16/8 285/15/8 286/22/8
f 275/10/11 279/21/11 277/23/11 274/9/11
f 279/21/9 286/22/9 282/24/9 277/23/9
f 286/22/18 285/15/18 281/13/18 282/24/18
f 274/9/10 277/23/10 283/18/10 273/12/10
f 277/23/8 282/24/8 284/20/8 283/18/8
f 282/24/10 281/13/10 278/14/10 284/20/10
f 234/6/12 267/6/12 268/8/12 236/8/12
f 235/3/1 265/3/1 266/4/1 233/4/1
f 236/8/13 268/8/13 265/3/13 235/3/13
f 233/4/14 266/4/14 267/6/14 234/6/14
f 236/8/1 234/6/1 289/6/1 290/8/1
f 295/1/1 296/2/1 304/2/1 303/1/1
f 296/2/14 295/1/14 293/3/14 291/4/14
f 297/5/14 296/2/14 291/4/14 292/6/14
f 298/7/14 297/5/14 292/6/14 294/8/14
f 295/1/14 298/7/14 294/8/14 293/3/14
f 300/9/14 301/10/14 302/11/14 299/12/14
f 298/7/1 295/1/1 303/1/1 306/7/1
f 296/2/1 297/5/1 305/5/1 304/2/1
f 297/5/1 298/7/1 306/7/1 305/5/1
f 307/13/19 312/14/19 303/1/19 304/2/19
f 313/15/20 307/13/20 304/2/20 305/5/20
f 316/16/21 313/15/21 305/5/21 306/7/21
f 312/14/22 316/16/22 306/7/22 303/1/22
f 299/12/20 302/11/20 318/17/20 310/18/20
f 310/18/22 318/17/22 317/19/22 311/20/22
f 311/20/20 317/19/20 316/16/20 312/14/20
f 302/11/19 301/10/19 315/21/19 318/17/19
f 318/17/21 315/21/21 314/22/21 317/19/21
f 317/19/19 314/22/19 313/15/19 316/16/19
f 301/10/22 300/9/22 309/23/22 315/21/22
f 315/21/20 309/23/20 308/24/20 314/22/20
f 314/22/22 308/24/22 307/13/22 313/15/22
f 300/9/21 299/12/21 310/18/21 309/23/21
f 309/23/19 310/18/19 311/20/19 308/24/19
f 308/24/21 311/20/21 312/14/21 307/13/21
f 319/1/1 327/1/1 328/2/1 320/2/1
f 320/2/13 324/4/13 323/3/13 319/1/13
f 321/5/13 325/6/13 324/4/13 320/2/13
f 322/7/13 326/8/13 325/6/13 321/5/13
f 319/1/13 323/3/13 326/8/13 322/7/13
f 332/9/13 331/12/13 334/11/13 333/10/13
f 322/7/1 330/7/1 327/1/1 319/1/1
f 320/2/1 328/2/1 329/5/1 321/5/1
f 321/5/1 329/5/1 330/7/1 322/7/1
f 339/13/23 328/2/23 327/1/23 336/14/23
f 343/15/24 329/5/24 328/2/24 339/13/24
f 345/16/25 330/7/25 329/5/25 343/15/25
f 336/14/26 327/1/26 330/7/26 345/16/26
f 331/12/24 341/18/24 338/17/24 334/11/24
f 341/18/26 342/20/26 346/19/26 338/17/26
f 342/20/24 336/14/24 345/16/24 346/19/24
f 334/11/23 338/17/23 337/21/23 333/10/23
f 338/17/25 346/19/25 344/22/25 337/21/25
f 346/19/23 345/16/23 343/15/23 344/22/23
f 333/10/26 337/21/26 335/23/26 332/9/26
f 337/21/24 344/22/24 340/24/24 335/23/24
f 344/22/26 343/15/26 339/13/26 340/24/26
f 332/9/25 335/23/25 341/18/25 331/12/25
f 335/23/23 340/24/23 342/20/23 341/18/23
f 340/24/25 339/13/25 336/14/25 342/20/25
f 292/6/12 325/6/12 326/8/12 294/8/12
f 293/3/1 323/3/1 324/4/1 291/4/1
f 294/8/2 326/8/2 323/3/2 293/3/2
f 291/4/7 324/4/7 325/6/7 292/6/7
f 351/1/1 352/2/1 360/2/1 359/1/1
f 352/2/14 351/1/14 349/3/14 347/4/14
f 353/5/14 352/2/14 347/4/14 348/6/14
f 354/7/14 353/5/14 348/6/14 350/8/14
f 351/1/14 354/7/14 350/8/14 349/3/14
f 356/9/14 357/10/14 358/11/14 355/12/14
f 354/7/1 351/1/1 359/1/1 362/7/1
f 352/2/1 353/5/1 361/5/1 360/2/1
f 353/5/1 354/7/1 362/7/1 361/5/1
f 363/13/19 368/14/19 359/1/19 360/2/19
f 369/15/20 363/13/20 360/2/20 361/5/20
f 372/16/21 369/15/21 361/5/21 362/7/21
f 368/14/22 372/16/22 362/7/22 359/1/22
f 355/12/20 358/11/20 374/17/20 366/18/20
f 366/18/22 374/17/22 373/19/22 367/20/22
f 367/20/20 373/19/20 372/16/20 368/14/20
f 358/11/19 357/10/19 371/21/19 374/17/19
f 374/17/21 371/21/21 370/22/21 373/19/21
f 373/19/19 370/22/19 369/15/19 372/16/19
f 357/10/22 356/9/22 365/23/22 371/21/22
f 371/21/20 365/23/20 364/24/20 370/22/20
f 370/22/22 364/24/22 363/13/22 369/15/22
f 356/9/21 355/12/21 366/18/21 365/23/21
f 365/23/19 366/18/19 367/20/19 364/24/19
f 364/24/21 367/20/21 368/14/21 363/13/21
f 375/1/1 383/1/1 384/2/1 376/2/1
f 376/2/13 380/4/13 379/3/13 375/1/13
f 377/5/13 381/6/13 380/4/13 376/2/13
f 378/7/13 382/8/13 381/6/13 377/5/13
f 375/1/13 379/3/13 382/8/13 378/7/13
f 388/9/13 387/12/13 390/11/13 389/10/13
f 378/7/1 386/7/1 383/1/1 375/1/1
f 376/2/1 384/2/1 385/5/1 377/5/1
f 377/5/1 385/5/1 386/7/1 378/7/1
f 395/13/23 384/2/23 383/1/23 392/14/23
f 399/15/24 385/5/24 384/2/24 395/13/24
f 401/16/25 386/7/25 385/5/25 399/15/25
f 392/14/26 383/1/26 386/7/26 401/16/26
f 387/12/24 397/18/24 394/17/24 390/11/24
f 397/18/26 398/20/26 402/19/26 394/17/26
f 398/20/24 392/14/24 401/16/24 402/19/24
f 390/11/23 394/17/23 393/21/23 389/10/23
f 394/17/25 402/19/25 400/22/25 393/21/25
f 402/19/23 401/16/23 399/15/23 400/22/23
f 389/10/26 393/21/26 391/23/26 388/9/26
f 393/21/24 400/22/24 396/24/24 391/23/24
f 400/22/26 399/15/26 395/13/26 396/24/26
f 388/9/25 391/23/25 397/18/25 387/12/25
f 391/23/23 396/24/23 398/20/23 397/18/23
f 396/24/25 395/13/25 392/14/25 398/20/25
f 348/6/12 381/6/12 382/8/12 350/8/12
f 349/3/1 379/3/1 380/4/1 347/4/1
f 350/8/2 382/8/2 379/3/2 349/3/2
f 347/4/7 380/4/7 381/6/7 348/6/7
f 407/1/1 408/2/1 416/2/1 415/1/1
f 408/2/14 407/1/14 405/3/14 403/4/14
f 409/5/14 408/2/14 403/4/14 404/6/14
f 410/7/14 409/5/14 404/6/14 406/8/14
f 407/1/14 410/7/14 406/8/14 405/3/14
f 412/9/14 413/10/14 414/11/14 411/12/14
f 410/7/1 407/1/1 415/1/1 418/7/1
f 408/2/1 409/5/1 417/5/1 416/2/1
f 409/5/1 410/7/1 418/7/1 417/5/1
f 419/13/19 424/14/19 415/1/19 416/2/19
f 425/15/20 419/13/20 416/2/20 417/5/20
f 428/16/21 425/15/21 417/5/21 418/7/21
f 424/14/22 428/16/22 418/7/22 415/1/22
f 411/12/20 414/11/20 430/17/20 422/18/20
f 422/18/22 430/17/22 429/19/22 423/20/22
f 423/20/20 429/19/20 428/16/20 424/14/20
f 414/11/19 413/10/19 427/21/19 430/17/19
f 430/17/21 427/21/21 426/22/21 429/19/21
f 429/19/19 426/22/19 425/15/19 428/16/19
f 413/10/22 412/9/22 421/23/22 427/21/22
f 427/21/20 421/23/20 420/24/20 426/22/20
f 426/22/22 420/24/22 419/13/22 425/15/22
f 412/9/21 411/12/21 422/18/21 421/23/21
f 421/23/19 422/18/19 423/20/19 420/24/19
f 420/24/21 423/20/21 424/14/21 419/13/21
f 431/1/1 439/1/1 440/2/1 432/2/1
f 432/2/13 436/4/13 435/3/13 431/1/13
f 433/5/13 437/6/13 436/4/13 432/2/13
f 434/7/13 438/8/13 437/6/13 433/5/13
f 431/1/13 435/3/13 438/8/13 434/7/13
f 444/9/13 443/12/13 446/11/13 445/10/13
f 434/7/1 442/7/1 439/1/1 431/1/1
f 432/2/1 440/2/1 441/5/1 433/5/1
f 433/5/1 441/5/1 442/7/1 434/7/1
f 451/13/23 440/2/23 439/1/23 448/14/23
f 455/15/24 441/5/24 440/2/24 451/13/24
f 457/16/25 442/7/25 441/5/25 455/15/25
f 448/14/26 439/1/26 442/7/26 457/16/26
f 443/12/24 453/18/24 450/17/24 446/11/24
f 453/18/26 454/20/26 458/19/26 450/17/26
f 454/20/24 448/14/24 457/16/24 458/19/24
f 446/11/23 450/17/23 449/21/23 445/10/23
f 450/17/25 458/19/25 456/22/25 449/21/25
f 458/19/23 457/16/23 455/15/23 456/22/23
f 445/10/26 449/21/26 447/23/26 444/9/26
f 449/21/24 456/22/24 452/24/24 447/23/24
f 456/22/26 455/15/26 451/13/26 452/24/26
f 444/9/25 447/23/25 453/18/25 443/12/25
f 447/23/23 452/24/23 454/20/23 453/18/23
f 452/24/25 451/13/25 448/14/25 454/20/25
f 404/6/12 437/6/12 438/8/12 406/8/12
f 405/3/1 435/3/1 436/4/1 403/4/1
f 406/8/2 438/8/2 435/3/2 405/3/2
f 403/4/7 436/4/7 437/6/7 404/6/7
f 463/1/1 464/2/1 472/2/1 471/1/1
f 464/2/14 463/1/14 461/3/14 459/4/14
f 465/5/14 464/2/14 459/4/14 460/6/14
f 466/7/14 465/5/14 460/6/14 462/8/14
f 463/1/14 466/7/14 462/8/14 461/3/14
f 468/9/14 469/10/14 470/11/14 467/12/14
f 466/7/1 463/1/1 471/1/1 474/7/1
f 464/2/1 465/5/1 473/5/1 472/2/1
f 465/5/1 466/7/1 474/7/1 473/5/1
f 475/13/19 480/14/19 471/1/19 472/2/19
f 481/15/20 475/13/20 472/2/20 473/5/20
f 484/16/21 481/15/21 473/5/21 474/7/21
f 480/14/22 484/16/22 474/7/22 471/1/22
f 467/12/20 470/11/20 486/17/20 478/18/20
f 478/18/22 486/17/22 485/19/22 479/20/22
f 479/20/20 485/19/20 484/16/20 480/14/20
f 470/11/19 469/10/19 483/21/19 486/17/19
f 486/17/21 483/21/21 482/22/21 485/19/21
f 485/19/19 482/22/19 481/15/19 484/16/19
f 469/10/27 468/9/27 477/23/27 483/21/27
f 483/21/20 477/23/20 476/24/20 482/22/20
f 482/22/22 476/24/22 475/13/22 481/15/22
f 468/9/21 467/12/21 478/18/21 477/23/21
f 477/23/19 478/18/19 479/20/19 476/24/19
f 476/24/21 479/20/21 480/14/21 475/13/21
f 487/1/1 495/1/1 496/2/1 488/2/1
f 488/2/13 492/4/13 491/3/13 487/1/13
f 489/5/13 493/6/13 492/4/13 488/2/13
f 490/7/13 494/8/13 493/6/13 489/5/13
f 487/1/13 491/3/13 494/8/13 490/7/13
f 500/9/13 499/12/13 502/11/13 501/10/13
f 490/7/1 498/7/1 495/1/1 487/1/1
f 488/2/1 496/2/1 497/5/1 489/5/1
f 489/5/1 497/5/1 498/7/1 490/7/1
f 507/13/23 496/2/23 495/1/23 504/14/23
f 511/15/24 497/5/24 496/2/24 507/13/24
f 513/16/25 498/7/25 497/5/25 511/15/25
f 504/14/26 495/1/26 498/7/26 513/16/26
f 499/12/24 509/18/24 506/17/24 502/11/24
f 509/18/26 510/20/26 514/19/26 506/17/26
f 510/20/24 504/14/24 513/16/24 514/19/24
f 502/11/23 506/17/23 505/21/23 501/10/23
f 506/17/25 514/19/25 512/22/25 505/21/25
f 514/19/23 513/16/23 511/15/23 512/22/23
f 501/10/26 505/21/26 503/23/26 500/9/26
f 505/21/24 512/22/24 508/24/24 503/23/24
f 512/22/26 511/15/26 507/13/26 508/24/26
f 500/9/25 503/23/25 509/18/25 499/12/25
f 503/23/23 508/24/23 510/20/23 509/18/23
f 508/24/25 507/13/25 504/14/25 510/20/25
f 460/6/12 493/6/12 494/8/12 462/8/12
f 461/3/1 491/3/1 492/4/1 459/4/1
f 462/8/2 494/8/2 491/3/2 461/3/2
f 459/4/7 492/4/7 493/6/7 460/6/7
f 519/1/1 520/2/1 528/2/1 527/1/1
f 520/2/14 519/1/14 517/3/14 515/4/14
f 521/5/14 520/2/14 515/4/14 516/6/14
f 522/7/14 521/5/14 516/6/14 518/8/14
f 519/1/14 522/7/14 518/8/14 517/3/14
f 524/9/14 525/10/14 526/11/14 523/12/14
f 522/7/1 519/1/1 527/1/1 530/7/1
f 520/2/1 521/5/1 529/5/1 528/2/1
f 521/5/1 522/7/1 530/7/1 529/5/1
f 531/13/19 536/14/19 527/1/19 528/2/19
f 537/15/20 531/13/20 528/2/20 529/5/20
f 540/16/21 537/15/21 529/5/21 530/7/21
f 536/14/22 540/16/22 530/7/22 527/1/22
f 523/12/28 526/11/28 542/17/28 534/18/28
f 534/18/22 542/17/22 541/19/22 535/20/22
f 535/20/20 541/19/20 540/16/20 536/14/20
f 526/11/19 525/10/19 539/21/19 542/17/19
f 542/17/21 539/21/21 538/22/21 541/19/21
f 541/19/19 538/22/19 537/15/19 540/16/19
f 525/10/22 524/9/22 533/23/22 539/21/22
f 539/21/20 533/23/20 532/24/20 538/22/20
f 538/22/22 532/24/22 531/13/22 537/15/22
f 524/9/21 523/12/21 534/18/21 533/23/21
f 533/23/19 534/18/19 535/20/19 532/24/19
f 532/24/21 535/20/21 536/14/21 531/13/21
f 543/1/1 551/1/1 552/2/1 544/2/1
f 544/2/13 548/4/13 547/3/13 543/1/13
f 545/5/13 549/6/13 548/4/13 544/2/13
f 546/7/13 550/8/13 549/6/13 545/5/13
f 543/1/13 547/3/13 550/8/13 546/7/13
f 556/9/13 555/12/13 558/11/13 557/10/13
f 546/7/1 554/7/1 551/1/1 543/1/1
f 544/2/1 552/2/1 553/5/1 545/5/1
f 545/5/1 553/5/1 554/7/1 546/7/1
f 563/13/23 552/2/23 551/1/23 560/14/23
f 567/15/24 553/5/24 552/2/24 563/13/24
f 569/16/25 554/7/25 553/5/25 567/15/25
f 560/14/26 551/1/26 554/7/26 569/16/26
f 555/12/24 565/18/24 562/17/24 558/11/24
f 565/18/26 566/20/26 570/19/26 562/17/26
f 566/20/24 560/14/24 569/16/24 570/19/24
f 558/11/23 562/17/23 561/21/23 557/10/23
f 562/17/25 570/19/25 568/22/25 561/21/25
f 570/19/23 569/16/23 567/15/23 568/22/23
f 557/10/26 561/21/26 559/23/26 556/9/26
f 561/21/24 568/22/24 564/24/24 559/23/24
f 568/22/26 567/15/26 563/13/26 564/24/26
f 556/9/25 559/23/25 565/18/25 555/12/25
f 559/23/23 564/24/23 566/20/23 565/18/23
f 564/24/25 563/13/25 560/14/25 566/20/25
f 516/6/12 549/6/12 550/8/12 518/8/12
f 517/3/1 547/3/1 548/4/1 515/4/1
f 518/8/2 550/8/2 547/3/2 517/3/2
f 515/4/7 548/4/7 549/6/7 516/6/7
s 1
f 584/8/29 612/8/30 607/8/31 574/8/32
f 576/4/12 575/3/12 578/8/12 577/6/12
f 573/3/33 608/3/34 613/3/35 579/3/36
f 588/4/37 576/4/38 577/6/38 587/6/39
f 587/6/40 577/6/41 578/8/41 582/8/42
f 579/3/43 601/3/44 595/3/45 573/3/46
f 589/4/47 604/4/48 603/4/39 588/4/37
f 575/3/49 597/3/49 599/3/50 581/3/51
f 592/4/52 606/4/52 596/4/53 571/4/54
f 572/6/31 585/6/30 584/8/29 574/8/32
f 585/6/30 586/6/55 583/8/56 584/8/29
f 586/6/55 587/6/40 582/8/42 583/8/56
f 571/4/54 590/4/57 585/6/58 572/6/53
f 590/4/57 589/4/47 586/6/48 585/6/58
f 589/4/47 588/4/37 587/6/39 586/6/48
f 594/8/1 617/8/1 618/3/1 591/3/1
f 578/8/41 609/8/41 615/8/40 582/8/42
f 581/3/59 611/3/60 610/3/61 575/3/61
f 592/4/1 593/6/1 594/8/1 591/3/1
f 572/6/53 593/6/52 592/4/52 571/4/54
f 574/8/32 594/8/62 593/6/62 572/6/31
f 571/4/54 596/4/53 600/4/58 590/4/57
f 599/3/60 597/3/63 598/4/63 603/4/60
f 595/3/34 601/3/35 600/4/35 596/4/34
f 601/3/35 602/3/64 604/4/64 600/4/35
f 602/3/64 599/3/60 603/4/60 604/4/64
f 596/4/34 606/4/65 605/3/65 595/3/34
f 591/3/1 605/3/1 606/4/1 592/4/1
f 590/4/57 600/4/58 604/4/48 589/4/47
f 580/3/66 602/3/67 601/3/44 579/3/43
f 573/3/46 595/3/45 605/3/68 591/3/68
f 581/3/51 599/3/50 602/3/67 580/3/66
f 576/4/12 598/4/12 597/3/12 575/3/12
f 588/4/37 603/4/39 598/4/38 576/4/38
f 608/3/45 618/3/68 617/8/68 607/8/45
f 615/8/50 609/8/69 610/3/69 611/3/50
f 607/8/45 612/8/44 613/3/44 608/3/45
f 612/8/44 616/8/67 614/3/67 613/3/44
f 616/8/67 615/8/50 611/3/50 614/3/67
f 582/8/42 615/8/40 616/8/55 583/8/56
f 574/8/32 607/8/31 617/8/62 594/8/62
f 579/3/36 613/3/35 614/3/64 580/3/70
f 583/8/56 616/8/55 612/8/30 584/8/29
f 591/3/65 618/3/65 608/3/34 573/3/33
f 575/3/12 610/3/12 609/8/12 578/8/12
f 580/3/70 614/3/64 611/3/60 581/3/59
s 0
f 659/4/71 620/4/71 621/4/71 658/4/71
f 660/4/72 666/4/72 664/4/72 665/4/72 627/4/72 619/4/72 661/4/72 662/4/72 663/4/72
f 668/4/73 623/4/73 627/4/73 665/4/73 667/4/73
f 669/4/74 622/4/74 623/4/74 668/4/74
f 658/4/75 621/4/75 622/4/75 669/4/75
f 661/4/1 619/4/1 624/4/1 672/4/1 657/4/1 656/4/1
f 660/4/1 663/4/1 673/4/1 671/4/1
f 661/4/1 656/4/1 655/4/1 662/4/1
f 656/4/1 657/4/1 654/4/1 671/4/1 673/4/1 663/4/1 662/4/1 655/4/1 674/4/1
f 655/4/1 656/4/1 674/4/1
f 654/4/1 657/4/1 672/4/1 670/4/1
f 628/4/71 621/4/71 620/4/71 626/4/71
f 625/4/72 619/4/72 627/4/72 634/4/72
f 634/4/73 627/4/73 623/4/73 630/4/73
f 630/4/74 623/4/74 622/4/74 629/4/74
f 629/4/75 622/4/75 621/4/75 628/4/75
f 619/4/1 625/4/1 631/4/1 624/4/1
f 635/4/71 628/4/71 626/4/71 633/4/71
f 632/4/72 625/4/72 634/4/72 642/4/72
f 642/4/73 634/4/73 630/4/73 637/4/73
f 637/4/74 630/4/74 629/4/74 636/4/74
f 636/4/75 629/4/75 628/4/75 635/4/75
f 625/4/1 632/4/1 638/4/1 631/4/1
f 643/4/71 635/4/71 633/4/71 640/4/71
f 639/4/72 632/4/72 642/4/72 641/4/72
f 641/4/73 642/4/73 637/4/73 645/4/73
f 645/4/74 637/4/74 636/4/74 644/4/74
f 644/4/75 636/4/75 635/4/75 643/4/75
f 632/4/1 639/4/1 646/4/1 638/4/1
f 650/4/71 643/4/71 640/4/71 648/4/71
f 647/4/72 639/4/72 641/4/72 649/4/72
f 649/4/73 641/4/73 645/4/73 652/4/73
f 652/4/74 645/4/74 644/4/74 651/4/74
f 651/4/75 644/4/75 643/4/75 650/4/75
f 639/4/1 647/4/1 653/4/1 646/4/1
f 676/4/76 675/4/76 678/4/76 677/4/76
f 679/4/77 680/4/77 687/4/77 686/4/77 685/4/77 684/4/77 683/4/77 682/4/77 681/4/77
f 689/4/78 688/4/78 683/4/78 684/4/78 690/4/78
f 691/4/79 689/4/79 690/4/79 692/4/79
f 675/4/80 691/4/80 692/4/80 678/4/80
f 686/4/12 693/4/12 696/4/12 695/4/12 694/4/12 685/4/12
f 679/4/12 699/4/12 700/4/12 680/4/12
f 686/4/12 687/4/12 701/4/12 693/4/12
f 693/4/12 702/4/12 701/4/12 687/4/12 680/4/12 700/4/12 699/4/12 697/4/12 696/4/12
f 701/4/12 702/4/12 693/4/12
f 697/4/12 698/4/12 695/4/12 696/4/12
f 704/4/76 703/4/76 677/4/76 678/4/76
f 705/4/77 706/4/77 684/4/77 685/4/77
f 706/4/78 707/4/78 690/4/78 684/4/78
f 707/4/79 708/4/79 692/4/79 690/4/79
f 708/4/80 704/4/80 678/4/80 692/4/80
f 685/4/12 694/4/12 709/4/12 705/4/12
f 711/4/76 710/4/76 703/4/76 704/4/76
f 712/4/77 713/4/77 706/4/77 705/4/77
f 713/4/78 714/4/78 707/4/78 706/4/78
f 714/4/79 715/4/79 708/4/79 707/4/79
f 715/4/80 711/4/80 704/4/80 708/4/80
f 705/4/12 709/4/12 716/4/12 712/4/12
f 718/4/76 717/4/76 710/4/76 711/4/76
f 719/4/77 720/4/77 713/4/77 712/4/77
f 720/4/78 721/4/78 714/4/78 713/4/78
f 721/4/79 722/4/79 715/4/79 714/4/79
f 722/4/80 718/4/80 711/4/80 715/4/80
f 712/4/12 716/4/12 723/4/12 719/4/12
f 725/4/76 724/4/76 717/4/76 718/4/76
f 726/4/77 727/4/77 720/4/77 719/4/77
f 727/4/78 728/4/78 721/4/78 720/4/78
f 728/4/79 729/4/79 722/4/79 721/4/79
f 729/4/80 725/4/80 718/4/80 722/4/80
f 719/4/12 723/4/12 730/4/12 726/4/12
f 659/4/12 676/4/12 677/4/12 620/4/12
f 671/4/1 699/4/1 679/4/1 660/4/1
f 654/4/1 697/4/1 699/4/1 671/4/1
f 652/4/13 728/4/13 727/4/13 649/4/13
f 665/4/14 683/4/14 688/4/14 667/4/14
f 668/4/81 689/4/81 691/4/81 669/4/81
f 651/4/13 729/4/13 728/4/13 652/4/13
f 660/4/82 679/4/82 681/4/82 666/4/82
f 666/4/14 681/4/14 682/4/14 664/4/14
f 650/4/13 725/4/13 729/4/13 651/4/13
f 669/4/83 691/4/83 675/4/83 658/4/83
f 664/4/14 682/4/14 683/4/14 665/4/14
f 647/4/1 726/4/1 730/4/1 653/4/1
f 653/4/1 730/4/1 723/4/1 646/4/1
f 646/4/1 723/4/1 716/4/1 638/4/1
f 638/4/1 716/4/1 709/4/1 631/4/1
f 631/4/1 709/4/1 694/4/1 624/4/1
f 648/4/13 724/4/13 725/4/13 650/4/13
f 672/4/1 695/4/1 698/4/1 670/4/1
f 624/4/1 694/4/1 695/4/1 672/4/1
f 640/4/12 717/4/12 724/4/12 648/4/12
f 633/4/12 710/4/12 717/4/12 640/4/12
f 626/4/12 703/4/12 710/4/12 633/4/12
f 667/4/84 688/4/84 689/4/84 668/4/84
f 649/4/13 727/4/13 726/4/13 647/4/13
f 620/4/12 677/4/12 703/4/12 626/4/12
f 658/4/85 675/4/85 676/4/85 659/4/85
f 670/4/1 698/4/1 697/4/1 654/4/1
f 739/4/85 738/4/85 733/4/85 734/4/85
f 732/4/82 731/4/82 735/4/82 746/4/82
f 746/4/84 735/4/84 736/4/84 741/4/84
f 741/4/81 736/4/81 737/4/81 740/4/81
f 740/4/83 737/4/83 738/4/83 739/4/83
f 731/4/1 732/4/1 743/4/1 742/4/1
f 747/4/85 739/4/85 734/4/85 745/4/85
f 744/4/82 732/4/82 746/4/82 753/4/82
f 753/4/84 746/4/84 741/4/84 749/4/84
f 749/4/81 741/4/81 740/4/81 748/4/81
f 748/4/83 740/4/83 739/4/83 747/4/83
f 732/4/1 744/4/1 750/4/1 743/4/1
f 754/4/85 747/4/85 745/4/85 752/4/85
f 751/4/82 744/4/82 753/4/82 761/4/82
f 761/4/84 753/4/84 749/4/84 756/4/84
f 756/4/81 749/4/81 748/4/81 755/4/81
f 755/4/83 748/4/83 747/4/83 754/4/83
f 744/4/1 751/4/1 757/4/1 750/4/1
f 762/4/85 754/4/85 752/4/85 759/4/85
f 758/4/82 751/4/82 761/4/82 760/4/82
f 760/4/84 761/4/84 756/4/84 764/4/84
f 764/4/81 756/4/81 755/4/81 763/4/81
f 763/4/83 755/4/83 754/4/83 762/4/83
f 751/4/1 758/4/1 765/4/1 757/4/1
f 762/4/85 759/4/85 767/4/85 766/4/85
f 769/4/82 768/4/82 758/4/82 760/4/82 770/4/82 771/4/82
f 760/4/84 764/4/84 772/4/84 770/4/84
f 764/4/81 763/4/81 773/4/81 772/4/81
f 763/4/83 762/4/83 766/4/83 773/4/83
f 778/4/1 765/4/1 758/4/1 768/4/1
f 775/4/1 774/4/1 777/4/1 776/4/1
f 777/4/1 778/4/1 768/4/1 769/4/1 775/4/1 776/4/1
f 780/4/86 779/4/86 782/4/86 781/4/86
f 783/4/87 784/4/87 786/4/87 785/4/87
f 784/4/88 787/4/88 788/4/88 786/4/88
f 787/4/89 789/4/89 790/4/89 788/4/89
f 789/4/90 780/4/90 781/4/90 790/4/90
f 785/4/12 791/4/12 792/4/12 783/4/12
f 794/4/86 793/4/86 779/4/86 780/4/86
f 795/4/87 796/4/87 784/4/87 783/4/87
f 796/4/88 797/4/88 787/4/88 784/4/88
f 797/4/89 798/4/89 789/4/89 787/4/89
f 798/4/90 794/4/90 780/4/90 789/4/90
f 783/4/12 792/4/12 799/4/12 795/4/12
f 801/4/86 800/4/86 793/4/86 794/4/86
f 802/4/87 803/4/87 796/4/87 795/4/87
f 803/4/88 804/4/88 797/4/88 796/4/88
f 804/4/89 805/4/89 798/4/89 797/4/89
f 805/4/90 801/4/90 794/4/90 798/4/90
f 795/4/12 799/4/12 806/4/12 802/4/12
f 808/4/86 807/4/86 800/4/86 801/4/86
f 809/4/87 810/4/87 803/4/87 802/4/87
f 810/4/88 811/4/88 804/4/88 803/4/88
f 811/4/89 812/4/89 805/4/89 804/4/89
f 812/4/90 808/4/90 801/4/90 805/4/90
f 802/4/12 806/4/12 813/4/12 809/4/12
f 808/4/86 814/4/86 815/4/86 807/4/86
f 816/4/87 817/4/87 819/4/87 810/4/87 809/4/87 818/4/87
f 810/4/88 819/4/88 820/4/88 811/4/88
f 811/4/89 820/4/89 821/4/89 812/4/89
f 812/4/90 821/4/90 814/4/90 808/4/90
f 822/4/12 818/4/12 809/4/12 813/4/12
f 823/4/12 825/4/12 826/4/12 824/4/12
f 826/4/12 825/4/12 823/4/12 816/4/12 818/4/12 822/4/12
f 771/4/72 817/4/72 816/4/72 769/4/72
f 774/4/1 824/4/1 826/4/1 777/4/1
f 738/4/7 781/4/7 782/4/7 733/4/7
f 773/4/74 821/4/74 820/4/74 772/4/74
f 752/4/12 800/4/12 807/4/12 759/4/12
f 733/4/12 782/4/12 779/4/12 734/4/12
f 743/4/1 792/4/1 791/4/1 742/4/1
f 766/4/75 814/4/75 821/4/75 773/4/75
f 777/4/1 826/4/1 822/4/1 778/4/1
f 745/4/12 793/4/12 800/4/12 752/4/12
f 736/4/7 788/4/7 790/4/7 737/4/7
f 765/4/1 813/4/1 806/4/1 757/4/1
f 778/4/1 822/4/1 813/4/1 765/4/1
f 770/4/1 819/4/1 817/4/1 771/4/1
f 731/4/7 785/4/7 786/4/7 735/4/7
f 734/4/12 779/4/12 793/4/12 745/4/12
f 769/4/1 816/4/1 823/4/1 775/4/1
f 757/4/1 806/4/1 799/4/1 750/4/1
f 759/4/12 807/4/12 815/4/12 767/4/12
f 775/4/7 823/4/7 824/4/7 774/4/7
f 737/4/7 790/4/7 781/4/7 738/4/7
f 772/4/73 820/4/73 819/4/73 770/4/73
f 767/4/91 815/4/91 814/4/91 766/4/91
f 742/4/2 791/4/2 785/4/2 731/4/2
f 750/4/1 799/4/1 792/4/1 743/4/1
f 735/4/7 786/4/7 788/4/7 736/4/7
f 828/25/12 830/26/12 829/27/12 827/28/12
f 839/29/92 840/30/92 841/31/92
f 842/32/93 843/33/93 844/34/93
f 845/35/94 846/36/94 847/37/94
f 848/38/95 849/39/95 850/40/95
f 839/41/1 832/42/1 831/43/1 840/44/1
f 833/45/1 843/46/1 842/47/1 834/43/1
f 837/48/1 846/36/1 845/35/1 838/45/1
f 835/42/1 849/39/1 848/38/1 836/48/1
f 831/43/1 834/43/1 842/47/1 840/44/1
f 835/42/1 832/42/1 839/41/1 849/39/1
f 833/45/1 838/45/1 845/35/1 843/46/1
f 837/48/1 836/48/1 848/38/1 846/36/1
f 829/27/14 850/40/14 849/39/14 839/49/14 841/50/14 827/51/14
f 827/52/7 841/31/7 840/30/7 842/32/7 844/34/7 828/53/7
f 828/53/13 844/34/13 843/33/13 845/35/13 847/37/13 830/26/13
f 830/26/2 847/37/2 846/36/2 848/38/2 850/40/2 829/27/2
f 854/54/96 853/55/96 857/56/96 858/57/96
f 855/58/97 854/54/97 858/57/97 859/59/97
f 853/55/98 852/60/98 857/56/98
f 856/61/99 855/58/99 859/59/99
f 859/59/100 858/57/100 861/62/100 862/63/100
f 857/56/101 852/64/101 860/65/101
f 856/66/102 859/59/102 862/63/102
f 858/57/103 857/56/103 860/65/103 861/62/103
f 862/63/104 861/62/104 864/26/104 865/53/104
f 860/65/105 852/67/105 863/68/105
f 856/69/106 862/63/106 865/53/106
f 861/62/107 860/65/107 863/68/107 864/26/107
f 864/26/108 863/68/108 866/70/108 867/71/108
f 865/53/109 864/26/109 867/71/109 868/72/109
f 863/68/110 852/73/110 866/70/110
f 856/74/111 865/53/111 868/72/111
f 856/75/112 868/72/112 871/76/112
f 867/71/113 866/70/113 869/77/113 870/25/113
f 868/72/114 867/71/114 870/25/114 871/76/114
f 866/70/115 852/78/115 869/77/115
f 856/79/116 871/76/116 874/80/116
f 870/25/117 869/77/117 872/81/117 873/82/117
f 871/76/118 870/25/118 873/82/118 874/80/118
f 869/77/119 852/83/119 872/81/119
f 856/84/120 874/85/120 877/86/120
f 873/87/121 872/88/121 875/89/121 876/90/121
f 874/85/122 873/87/122 876/90/122 877/86/122
f 872/88/123 852/91/123 875/89/123
f 856/92/124 877/86/124 855/58/124
f 876/90/125 875/89/125 853/55/125 854/54/125
f 877/86/126 876/90/126 854/54/126 855/58/126
f 875/89/127 852/93/127 853/55/127
f 832/42/1 835/42/1 836/48/1 837/48/1 838/45/1 833/45/1 834/43/1 831/43/1
f 879/25/1 881/26/1 880/27/1 878/28/1
f 890/29/128 891/30/128 892/31/128
f 893/32/129 894/33/129 895/34/129
f 896/35/130 897/36/130 898/37/130
f 899/38/131 900/39/131 901/40/131
f 890/41/12 883/42/12 882/43/12 891/44/12
f 884/45/12 894/46/12 893/47/12 885/43/12
f 888/48/12 897/36/12 896/35/12 889/45/12
f 886/42/12 900/39/12 899/38/12 887/48/12
f 882/43/12 885/43/12 893/47/12 891/44/12
f 886/42/12 883/42/12 890/41/12 900/39/12
f 884/45/12 889/45/12 896/35/12 894/46/12
f 888/48/12 887/48/12 899/38/12 897/36/12
f 897/36/2 899/38/2 901/40/2 898/37/2
f 894/46/14 896/35/14 898/37/14 895/34/14
f 907/94/132 914/95/132 898/37/132 901/40/132
f 883/42/12 886/42/12 887/48/12 888/48/12 889/45/12 884/45/12 885/43/12 882/43/12
f 914/95/133 908/96/133 895/34/133 898/37/133
f 892/31/13 901/40/13 900/39/13 890/41/13
f 907/94/134 901/40/134 892/31/134 925/97/134
f 891/44/7 893/47/7 895/34/7 892/31/7
f 908/96/135 925/97/135 892/31/135 895/34/135
f 879/53/136 878/28/136 920/98/136 913/99/136
f 913/99/137 920/98/137 921/100/137 912/101/137
f 912/101/138 921/100/138 922/102/138 911/103/138
f 911/103/138 922/102/138 923/104/138 910/105/138
f 910/105/139 923/104/139 924/106/139 909/107/139
f 909/107/140 924/106/140 925/97/140 908/96/140
f 880/27/141 902/108/141 920/98/141 878/28/141
f 902/108/142 903/109/142 921/100/142 920/98/142
f 903/109/143 904/110/143 922/102/143 921/100/143
f 904/110/143 905/111/143 923/104/143 922/102/143
f 905/111/144 906/112/144 924/106/144 923/104/144
f 906/112/145 907/94/145 925/97/145 924/106/145
f 881/26/146 879/53/146 913/99/146 919/113/146
f 919/113/147 913/99/147 912/101/147 918/114/147
f 918/114/148 912/101/148 911/103/148 917/115/148
f 917/115/148 911/103/148 910/105/148 916/116/148
f 916/116/149 910/105/149 909/107/149 915/117/149
f 915/117/150 909/107/150 908/96/150 914/95/150
f 880/27/151 881/26/151 919/113/151 902/108/151
f 902/108/152 919/113/152 918/114/152 903/109/152
f 903/109/153 918/114/153 917/115/153 904/110/153
f 904/110/153 917/115/153 916/116/153 905/111/153
f 905/111/154 916/116/154 915/117/154 906/112/154
f 906/112/155 915/117/155 914/95/155 907/94/155
f 926/4/14 927/6/14 929/8/14 928/3/14
f 929/8/2 927/6/2 930/6/2 931/8/2
f 932/4/156 934/3/156 935/8/156 933/6/156
f 935/8/157 937/8/157 936/6/157 933/6/157
f 926/4/7 928/3/7 934/3/7 932/4/7
f 927/6/12 926/4/12 932/4/12 933/6/12
f 928/3/1 929/8/1 935/8/1 934/3/1
f 931/8/13 930/6/13 936/6/13 937/8/13
f 929/8/1 931/8/1 937/8/1 935/8/1
f 930/6/12 927/6/12 933/6/12 936/6/12
s 1
f 949/8/29 973/8/30 970/8/31 941/8/32
f 940/3/33 971/3/34 974/3/35 944/3/36
f 953/4/37 943/4/38 982/6/38 952/6/39
f 952/6/40 982/6/41 981/8/41 947/8/42
f 944/3/43 964/3/44 960/3/45 940/3/46
f 954/4/47 967/4/48 966/4/39 953/4/37
f 942/3/49 984/3/49 962/3/50 946/3/51
f 957/4/52 969/4/52 961/4/53 938/4/54
f 939/6/31 950/6/30 949/8/29 941/8/32
f 950/6/30 951/6/55 948/8/56 949/8/29
f 951/6/55 952/6/40 947/8/42 948/8/56
f 938/4/54 955/4/158 950/6/58 939/6/53
f 955/4/158 954/4/47 951/6/48 950/6/58
f 954/4/47 953/4/37 952/6/39 951/6/48
f 959/8/1 978/8/1 979/3/1 956/3/1
f 981/8/41 980/8/41 976/8/40 947/8/42
f 946/3/59 972/3/60 983/3/61 942/3/61
f 957/4/1 958/6/1 959/8/1 956/3/1
f 939/6/53 958/6/52 957/4/52 938/4/54
f 941/8/32 959/8/62 958/6/62 939/6/31
f 938/4/54 961/4/53 963/4/58 955/4/158
f 962/3/60 984/3/63 985/4/63 966/4/60
f 960/3/34 964/3/35 963/4/35 961/4/34
f 964/3/35 965/3/64 967/4/64 963/4/35
f 965/3/64 962/3/60 966/4/60 967/4/64
f 961/4/34 969/4/65 968/3/65 960/3/34
f 956/3/1 968/3/1 969/4/1 957/4/1
f 955/4/158 963/4/58 967/4/48 954/4/47
f 945/3/66 965/3/67 964/3/44 944/3/43
f 940/3/46 960/3/45 968/3/68 956/3/68
f 946/3/51 962/3/50 965/3/67 945/3/66
f 953/4/37 966/4/39 985/4/38 943/4/38
f 971/3/45 979/3/68 978/8/68 970/8/45
f 976/8/50 980/8/49 983/3/49 972/3/50
f 970/8/45 973/8/44 974/3/44 971/3/45
f 973/8/44 977/8/67 975/3/67 974/3/44
f 977/8/67 976/8/50 972/3/50 975/3/67
f 947/8/42 976/8/40 977/8/55 948/8/56
f 941/8/32 970/8/31 978/8/62 959/8/62
f 944/3/36 974/3/35 975/3/64 945/3/70
f 948/8/56 977/8/55 973/8/30 949/8/29
f 956/3/65 979/3/65 971/3/34 940/3/33
f 945/3/70 975/3/64 972/3/60 946/3/59
f 987/118/12 986/119/12 988/120/12 990/121/12
f 987/118/12 993/122/12 992/123/12 986/124/12
f 986/124/12 991/125/12 989/120/12 988/120/12
f 1007/120/159 1008/120/160 999/120/160 997/120/161
f 1008/120/162 1006/126/163 998/127/164 999/120/162
f 1013/128/165 1014/118/166 996/121/166 994/129/167
f 1014/118/168 1012/118/169 995/130/170 996/121/168
f 994/129/167 996/121/162 999/120/162 998/127/164
f 996/121/160 995/130/159 997/120/161 999/120/160
f 1016/124/171 1017/131/172 1011/125/172 1009/125/173
f 1017/131/174 1015/132/175 1010/133/176 1011/125/174
f 1001/134/176 1002/123/174 1005/122/174 1003/135/177
f 1002/123/172 1000/123/173 1004/122/173 1005/122/172
f 1000/123/178 1002/123/179 1017/131/179 1016/124/180
f 1002/123/181 1001/134/176 1015/132/175 1017/131/181
f 1003/135/177 1005/122/166 1014/118/166 1013/128/165
f 1005/122/168 1004/122/170 1012/118/169 1014/118/168
f 1006/126/163 1008/120/181 1011/125/181 1010/133/176
f 1008/120/179 1007/120/178 1009/125/178 1011/125/179
f 1012/118/169 987/118/14 990/121/14 995/130/170
f 994/129/167 982/6/12 943/4/12 1013/128/165
f 995/130/159 990/121/2 988/120/2 997/120/161
f 998/127/164 981/8/12 982/6/12 994/129/167
f 997/120/161 988/120/2 989/120/2 1007/120/159
f 1006/126/163 980/8/12 981/8/12 998/127/164
f 1003/135/177 985/4/12 984/3/12 1001/134/176
f 1016/124/180 986/124/13 992/123/13 1000/123/178
f 1000/123/173 992/123/7 993/122/7 1004/122/173
f 1001/134/176 984/3/12 942/3/12 1015/132/175
f 1004/122/170 993/122/14 987/118/14 1012/118/169
f 1013/128/165 943/4/12 985/4/12 1003/135/177
f 1007/120/178 989/120/13 991/125/13 1009/125/178
f 1010/133/176 983/3/12 980/8/12 1006/126/163
f 1009/125/173 991/125/7 986/124/7 1016/124/171
f 1015/132/175 942/3/12 983/3/12 1010/133/176
s 0
f 1022/2/182 1018/4/182 1019/3/182 1021/1/182
f 1023/5/183 1085/6/183 1018/4/183 1022/2/183
f 1024/7/184 1020/8/184 1085/6/184 1023/5/184
f 1021/1/185 1019/3/185 1020/8/185 1024/7/185
f 1026/9/2 1025/12/2 1028/11/2 1027/10/2
f 1029/13/3 1022/2/3 1021/1/3 1034/14/3
f 1035/15/6 1023/5/6 1022/2/6 1029/13/6
f 1038/16/5 1024/7/5 1023/5/5 1035/15/5
f 1034/14/4 1021/1/4 1024/7/4 1038/16/4
f 1025/12/6 1032/18/6 1040/17/6 1028/11/6
f 1032/18/4 1033/20/4 1039/19/4 1040/17/4
f 1033/20/6 1034/14/6 1038/16/6 1039/19/6
f 1028/11/3 1040/17/3 1037/21/3 1027/10/3
f 1040/17/5 1039/19/5 1036/22/5 1037/21/5
f 1039/19/3 1038/16/3 1035/15/3 1036/22/3
f 1027/10/4 1037/21/4 1031/23/4 1026/9/4
f 1037/21/6 1036/22/6 1030/24/6 1031/23/6
f 1036/22/4 1035/15/4 1029/13/4 1030/24/4
f 1026/9/5 1031/23/5 1032/18/5 1025/12/5
f 1031/23/186 1030/24/186 1033/20/186 1032/18/186
f 1030/24/5 1029/13/5 1034/14/5 1033/20/5
f 1044/2/187 1019/4/187 1041/3/187 1043/1/187
f 1045/5/188 1020/6/188 1019/4/188 1044/2/188
f 1046/7/189 1042/8/189 1020/6/189 1045/5/189
f 1043/1/190 1041/3/190 1042/8/190 1046/7/190
f 1048/9/14 1047/12/14 1050/11/14 1049/10/14
f 1051/13/19 1044/2/19 1043/1/19 1056/14/19
f 1057/15/22 1045/5/22 1044/2/22 1051/13/22
f 1060/16/21 1046/7/21 1045/5/21 1057/15/21
f 1056/14/20 1043/1/20 1046/7/20 1060/16/20
f 1047/12/22 1054/18/22 1062/17/22 1050/11/22
f 1054/18/20 1055/20/20 1061/19/20 1062/17/20
f 1055/20/22 1056/14/22 1060/16/22 1061/19/22
f 1050/11/19 1062/17/19 1059/21/19 1049/10/19
f 1062/17/191 1061/19/191 1058/22/191 1059/21/191
f 1061/19/192 1060/16/192 1057/15/192 1058/22/192
f 1049/10/20 1059/21/20 1053/23/20 1048/9/20
f 1059/21/22 1058/22/22 1052/24/22 1053/23/22
f 1058/22/20 1057/15/20 1051/13/20 1052/24/20
f 1048/9/21 1053/23/21 1054/18/21 1047/12/21
f 1053/23/193 1052/24/193 1055/20/193 1054/18/193
f 1052/24/194 1051/13/194 1056/14/194 1055/20/194
f 1066/2/195 1041/4/195 1063/3/195 1065/1/195
f 1067/5/196 1042/6/196 1041/4/196 1066/2/196
f 1068/7/197 1064/8/197 1042/6/197 1067/5/197
f 1065/1/198 1063/3/198 1064/8/198 1068/7/198
f 1070/9/7 1069/12/7 1072/11/7 1071/10/7
f 1073/13/10 1066/2/10 1065/1/10 1078/14/10
f 1079/15/11 1067/5/11 1066/2/11 1073/13/11
f 1082/16/8 1068/7/8 1067/5/8 1079/15/8
f 1078/14/9 1065/1/9 1068/7/9 1082/16/9
f 1069/12/11 1076/18/11 1084/17/11 1072/11/11
f 1076/18/9 1077/20/9 1083/19/9 1084/17/9
f 1077/20/11 1078/14/11 1082/16/11 1083/19/11
f 1072/11/199 1084/17/199 1081/21/199 1071/10/199
f 1084/17/8 1083/19/8 1080/22/8 1081/21/8
f 1083/19/10 1082/16/10 1079/15/10 1080/22/10
f 1071/10/9 1081/21/9 1075/23/9 1070/9/9
f 1081/21/11 1080/22/11 1074/24/11 1075/23/11
f 1080/22/9 1079/15/9 1073/13/9 1074/24/9
f 1070/9/8 1075/23/8 1076/18/8 1069/12/8
f 1075/23/199 1074/24/199 1077/20/199 1076/18/199
f 1074/24/8 1073/13/8 1078/14/8 1077/20/8
f 1087/2/200 1063/4/200 1018/3/200 1086/1/200
f 1088/5/201 1064/6/201 1063/4/201 1087/2/201
f 1089/7/202 1085/8/202 1064/6/202 1088/5/202
f 1086/1/203 1018/3/203 1085/8/203 1089/7/203
f 1091/9/13 1090/12/13 1093/11/13 1092/10/13
f 1094/13/204 1087/2/204 1086/1/204 1099/14/204
f 1100/15/26 1088/5/26 1087/2/26 1094/13/26
f 1103/16/23 1089/7/23 1088/5/23 1100/15/23
f 1099/14/24 1086/1/24 1089/7/24 1103/16/24
f 1090/12/26 1097/18/26 1105/17/26 1093/11/26
f 1097/18/24 1098/20/24 1104/19/24 1105/17/24
f 1098/20/26 1099/14/26 1103/16/26 1104/19/26
f 1093/11/25 1105/17/25 1102/21/25 1092/10/25
f 1105/17/23 1104/19/23 1101/22/23 1102/21/23
f 1104/19/205 1103/16/205 1100/15/205 1101/22/205
f 1092/10/24 1102/21/24 1096/23/24 1091/9/24
f 1102/21/26 1101/22/26 1095/24/26 1096/23/26
f 1101/22/24 1100/15/24 1094/13/24 1095/24/24
f 1091/9/23 1096/23/23 1097/18/23 1090/12/23
f 1096/23/204 1095/24/204 1098/20/204 1097/18/204
f 1095/24/23 1094/13/23 1099/14/23 1098/20/23
f 1110/2/206 1106/4/206 1107/3/206 1109/1/206
f 1111/5/190 1173/6/190 1106/4/190 1110/2/190
f 1112/7/207 1108/8/207 1173/6/207 1111/5/207
f 1109/1/208 1107/3/208 1108/8/208 1112/7/208
f 1114/9/14 1113/12/14 1116/11/14 1115/10/14
f 1117/13/19 1110/2/19 1109/1/19 1122/14/19
f 1123/15/22 1111/5/22 1110/2/22 1117/13/22
f 1126/16/21 1112/7/21 1111/5/21 1123/15/21
f 1122/14/28 1109/1/28 1112/7/28 1126/16/28
f 1113/12/22 1120/18/22 1128/17/22 1116/11/22
f 1120/18/20 1121/20/20 1127/19/20 1128/17/20
f 1121/20/209 1122/14/209 1126/16/209 1127/19/209
f 1116/11/19 1128/17/19 1125/21/19 1115/10/19
f 1128/17/21 1127/19/21 1124/22/21 1125/21/21
f 1127/19/19 1126/16/19 1123/15/19 1124/22/19
f 1115/10/20 1125/21/20 1119/23/20 1114/9/20
f 1125/21/22 1124/22/22 1118/24/22 1119/23/22
f 1124/22/20 1123/15/20 1117/13/20 1118/24/20
f 1114/9/21 1119/23/21 1120/18/21 1113/12/21
f 1119/23/19 1118/24/19 1121/20/19 1120/18/19
f 1118/24/191 1117/13/191 1122/14/191 1121/20/191
f 1132/2/210 1107/4/210 1129/3/210 1131/1/210
f 1133/5/211 1108/6/211 1107/4/211 1132/2/211
f 1134/7/212 1130/8/212 1108/6/212 1133/5/212
f 1131/1/196 1129/3/196 1130/8/196 1134/7/196
f 1136/9/7 1135/12/7 1138/11/7 1137/10/7
f 1139/13/199 1132/2/199 1131/1/199 1144/14/199
f 1145/15/18 1133/5/18 1132/2/18 1139/13/18
f 1148/16/8 1134/7/8 1133/5/8 1145/15/8
f 1144/14/9 1131/1/9 1134/7/9 1148/16/9
f 1135/12/11 1142/18/11 1150/17/11 1138/11/11
f 1142/18/9 1143/20/9 1149/19/9 1150/17/9
f 1143/20/11 1144/14/11 1148/16/11 1149/19/11
f 1138/11/10 1150/17/10 1147/21/10 1137/10/10
f 1150/17/8 1149/19/8 1146/22/8 1147/21/8
f 1149/19/10 1148/16/10 1145/15/10 1146/22/10
f 1137/10/9 1147/21/9 1141/23/9 1136/9/9
f 1147/21/11 1146/22/11 1140/24/11 1141/23/11
f 1146/22/16 1145/15/16 1139/13/16 1140/24/16
f 1136/9/8 1141/23/8 1142/18/8 1135/12/8
f 1141/23/199 1140/24/199 1143/20/199 1142/18/199
f 1140/24/8 1139/13/8 1144/14/8 1143/20/8
f 1154/2/213 1129/4/213 1151/3/213 1153/1/213
f 1155/5/203 1130/6/203 1129/4/203 1154/2/203
f 1156/7/214 1152/8/214 1130/6/214 1155/5/214
f 1153/1/215 1151/3/215 1152/8/215 1156/7/215
f 1158/9/13 1157/12/13 1160/11/13 1159/10/13
f 1161/13/25 1154/2/25 1153/1/25 1166/14/25
f 1167/15/26 1155/5/26 1154/2/26 1161/13/26
f 1170/16/23 1156/7/23 1155/5/23 1167/15/23
f 1166/14/24 1153/1/24 1156/7/24 1170/16/24
f 1157/12/26 1164/18/26 1172/17/26 1160/11/26
f 1164/18/24 1165/20/24 1171/19/24 1172/17/24
f 1165/20/216 1166/14/216 1170/16/216 1171/19/216
f 1160/11/25 1172/17/25 1169/21/25 1159/10/25
f 1172/17/23 1171/19/23 1168/22/23 1169/21/23
f 1171/19/25 1170/16/25 1167/15/25 1168/22/25
f 1159/10/24 1169/21/24 1163/23/24 1158/9/24
f 1169/21/26 1168/22/26 1162/24/26 1163/23/26
f 1168/22/24 1167/15/24 1161/13/24 1162/24/24
f 1158/9/23 1163/23/23 1164/18/23 1157/12/23
f 1163/23/25 1162/24/25 1165/20/25 1164/18/25
f 1162/24/217 1161/13/217 1166/14/217 1165/20/217
f 1175/2/218 1151/4/218 1106/3/218 1174/1/218
f 1176/5/219 1152/6/219 1151/4/219 1175/2/219
f 1177/7/220 1173/8/220 1152/6/220 1176/5/220
f 1174/1/183 1106/3/183 1173/8/183 1177/7/183
f 1179/9/2 1178/12/2 1181/11/2 1180/10/2
f 1182/13/3 1175/2/3 1174/1/3 1187/14/3
f 1188/15/17 1176/5/17 1175/2/17 1182/13/17
f 1191/16/221 1177/7/221 1176/5/221 1188/15/221
f 1187/14/15 1174/1/15 1177/7/15 1191/16/15
f 1178/12/6 1185/18/6 1193/17/6 1181/11/6
f 1185/18/15 1186/20/15 1192/19/15 1193/17/15
f 1186/20/6 1187/14/6 1191/16/6 1192/19/6
f 1181/11/3 1193/17/3 1190/21/3 1180/10/3
f 1193/17/5 1192/19/5 1189/22/5 1190/21/5
f 1192/19/3 1191/16/3 1188/15/3 1189/22/3
f 1180/10/4 1190/21/4 1184/23/4 1179/9/4
f 1190/21/17 1189/22/17 1183/24/17 1184/23/17
f 1189/22/15 1188/15/15 1182/13/15 1183/24/15
f 1179/9/5 1184/23/5 1185/18/5 1178/12/5
f 1184/23/222 1183/24/222 1186/20/222 1185/18/222
f 1183/24/5 1182/13/5 1187/14/5 1186/20/5
