# Blender 5.1.1
# www.blender.org
mtllib concrete_road_barrier_2k.mtl
o concrete_road_barrier_LOD5
v 0.511383 0.788426 0.004758
v -0.572450 0.786147 -0.015258
v 0.512292 0.788026 -0.010504
v 0.499755 0.788063 -0.007064
v -0.508364 0.786980 0.008625
v 0.455642 0.789030 -0.020224
v -0.519295 0.786295 0.008396
v 0.469781 0.806583 -0.023994
v -0.557408 0.785012 -0.009293
v -0.523075 0.804752 0.008517
v -0.537970 0.812045 0.002788
v -0.555155 0.806333 -0.001248
v -0.506668 0.786591 -0.004574
v 0.517037 0.787966 -0.002553
v 0.484037 0.812660 -0.016990
v 0.487893 0.816564 -0.023472
v 0.484507 0.826121 -0.016974
v 0.505034 0.816463 -0.005082
v 0.505509 0.810405 -0.015247
v 0.497651 0.806123 -0.009694
v 0.463542 0.810184 -0.018968
v 0.496421 0.810112 -0.001832
v -0.550059 0.803674 -0.008637
v -0.535806 0.809150 -0.004164
v -0.524688 0.800919 -0.000708
v -0.514904 0.810348 0.001773
v -0.534960 0.819860 -0.003450
v -0.558001 0.813242 -0.010311
v -0.517494 0.805288 -0.008529
v -0.532621 0.814104 -0.011695
v -0.550808 0.808432 -0.018563
v 0.480910 0.817725 -0.011175
v 0.462932 0.815997 -0.028262
v 0.471572 0.810160 -0.033093
v 0.736180 0.777319 -0.051669
v -0.755067 0.776556 -0.055491
v 0.758881 0.332923 -0.087352
v -0.767136 0.321492 -0.105039
v 0.729462 0.783626 0.068422
v 0.606895 0.785445 0.069534
v -0.375118 0.793141 0.063736
v -0.746149 0.772133 0.049373
v -0.760114 0.337977 0.134178
v 0.760395 0.335422 0.152993
v -0.762138 0.262754 0.186537
v -0.758702 0.157895 0.258459
v -0.746448 0.030706 0.307246
v -0.689978 0.008867 0.322937
v 0.048327 0.015693 0.333345
v 0.732009 0.019833 0.326206
v 0.758687 0.026670 -0.260567
v -0.757582 0.021980 -0.278103
v 0.714887 0.786074 -0.057813
v 0.600172 0.780963 -0.065080
v 0.315363 0.788665 -0.064097
v -0.282278 0.794712 -0.055300
v -0.425159 0.785599 -0.056874
v -0.499097 0.771953 -0.048947
v -0.541564 0.781959 -0.059561
v 0.743291 0.735674 -0.049525
v 0.742404 0.765135 -0.057381
v 0.697286 0.669608 -0.081413
v 0.325869 0.561574 -0.097608
v -0.764962 0.755211 -0.064770
v 0.757585 0.650723 -0.059767
v -0.769921 0.657211 -0.074668
v 0.483602 0.223069 -0.181276
v -0.230727 0.223838 -0.185069
v 0.748497 0.785233 -0.034229
v -0.662985 0.788545 0.056183
v -0.757369 0.781765 -0.006832
v -0.768170 0.276868 -0.151405
v -0.760140 0.147282 -0.225152
v 0.746915 0.068065 -0.258111
v -0.757866 0.120052 -0.251755
v -0.342019 0.531032 0.117753
v -0.759647 0.620976 0.084023
v 0.746033 0.622773 0.107077
v -0.764443 0.540887 0.104030
v 0.757431 0.481254 0.128322
v -0.761010 0.368228 0.130004
v 0.761104 0.393072 0.145366
v 0.762987 0.293015 0.184338
v -0.761206 0.218202 0.218175
v -0.688130 0.150647 0.286758
v 0.765501 0.219639 0.233933
v 0.740306 0.144299 0.297322
v 0.488814 0.047775 0.339887
v 0.766079 0.102170 0.312368
v -0.768853 0.595813 0.071947
v -0.771525 0.284497 -0.106532
v -0.773550 0.212470 -0.174092
v -0.769159 0.320250 0.116838
v -0.763064 0.084346 0.287407
v -0.770531 0.353139 0.004967
v -0.561004 0.786027 -0.020422
v -0.578188 0.782986 0.003311
v 0.760414 0.698826 -0.042456
v 0.766630 0.481339 0.110201
v 0.765788 0.308753 -0.086060
v 0.767792 0.097729 -0.198289
v -0.748880 0.062732 0.309049
v -0.464814 0.010158 0.332961
v -0.133154 0.018578 0.318402
v 0.258994 0.010254 0.339608
v 0.738806 0.019146 -0.272606
v 0.650540 0.012407 -0.277731
v -0.081624 0.011129 -0.283849
v -0.339008 0.011286 -0.279018
v -0.315906 0.007815 -0.282499
v -0.377706 0.011926 -0.281162
v -0.480953 0.012363 -0.288143
v 0.757491 0.002531 0.151964
v -0.764792 0.010886 0.019276
v 0.767175 0.008294 -0.161556
v 0.706852 0.768458 -0.063790
v 0.656906 0.751849 -0.075147
v -0.070326 0.770063 -0.070963
v -0.299409 0.751226 -0.071735
v -0.494200 0.753635 -0.065753
v -0.537757 0.726607 -0.073512
v -0.660003 0.329597 -0.115770
v -0.745136 0.326518 -0.115678
v 0.322711 0.791378 0.003541
v -0.444749 0.784872 0.033342
v -0.513269 0.788019 0.035155
v -0.580914 0.193171 -0.198904
v -0.736843 0.072583 -0.277862
v -0.736151 0.755535 0.068298
v -0.440860 0.764184 0.072852
v 0.049274 0.758905 0.078128
v 0.702812 0.752922 0.079965
v 0.712951 0.638249 0.103885
v 0.715624 0.487086 0.133026
v -0.731944 0.412024 0.137633
v -0.342629 0.344449 0.157213
v 0.322027 0.534217 0.128190
v -0.672473 0.294063 0.187323
v 0.749159 0.299072 0.192139
v 0.477706 0.088267 0.334769
v -0.770175 0.749408 -0.018560
v -0.566507 0.785536 -0.005879
v -0.502758 0.784295 -0.034557
v 0.523171 0.784888 -0.028377
v 0.466009 0.788223 -0.022374
v 0.770447 0.083628 0.268546
v -0.218769 0.038507 0.339314
v 0.731351 0.065456 0.335859
v 0.745968 0.036410 -0.275750
v -0.130399 0.030007 -0.287399
v -0.769208 0.028878 0.028960
v -0.766450 0.045268 0.261542
v -0.770659 0.074674 -0.259785
v 0.760242 0.028641 0.258134
v -0.086177 0.004228 -0.268846
v 0.160334 0.005773 -0.264790
v 0.684014 -0.000906 -0.231606
v 0.745124 0.000369 -0.142874
v -0.518649 0.785513 -0.004149
v -0.152336 0.796225 -0.057586
v -0.318475 0.775635 -0.046203
v -0.375483 0.785746 -0.054438
v -0.653408 0.783577 -0.061556
v 0.665477 0.585328 -0.089090
v -0.763124 0.601894 -0.071733
v -0.767924 0.579008 -0.077415
v -0.735692 0.582988 -0.089299
v 0.761098 0.532474 -0.065503
v 0.727742 0.432183 -0.100739
v 0.688817 0.457238 -0.099835
v -0.488137 0.560909 -0.091463
v -0.770012 0.422000 -0.094440
v -0.728404 0.419758 -0.106586
v 0.765107 0.406656 -0.077375
v 0.756591 0.789792 0.005862
v 0.710577 0.785840 0.069071
v 0.330468 0.793880 0.070886
v 0.046874 0.797385 0.067937
v -0.221036 0.794984 0.064789
v -0.424738 0.781066 0.058482
v -0.460739 0.787699 0.059045
v -0.712381 0.782026 0.055823
v 0.756824 0.290518 -0.110382
v 0.764443 0.200460 -0.166689
v -0.766736 0.217438 -0.188524
v -0.737432 0.125239 -0.247754
v 0.765018 0.134120 -0.216091
v -0.257083 0.049509 -0.287914
v -0.755028 0.731964 0.064341
v 0.740830 0.724121 0.085569
v -0.758059 0.465126 0.112484
v -0.765242 0.494539 0.111751
v -0.730012 0.330746 0.155937
v 0.313584 0.240281 0.234640
v 0.584288 0.242035 0.228537
v 0.757760 0.250965 0.206059
v -0.567476 0.104167 0.322138
v -0.768574 0.352721 0.074012
v -0.766389 0.344518 0.119923
v -0.771593 0.335751 -0.071616
v -0.439834 0.784242 -0.035058
v 0.742746 0.790244 0.050857
v 0.766216 0.354378 -0.015808
v 0.766283 0.346549 0.129420
v -0.753280 0.100856 0.298544
v -0.731061 0.015957 0.319267
v -0.218328 0.018937 0.336193
v -0.030259 0.018583 0.318989
v 0.523178 0.009059 0.338735
v 0.750648 0.054928 0.328980
v 0.685423 0.013391 0.331683
v 0.766810 0.045080 -0.260594
v 0.372000 0.011336 -0.279867
v 0.167729 0.013242 -0.281557
v -0.757943 0.064343 -0.279572
v -0.728386 0.016977 -0.284204
v 0.748978 0.005762 0.256362
v -0.762141 0.018753 0.251055
v -0.770149 0.011449 -0.245922
v 0.765108 0.008360 -0.013281
v 0.742731 0.008540 0.297753
v 0.622585 0.001253 -0.265653
v -0.325258 0.761612 -0.064673
v -0.283832 0.776167 -0.067927
v -0.362046 0.769734 -0.066616
v -0.424521 0.773760 -0.067838
v -0.364452 0.742050 -0.072353
v -0.539182 0.766596 -0.068167
v -0.581880 0.768165 -0.069869
v -0.713438 0.744165 -0.073170
v -0.754840 0.700841 -0.077995
v -0.078977 0.556072 -0.093900
v 0.723414 0.339848 -0.112093
v 0.481303 0.333362 -0.113777
v 0.086397 0.327514 -0.118376
v -0.221292 0.329649 -0.119761
v 0.741355 0.791300 0.017752
v -0.401503 0.789248 0.042686
v 0.728850 0.224016 -0.175663
v 0.071536 0.221505 -0.185184
v -0.736650 0.178157 -0.211992
v 0.702993 0.116739 -0.242639
v 0.042180 0.061126 -0.285045
v -0.363100 0.059669 -0.279221
v -0.664847 0.763252 0.071687
v -0.368629 0.780530 0.070811
v 0.327386 0.755009 0.081876
v -0.738492 0.598358 0.102383
v -0.736809 0.478723 0.122798
v -0.708276 0.466723 0.127366
v -0.696638 0.371053 0.147334
v -0.640371 0.337769 0.156613
v 0.325177 0.345881 0.163767
v 0.712606 0.349706 0.159470
v -0.727098 0.233606 0.227820
v -0.156847 0.246333 0.225333
v 0.733050 0.250408 0.223317
v -0.744068 0.187278 0.260718
v -0.099021 0.124417 0.306276
v -0.770161 0.688344 0.047206
v -0.767919 0.256256 0.172634
v -0.772721 0.129534 -0.227666
v -0.768110 0.207449 0.196602
v -0.766032 0.133924 0.250110
v -0.223100 0.794451 0.002035
v -0.770150 0.574731 0.011042
v -0.363832 0.787915 -0.032119
v 0.563325 0.783843 0.001980
v 0.730454 0.789289 -0.038197
v 0.759481 0.759183 -0.039282
v 0.744285 0.001557 0.024984
v 0.763576 0.725191 0.064220
v 0.763739 0.623285 0.089172
v 0.764726 0.418926 -0.047654
v 0.768235 0.235640 0.187352
v 0.767618 0.213847 -0.140909
v 0.769343 0.158248 0.243801
v -0.713632 0.035797 0.330519
v -0.482646 0.034844 0.337692
v -0.215377 0.076859 0.331402
v -0.171048 0.051594 0.320071
v -0.051102 0.030353 0.327109
v 0.039373 0.031742 0.338885
v 0.136834 0.058205 0.340585
v 0.439544 0.058518 -0.280654
v -0.368034 0.033665 -0.288926
v -0.494405 0.035036 -0.287757
v -0.767016 0.028567 0.204549
v -0.772090 0.035075 -0.267793
v 0.768444 0.032943 -0.150150
v 0.768596 0.035427 -0.239086
v 0.769223 0.053974 0.176317
v 0.764883 0.046844 0.309924
v -0.742258 0.002165 0.019601
v -0.738215 0.004150 -0.201786
v -0.747374 0.011481 -0.263853
v -0.412758 0.000689 0.287697
v -0.317978 -0.000004 -0.239924
v -0.433573 0.003257 -0.268435
v 0.378178 0.004185 -0.260831
v 0.767101 0.359274 0.056501
v 0.323897 0.764780 -0.074124
v 0.728952 0.011239 -0.262439
v -0.659768 0.385238 0.144575
v 0.501174 0.788468 0.002195
v -0.306496 0.790446 -0.029059
v 0.465045 0.788487 -0.033736
v 0.453435 0.790180 -0.032244
v -0.769331 0.743466 0.019215
v 0.722728 0.542572 -0.090543
v -0.721262 0.787073 0.035122
v 0.707154 0.280079 -0.143638
v -0.142916 0.061973 -0.281089
v -0.225052 0.767774 0.071930
v -0.749690 0.284916 0.188431
v -0.717913 0.097464 0.320828
v -0.000534 0.096692 0.329042
v 0.730638 0.093762 0.332101
v -0.768661 0.453372 0.082638
v -0.768814 0.495410 0.100838
v -0.769870 0.767111 -0.043796
v -0.386149 0.786091 0.008943
v 0.763372 0.543317 -0.029325
v 0.712015 0.028219 0.345536
v 0.700833 0.058149 -0.277055
v -0.311829 0.029191 -0.289525
v -0.330088 0.048965 -0.280225
v -0.732330 0.038736 -0.287060
v -0.771519 0.024187 -0.202646
v -0.747998 0.009416 0.241057
v -0.635786 0.006736 -0.271154
v -0.179170 0.001335 0.010159
v 0.366086 -0.003317 0.012564
v 0.722293 0.002757 0.285026
v 0.754053 0.002625 -0.210856
vn 0.2215 0.8680 0.4444
vn -0.3152 0.9489 -0.0133
vn 0.3024 0.8218 -0.4829
vn -0.4184 0.8449 -0.3333
vn 0.2675 0.9319 0.2451
vn -0.1576 0.9447 0.2875
vn -0.3552 0.8719 0.3370
vn 0.6312 -0.6361 0.4438
vn 0.5688 0.8000 0.1910
vn -0.2806 0.1203 0.9522
vn -0.2887 0.0111 0.9574
vn -0.2858 0.0316 0.9578
vn 0.2609 0.9291 -0.2620
vn 0.4553 0.8903 0.0044
vn -0.0290 -0.9983 0.0515
vn 0.4644 0.0035 -0.8856
vn -0.0057 0.9999 0.0104
vn 0.5462 0.7528 0.3675
vn 0.5470 0.1012 -0.8310
vn -0.6576 -0.6449 -0.3894
vn -0.5335 0.1435 0.8335
vn -0.5042 0.0991 0.8579
vn 0.6450 -0.7499 0.1471
vn -0.0801 -0.9914 -0.1035
vn -0.7937 -0.5617 -0.2335
vn 0.6558 0.7139 0.2455
vn 0.0517 0.9918 0.1172
vn -0.6187 0.7793 -0.1000
vn 0.2968 0.1946 -0.9349
vn 0.2767 0.2062 -0.9386
vn 0.2173 0.1552 -0.9637
vn -0.4830 0.0703 0.8728
vn -0.6225 0.6955 -0.3587
vn 0.3640 -0.0181 -0.9312
vn 0.3914 0.5963 -0.7009
vn -0.3354 0.7821 -0.5251
vn 0.8456 0.1884 -0.4994
vn -0.8558 0.2311 -0.4629
vn 0.3178 0.5897 0.7425
vn -0.0049 0.8100 0.5864
vn -0.0704 0.8823 0.4655
vn -0.6103 0.6404 0.4663
vn -0.7902 0.1991 0.5797
vn 0.6857 0.3658 0.6293
vn -0.8111 0.2952 0.5049
vn -0.8595 0.2596 0.4404
vn -0.7933 -0.3071 0.5256
vn -0.0799 -0.7971 0.5985
vn -0.0443 -0.7895 0.6122
vn 0.4410 -0.6910 0.5727
vn 0.7066 -0.5356 -0.4625
vn -0.4729 -0.4803 -0.7387
vn 0.1823 0.7253 -0.6638
vn 0.0027 0.7974 -0.6034
vn 0.0053 0.8184 -0.5746
vn -0.1622 0.8983 -0.4084
vn -0.0727 0.9128 -0.4018
vn 0.0881 0.7405 -0.6662
vn 0.1272 0.8208 -0.5569
vn 0.4742 0.0263 -0.8800
vn 0.4705 0.1553 -0.8686
vn 0.2043 0.1218 -0.9713
vn 0.0039 0.0967 -0.9953
vn -0.6167 0.2995 -0.7280
vn 0.7748 0.0947 -0.6251
vn -0.8135 -0.0000 -0.5816
vn 0.0087 0.5189 -0.8548
vn -0.0070 0.5173 -0.8558
vn 0.5873 0.7215 -0.3667
vn -0.0265 0.8813 0.4718
vn -0.5856 0.8083 0.0614
vn -0.6337 0.4626 -0.6200
vn -0.3318 0.5001 -0.7999
vn 0.3103 0.4531 -0.8357
vn -0.3746 0.5153 -0.7708
vn -0.0093 0.1969 0.9804
vn -0.7301 0.1662 0.6629
vn 0.3747 0.1940 0.9066
vn -0.7671 0.1381 0.6265
vn 0.5745 0.1607 0.8026
vn -0.7723 0.1241 0.6230
vn 0.7206 0.1326 0.6805
vn 0.8224 0.2817 0.4943
vn -0.7862 0.3621 0.5008
vn -0.0746 0.5452 0.8350
vn 0.7619 0.4169 0.4957
vn 0.1977 0.5494 0.8118
vn 0.0076 0.0491 0.9988
vn 0.7810 0.2279 0.5815
vn -0.9775 0.0467 0.2056
vn -0.9971 0.0612 -0.0456
vn -0.9801 0.1046 -0.1686
vn -0.9877 0.0802 0.1345
vn -0.9286 0.0260 0.3701
vn -0.9996 0.0230 0.0190
vn 0.0793 0.9081 -0.4111
vn -0.0506 0.9987 0.0061
vn 0.9195 0.0966 -0.3811
vn 0.9764 0.0379 0.2128
vn 0.9595 0.1527 -0.2367
vn 0.9992 0.0271 -0.0284
vn -0.7195 -0.0054 0.6945
vn -0.0063 -0.7026 0.7115
vn 0.0191 -0.7425 0.6696
vn -0.0137 -0.7026 0.7115
vn 0.2963 -0.5795 -0.7592
vn 0.0587 -0.4723 -0.8795
vn 0.0114 -0.5877 -0.8090
vn -0.0778 -0.6552 -0.7514
vn -0.1020 -0.7430 -0.6615
vn 0.0346 -0.6914 -0.7217
vn 0.0209 -0.5204 -0.8537
vn 0.6227 -0.7819 0.0286
vn -0.7430 -0.6691 0.0140
vn 0.8072 -0.5902 -0.0068
vn 0.2258 0.1768 -0.9580
vn 0.0631 0.2348 -0.9700
vn -0.0042 0.2852 -0.9585
vn -0.0537 0.1871 -0.9809
vn 0.0023 0.3798 -0.9251
vn 0.0515 0.1230 -0.9911
vn -0.0094 0.3139 -0.9494
vn -0.2184 0.3683 -0.9037
vn 0.0095 0.9993 -0.0373
vn 0.0237 0.9993 0.0296
vn 0.0052 0.9995 -0.0303
vn 0.0059 0.5090 -0.8607
vn 0.0663 0.3658 -0.9283
vn -0.3380 0.3907 0.8562
vn -0.0074 0.3824 0.9240
vn -0.0130 0.2279 0.9736
vn 0.0286 0.2646 0.9639
vn 0.0044 0.1996 0.9799
vn 0.0664 0.1823 0.9810
vn -0.2612 0.1940 0.9456
vn -0.0120 0.3864 0.9223
vn -0.0032 0.1941 0.9810
vn -0.0313 0.5817 0.8128
vn 0.3355 0.5052 0.7951
vn 0.0054 0.3531 0.9356
vn -0.9880 0.1432 0.0585
vn -0.2432 0.8704 0.4280
vn 0.0550 0.9488 -0.3109
vn 0.0706 0.9967 -0.0401
vn 0.4532 0.8497 0.2696
vn 0.9976 -0.0558 0.0421
vn 0.1265 0.0371 0.9913
vn 0.2391 0.1433 0.9604
vn 0.3552 0.0050 -0.9348
vn -0.0156 -0.0548 -0.9984
vn -0.9929 -0.1181 0.0115
vn -0.9746 -0.1240 0.1866
vn -0.9181 0.1555 -0.3645
vn 0.9375 -0.3404 0.0716
vn -0.0039 -0.9735 -0.2287
vn 0.0014 -0.9759 -0.2181
vn 0.0487 -0.9928 -0.1092
vn 0.1792 -0.9838 0.0047
vn -0.3790 0.8154 -0.4376
vn -0.0020 0.8632 -0.5049
vn -0.1902 0.8286 -0.5266
vn 0.0706 0.8858 -0.4587
vn -0.0316 0.8091 -0.5868
vn 0.0255 0.0836 -0.9962
vn -0.8602 0.0245 -0.5094
vn -0.8144 0.1719 -0.5542
vn -0.1958 0.1015 -0.9754
vn 0.8693 0.0582 -0.4909
vn 0.3310 0.1053 -0.9377
vn 0.0259 0.0965 -0.9950
vn -0.0026 0.1110 -0.9938
vn -0.8041 0.0750 -0.5898
vn -0.1280 0.1096 -0.9857
vn 0.8863 0.0421 -0.4611
vn 0.6975 0.7166 -0.0004
vn 0.0222 0.7675 0.6407
vn 0.0125 0.8070 0.5904
vn -0.0040 0.8123 0.5833
vn -0.0238 0.7986 0.6014
vn -0.1128 0.8837 0.4543
vn 0.0624 0.8847 0.4620
vn -0.1826 0.7714 0.6096
vn 0.6622 0.3638 -0.6551
vn 0.7990 0.3117 -0.5143
vn -0.5275 0.4353 -0.7295
vn -0.0060 0.5568 -0.8306
vn 0.7358 0.3821 -0.5591
vn -0.0207 0.2845 -0.9585
vn -0.7184 0.2371 0.6540
vn 0.3727 0.2543 0.8924
vn -0.7405 -0.0065 0.6720
vn -0.7106 0.0137 0.7035
vn -0.2276 0.4564 0.8602
vn 0.0023 0.5561 0.8311
vn 0.0032 0.5544 0.8322
vn 0.7447 0.3784 0.5497
vn -0.0133 0.4016 0.9157
vn -0.9990 0.0315 0.0321
vn -0.9653 0.0551 0.2553
vn -0.9991 0.0077 -0.0425
vn -0.0636 0.9956 -0.0692
vn 0.4798 0.8101 0.3370
vn 0.9996 0.0083 -0.0288
vn 0.9915 0.0667 0.1113
vn -0.6494 0.3051 0.6965
vn -0.4983 -0.6066 0.6195
vn 0.0852 -0.6622 0.7444
vn -0.0487 -0.8999 0.4333
vn 0.0157 -0.6855 0.7279
vn 0.5970 -0.0958 0.7965
vn 0.0302 -0.8340 0.5509
vn 0.8228 0.0510 -0.5660
vn -0.0014 -0.5806 -0.8142
vn 0.0089 -0.5625 -0.8267
vn -0.4448 0.2284 -0.8660
vn -0.1162 -0.6186 -0.7771
vn 0.5947 -0.7977 0.0997
vn -0.7697 -0.6091 0.1912
vn -0.6995 -0.6982 -0.1523
vn 0.7972 -0.6037 -0.0000
vn 0.4973 -0.8149 0.2977
vn 0.0136 -0.9264 -0.3764
vn -0.0544 0.5642 -0.8238
vn -0.1070 0.3966 -0.9117
vn 0.1215 0.4745 -0.8718
vn -0.0550 0.4465 -0.8931
vn 0.0123 0.1616 -0.9868
vn 0.1379 0.3580 -0.9235
vn 0.0184 0.3344 -0.9423
vn -0.0444 0.2409 -0.9695
vn -0.2596 0.1215 -0.9581
vn -0.0051 0.1078 -0.9942
vn 0.3197 0.2501 -0.9139
vn 0.0093 0.3102 -0.9506
vn 0.0023 0.3241 -0.9460
vn -0.0020 0.3263 -0.9453
vn 0.0301 0.9995 0.0098
vn -0.1320 0.9912 0.0051
vn 0.2840 0.4994 -0.8185
vn 0.0063 0.5292 -0.8485
vn -0.0463 0.5166 -0.8549
vn 0.1231 0.5087 -0.8521
vn 0.0071 0.2532 -0.9674
vn 0.0651 0.3684 -0.9274
vn -0.0381 0.3669 0.9295
vn -0.0057 0.3543 0.9351
vn 0.0002 0.2392 0.9710
vn -0.2490 0.2076 0.9460
vn -0.2503 0.1345 0.9588
vn -0.0373 0.1938 0.9803
vn -0.0170 0.2251 0.9742
vn -0.0178 0.4161 0.9091
vn -0.0002 0.3794 0.9252
vn 0.0869 0.3705 0.9248
vn -0.2130 0.5761 0.7892
vn -0.0105 0.5530 0.8331
vn 0.1993 0.5562 0.8068
vn -0.4176 0.4941 0.7626
vn -0.0540 0.4365 0.8981
vn -0.9679 0.0752 0.2396
vn -0.9804 0.1124 0.1616
vn -0.9036 0.2378 -0.3564
vn -0.9902 0.0578 0.1271
vn -0.9817 0.0905 0.1673
vn -0.0306 0.9995 -0.0077
vn -0.9998 -0.0208 -0.0073
vn 0.0242 0.9941 -0.1059
vn 0.0187 0.9994 -0.0294
vn 0.1658 0.9496 -0.2662
vn 0.8967 0.1470 -0.4175
vn 0.1418 -0.9899 -0.0075
vn 0.9062 0.1835 0.3809
vn 0.9209 0.0949 0.3780
vn 0.9998 0.0215 -0.0041
vn 0.9882 0.1026 0.1141
vn 0.9861 0.1100 -0.1247
vn 0.9974 0.0464 0.0559
vn -0.2502 -0.0822 0.9647
vn -0.0216 -0.0067 0.9997
vn 0.0963 0.3088 0.9462
vn 0.1871 0.1241 0.9745
vn -0.0552 -0.2959 0.9536
vn -0.0798 -0.1630 0.9834
vn -0.0174 0.0832 0.9964
vn 0.0095 0.2548 -0.9669
vn 0.1643 0.0360 -0.9858
vn -0.0053 0.2420 -0.9703
vn -0.9836 -0.1793 0.0209
vn -0.8922 -0.1188 -0.4358
vn 0.9998 -0.0124 0.0159
vn 0.9619 -0.2466 -0.1182
vn 0.9922 -0.1241 0.0145
vn 0.8897 -0.2883 0.3540
vn -0.1908 -0.9816 0.0061
vn -0.1011 -0.9944 -0.0302
vn -0.1690 -0.9423 -0.2890
vn 0.0169 -0.9930 0.1166
vn -0.0083 -0.9945 -0.1048
vn 0.0060 -0.9661 -0.2583
vn -0.0080 -0.9826 -0.1857
vn 0.9992 0.0405 0.0074
vn -0.0002 0.2547 -0.9670
vn 0.1877 -0.9054 -0.3809
vn -0.0146 0.2183 0.9758
vn -0.3503 0.8757 0.3324
vn -0.1485 0.9741 -0.1704
vn 0.2524 0.8734 -0.4165
vn -0.2101 0.9114 -0.3540
vn -0.9557 0.2326 0.1805
vn 0.3075 0.0909 -0.9472
vn -0.1968 0.9694 0.1470
vn 0.1813 0.4955 -0.8495
vn 0.0005 0.3636 -0.9315
vn -0.0084 0.2278 0.9737
vn -0.4512 0.5051 0.7357
vn -0.2687 0.3735 0.8878
vn -0.0568 0.3285 0.9428
vn 0.1994 0.3279 0.9234
vn -0.9911 -0.0029 0.1333
vn -0.9832 -0.0125 0.1822
vn -0.8900 0.4335 -0.1411
vn -0.0362 0.9984 -0.0430
vn 0.9988 0.0195 -0.0454
vn 0.1937 -0.3383 0.9209
vn 0.0964 0.2681 -0.9585
vn -0.1462 0.0047 -0.9892
vn -0.0761 0.2686 -0.9602
vn -0.0806 0.0716 -0.9942
vn -0.9961 -0.0881 0.0100
vn -0.3223 -0.9432 0.0807
vn -0.0213 -0.9614 -0.2744
vn 0.0079 -0.9998 0.0160
vn -0.0030 -1.0000 0.0045
vn 0.0913 -0.9836 0.1554
vn 0.4947 -0.8556 -0.1524
vt 0.921539 0.007688
vt 0.930332 0.002998
vt 0.933036 0.007972
vt 0.860064 0.010161
vt 0.846244 0.011449
vt 0.848669 0.007428
vt 0.915448 0.018133
vt 0.907648 0.019231
vt 0.907085 0.015947
vt 0.915267 0.015003
vt 0.859931 0.018022
vt 0.868127 0.018167
vt 0.867936 0.021016
vt 0.859903 0.020874
vt 0.876771 0.011129
vt 0.876638 0.014916
vt 0.868213 0.014552
vt 0.868407 0.010836
vt 0.914761 0.011711
vt 0.914433 0.008362
vt 0.922148 0.011342
vt 0.934311 0.014405
vt 0.922409 0.014876
vt 0.859936 0.014183
vt 0.846537 0.016062
vt 0.876585 0.018681
vt 0.888388 0.020571
vt 0.885196 0.024267
vt 0.876229 0.021388
vt 0.850292 0.023982
vt 0.847456 0.020778
vt 0.860680 0.006285
vt 0.906345 0.008755
vt 0.906499 0.006172
vt 0.914410 0.005808
vt 0.898942 0.024315
vt 0.895031 0.018778
vt 0.922064 0.018238
vt 0.906504 0.012272
vt 0.921109 0.004947
vt 0.894227 0.008259
vt 0.896406 0.004514
vt 0.892467 0.012866
vt 0.931585 0.019354
vt 0.887116 0.009879
vt 0.888447 0.015635
vt 0.868833 0.007218
vt 0.769440 0.693627
vt 0.763962 0.679792
vt 0.772435 0.683282
vt 0.755426 0.656834
vt 0.718871 0.675382
vt 0.758941 0.222024
vt 0.765581 0.327903
vt 0.669577 0.134256
vt 0.764952 0.209216
vt 0.754153 0.191020
vt 0.767974 0.191388
vt 0.768014 0.163229
vt 0.769978 0.229960
vt 0.776396 0.185509
vt 0.775349 0.163112
vt 0.764872 0.109778
vt 0.772640 0.108935
vt 0.771478 0.129244
vt 0.747331 0.111975
vt 0.753597 0.032456
vt 0.661447 0.687386
vt 0.680750 0.661745
vt 0.714899 0.005689
vt 0.679006 0.019553
vt 0.689911 0.006484
vt 0.622405 0.672507
vt 0.611772 0.690440
vt 0.667216 0.322916
vt 0.562833 0.257367
vt 0.567602 0.690029
vt 0.505668 0.689440
vt 0.449868 0.676329
vt 0.507114 0.579134
vt 0.561579 0.397010
vt 0.669222 0.507217
vt 0.565865 0.579604
vt 0.505611 0.253305
vt 0.561579 0.397010
vt 0.505117 0.391317
vt 0.488702 0.093467
vt 0.562436 0.055366
vt 0.562833 0.257367
vt 0.562436 0.055366
vt 0.604251 0.022699
vt 0.560264 0.013705
vt 0.997525 0.843317
vt 0.997749 0.851943
vt 0.989404 0.857983
vt 0.965755 0.753356
vt 0.994398 0.671010
vt 0.965189 0.777313
vt 0.951390 0.759221
vt 0.962607 0.755951
vt 0.981477 0.338088
vt 0.990086 0.351088
vt 0.965407 0.344819
vt 0.968026 0.287975
vt 0.980179 0.286657
vt 0.979245 0.320066
vt 0.968091 0.255563
vt 0.941264 0.218630
vt 0.995677 0.218957
vt 0.962393 0.282692
vt 0.947378 0.288267
vt 0.937371 0.269837
vt 0.980132 0.286625
vt 0.988189 0.192174
vt 0.792092 0.503493
vt 0.813095 0.497490
vt 0.802575 0.523080
vt 0.970599 0.173394
vt 0.996599 0.179963
vt 0.381619 0.692188
vt 0.362101 0.695946
vt 0.371360 0.686401
vt 0.545989 0.707062
vt 0.535199 0.681416
vt 0.567602 0.690030
vt 0.461277 0.704057
vt 0.498307 0.707568
vt 0.476179 0.022326
vt 0.448256 0.022704
vt 0.419353 0.557757
vt 0.419881 0.674325
vt 0.413526 0.242632
vt 0.420075 0.294210
vt 0.414027 0.209047
vt 0.419027 0.379564
vt 0.404541 0.300044
vt 0.406780 0.134704
vt 0.418843 0.194155
vt 0.420711 0.025372
vt 0.311008 0.699919
vt 0.381619 0.692189
vt 0.384653 0.676260
vt 0.374365 0.653808
vt 0.300360 0.689158
vt 0.266658 0.508538
vt 0.374999 0.553561
vt 0.382342 0.521278
vt 0.386663 0.546449
vt 0.388376 0.523360
vt 0.371943 0.330051
vt 0.390107 0.330917
vt 0.375995 0.455101
vt 0.266959 0.205310
vt 0.369377 0.031973
vt 0.369750 0.203147
vt 0.244573 0.689891
vt 0.238376 0.676383
vt 0.273766 0.701615
vt 0.316362 0.027942
vt 0.355976 0.014626
vt 0.369377 0.031973
vt 0.308887 0.012176
vt 0.246015 0.025812
vt 0.199486 0.654245
vt 0.192828 0.672294
vt 0.176290 0.645163
vt 0.213068 0.687279
vt 0.173172 0.686780
vt 0.125180 0.424025
vt 0.152840 0.660393
vt 0.179165 0.509040
vt 0.121322 0.209149
vt 0.178911 0.203617
vt 0.123526 0.085618
vt 0.128309 0.017457
vt 0.131300 0.004006
vt 0.152921 0.002744
vt 0.081365 0.698372
vt 0.092444 0.689938
vt 0.114087 0.701212
vt 0.072421 0.665180
vt 0.125180 0.424025
vt 0.067984 0.015825
vt 0.072421 0.665180
vt 0.049833 0.693874
vt 0.044420 0.676816
vt 0.046546 0.610605
vt 0.032893 0.451226
vt 0.023801 0.430335
vt 0.058093 0.397283
vt 0.032893 0.451226
vt 0.878141 0.639088
vt 0.804096 0.676545
vt 0.796390 0.631138
vt 0.859076 0.531717
vt 0.829453 0.493318
vt 0.839801 0.484942
vt 0.059223 0.952126
vt 0.100617 0.933928
vt 0.069111 0.953655
vt 0.113346 0.768225
vt 0.091008 0.757568
vt 0.095615 0.747320
vt 0.016984 0.970623
vt 0.011407 0.941677
vt 0.034033 0.968121
vt 0.823911 0.573143
vt 0.864337 0.567558
vt 0.786339 0.612552
vt 0.861677 0.556915
vt 0.849335 0.487999
vt 0.941264 0.218630
vt 0.947634 0.172132
vt 0.970599 0.173394
vt 0.980132 0.286625
vt 0.968259 0.282842
vt 0.961466 0.264674
vt 0.945634 0.381334
vt 0.933555 0.393711
vt 0.935462 0.374630
vt 0.945124 0.353853
vt 0.933654 0.452952
vt 0.960662 0.420178
vt 0.963785 0.667975
vt 0.932571 0.665005
vt 0.956414 0.262509
vt 0.861675 0.265388
vt 0.885874 0.294790
vt 0.841752 0.277693
vt 0.893620 0.265685
vt 0.900308 0.293683
vt 0.897170 0.341263
vt 0.908929 0.340406
vt 0.915916 0.405778
vt 0.942529 0.110926
vt 0.945703 0.143661
vt 0.891311 0.206389
vt 0.920717 0.079452
vt 0.798702 0.003429
vt 0.838982 0.022912
vt 0.823075 0.031122
vt 0.808090 0.202370
vt 0.876749 0.055791
vt 0.822625 0.243587
vt 0.831085 0.264135
vt 0.856477 0.232090
vt 0.883043 0.717218
vt 0.757575 0.734863
vt 0.781070 0.713663
vt 0.016561 0.452852
vt 0.032893 0.451226
vt 0.014912 0.572685
vt 0.003287 0.233480
vt 0.024934 0.289456
vt 0.005379 0.329193
vt 0.020792 0.129640
vt 0.003241 0.114005
vt 0.029304 0.020751
vt 0.038633 0.134553
vt 0.005119 0.040520
vt 0.426388 0.694778
vt 0.412027 0.693759
vt 0.426388 0.694778
vt 0.419881 0.674325
vt 0.406893 0.191511
vt 0.396881 0.205248
vt 0.404704 0.027841
vt 0.394880 0.029804
vt 0.396541 0.016286
vt 0.009795 0.756166
vt 0.016267 0.730588
vt 0.056503 0.733774
vt 0.010847 0.836126
vt 0.005996 0.961519
vt 0.010517 0.977666
vt 0.797281 0.240082
vt 0.783125 0.192396
vt 0.784359 0.116467
vt 0.786029 0.259127
vt 0.805972 0.261432
vt 0.789865 0.273301
vt 0.040684 0.712078
vt 0.033457 0.718536
vt 0.023145 0.707736
vt 0.783215 0.048609
vt 0.792815 0.053767
vt 0.901898 0.718704
vt 0.910052 0.755551
vt 0.918589 0.856013
vt 0.905952 0.956519
vt 0.907787 0.855851
vt 0.910207 0.984683
vt 0.915533 0.992344
vt 0.901912 0.994420
vt 0.859855 0.988024
vt 0.789938 0.997239
vt 0.652011 0.861583
vt 0.907787 0.855851
vt 0.715802 0.974754
vt 0.768408 0.987318
vt 0.743111 0.994511
vt 0.725569 0.993688
vt 0.714916 0.994519
vt 0.669127 0.711749
vt 0.630322 0.719336
vt 0.583415 0.719543
vt 0.398819 0.986168
vt 0.403753 0.861831
vt 0.497822 0.987875
vt 0.451451 0.712563
vt 0.403753 0.861831
vt 0.331690 0.713576
vt 0.401614 0.995603
vt 0.494444 0.996286
vt 0.176940 0.002272
vt 0.181820 0.026205
vt 0.153504 0.010150
vt 0.256856 0.971620
vt 0.230835 0.934512
vt 0.231343 0.857026
vt 0.232241 0.732692
vt 0.241613 0.738696
vt 0.229320 0.751486
vt 0.225429 0.798754
vt 0.221644 0.874710
vt 0.241613 0.738696
vt 0.239770 0.988128
vt 0.287559 0.988525
vt 0.946145 0.318878
vt 0.961895 0.288361
vt 0.968078 0.255579
vt 0.959223 0.257524
vt 0.963338 0.260556
vt 0.964508 0.748868
vt 0.760086 0.131187
vt 0.763962 0.679792
vt 0.750394 0.698495
vt 0.779523 0.290012
vt 0.780191 0.230512
vt 0.758972 0.009446
vt 0.734153 0.013586
vt 0.042409 0.351864
vt 0.024934 0.289456
vt 0.990269 0.311115
vt 0.989676 0.327586
vt 0.991800 0.542937
vt 0.031522 0.693237
vt 0.017755 0.676630
vt 0.831721 0.273798
vt 0.842633 0.265737
vt 0.013537 0.029536
vt 0.794857 0.012895
vt 0.715802 0.974754
vt 0.610488 0.988921
vt 0.711711 0.703599
vt 0.669222 0.507217
vt 0.762263 0.506616
vt 0.773961 0.502623
vt 0.775860 0.211996
vt 0.780191 0.230512
vt 0.775860 0.211996
vt 0.747331 0.111975
vt 0.764851 0.090900
vt 0.769941 0.012680
vt 0.772245 0.058713
vt 0.769841 0.631501
vt 0.679053 0.005260
vt 0.947742 0.732668
vt 0.935125 0.794618
vt 0.606779 0.003032
vt 0.965189 0.777313
vt 0.996459 0.795976
vt 0.974322 0.857801
vt 0.969044 0.864442
vt 0.959058 0.753988
vt 0.989460 0.421340
vt 0.990277 0.311113
vt 0.968026 0.287975
vt 0.980104 0.286605
vt 0.448256 0.022704
vt 0.461638 0.011599
vt 0.498094 0.007699
vt 0.418843 0.194155
vt 0.387619 0.653978
vt 0.384653 0.676260
vt 0.386266 0.562784
vt 0.389651 0.453288
vt 0.883418 0.264381
vt 0.238990 0.700813
vt 0.244573 0.689891
vt 0.252631 0.702585
vt 0.244573 0.689891
vt 0.244108 0.006001
vt 0.246015 0.025812
vt 0.203236 0.003878
vt 0.152840 0.660393
vt 0.146347 0.694390
vt 0.118036 0.683771
vt 0.118036 0.683771
vt 0.013045 0.331817
vt 0.041460 0.021174
vt 0.795500 0.566190
vt 0.782631 0.592197
vt 0.787482 0.555054
vt 0.143081 0.792918
vt 0.129437 0.895280
vt 0.158271 0.812138
vt 0.159179 0.843395
vt 0.152565 0.878230
vt 0.059223 0.952126
vt 0.097426 0.926831
vt 0.067730 0.729400
vt 0.091008 0.757568
vt 0.822429 0.477995
vt 0.845344 0.477263
vt 0.939747 0.846632
vt 0.935853 0.325118
vt 0.938299 0.290625
vt 0.935652 0.347831
vt 0.948478 0.727606
vt 0.963785 0.667975
vt 0.949035 0.853381
vt 0.941194 0.857420
vt 0.837901 0.305581
vt 0.829539 0.326930
vt 0.831503 0.287256
vt 0.885874 0.294790
vt 0.842441 0.376893
vt 0.905990 0.405905
vt 0.833162 0.434006
vt 0.921906 0.446780
vt 0.941253 0.177012
vt 0.917806 0.203281
vt 0.891311 0.206389
vt 0.899463 0.215159
vt 0.884282 0.227177
vt 0.870579 0.043987
vt 0.016561 0.452852
vt 0.023801 0.430335
vt 0.023801 0.430335
vt 0.013122 0.375490
vt 0.023801 0.430335
vt 0.008060 0.019265
vt 0.025120 0.011340
vt 0.408405 0.702298
vt 0.404163 0.692405
vt 0.399260 0.652855
vt 0.399260 0.652855
vt 0.951264 0.759359
vt 0.397519 0.527703
vt 0.397963 0.435421
vt 0.396601 0.321942
vt 0.419027 0.379564
vt 0.404916 0.218014
vt 0.394618 0.215698
vt 0.414027 0.209047
vt 0.002817 0.840753
vt 0.004474 0.735008
vt 0.785196 0.239869
vt 0.797281 0.240082
vt 0.822625 0.243587
vt 0.805972 0.261432
vt 0.808205 0.271604
vt 0.789905 0.002553
vt 0.920551 0.976613
vt 0.915533 0.992344
vt 0.859855 0.988024
vt 0.497822 0.987875
vt 0.257963 0.716961
vt 0.331690 0.713576
vt 0.229234 0.964736
vt 0.221937 0.942460
vt 0.230835 0.934511
vt 0.224555 0.989408
vt 0.234841 0.993506
vt 0.952997 0.733120
vt 0.960349 0.748289
vt 0.953818 0.728477
vt 0.832369 0.267483
vt 0.819360 0.439200
vt 0.833162 0.434006
vt 0.847425 0.463428
vt 0.877112 0.007408
vt 0.928124 0.023505
vt 0.769440 0.693627
vt 0.763618 0.695972
vt 0.658539 0.708987
vt 0.601651 0.711376
vt 0.819360 0.439200
vt 0.825542 0.381342
vt 0.545989 0.707062
vt 0.567602 0.690029
vt 0.567765 0.709994
vt 0.870138 0.679564
vt 0.885727 0.685702
vt 0.559846 0.002295
vt 0.997627 0.196205
vt 0.796339 0.484071
vt 0.912864 0.067274
vt 0.932262 0.078085
vt 0.529642 0.005573
vt 0.097426 0.926831
vt 0.126534 0.915857
vt 0.100617 0.933928
vt 0.444536 0.013863
vt 0.420711 0.025372
vt 0.415985 0.015630
vt 0.420711 0.025372
vt 0.055809 0.965445
vt 0.385220 0.075629
vt 0.388235 0.201837
vt 0.384189 0.020027
vt 0.385015 0.028368
vt 0.781224 0.613404
vt 0.783648 0.682116
vt 0.777591 0.671877
vt 0.796390 0.631138
vt 0.194401 0.703091
vt 0.180614 0.704084
vt 0.913629 0.467972
vt 0.924785 0.473281
vt 0.153504 0.010150
vt 0.112211 0.002809
vt 0.048228 0.004402
vt 0.126534 0.915857
vt 0.138977 0.702839
vt 0.034033 0.968121
vt 0.056169 0.965318
vt 0.056503 0.733774
vt 0.835188 0.673655
vt 0.962393 0.282692
vt 0.937371 0.269833
vt 0.941194 0.857420
vt 0.950711 0.861664
vt 0.950664 0.861667
vt 0.936793 0.188393
vt 0.880437 0.461478
vt 0.031522 0.693237
vt 0.016462 0.694495
vt 0.017755 0.676630
vt 0.009423 0.685811
vt 0.004302 0.666988
vt 0.003422 0.564701
vt 0.007599 0.413024
vt 0.007915 0.452585
vt 0.006354 0.366088
vt 0.013045 0.331817
vt 0.029304 0.020751
vt 0.416783 0.703553
vt 0.419027 0.379564
vt 0.396857 0.205236
vt 0.396902 0.205260
vt 0.396082 0.187802
vt 0.396102 0.141079
vt 0.911655 0.723844
vt 0.910052 0.755551
vt 0.917024 0.750302
vt 0.033457 0.718536
vt 0.008249 0.708320
vt 0.030146 0.978107
vt 0.034033 0.968121
vt 0.608466 0.996594
vt 0.275116 0.995847
vt 0.601651 0.711376
vt 0.444360 0.014076
vt 0.116499 0.761280
vt 0.151535 0.784185
vt 0.416783 0.703553
vt 0.426389 0.694778
vt 0.461277 0.704057
vt 0.814246 0.473307
vt 0.798702 0.003429
vt 0.997627 0.196205
vt 0.995521 0.219012
vt 0.792092 0.503493
vt 0.498094 0.007699
vt 0.387621 0.654000
vt 0.780969 0.627090
vt 0.776931 0.685744
vt 0.143081 0.792918
vt 0.154269 0.791309
vt 0.154269 0.791309
vt 0.146967 0.893955
vt 0.951147 0.759433
vt 0.547083 0.714126
vt 0.415985 0.015630
vt 0.547083 0.714126
vt 0.236482 0.718790
vt 0.404704 0.027841
vt 0.886295 0.004720
vt 0.232241 0.732692
vt 0.058093 0.397283
vt 0.851035 0.001952
s 1
usemtl concrete_road_barrier
f 10/1/10 7/2/7 5/3/5
f 19/4/19 14/5/14 3/6/3
f 24/7/24 23/8/23 31/9/31 30/10/30
f 22/11/22 32/12/32 15/13/15 20/14/20
f 34/15/34 33/16/33 17/17/17 16/18/16
f 27/19/27 11/20/11 10/1/10 26/21/26
f 13/22/13 29/23/29 26/21/26
f 18/24/18 1/25/1 14/5/14
f 21/26/21 6/27/6 145/28/145 8/29/8
f 20/14/20 4/30/4 305/31/305 22/11/22
f 17/17/17 32/12/32 22/11/22 18/24/18
f 32/12/32 17/17/17 33/16/33 21/26/21
f 32/12/32 21/26/21 8/29/8 15/13/15
f 3/6/3 20/32/20 19/4/19
f 1/25/1 22/11/22 305/31/305
f 5/3/5 13/22/13 26/21/26
f 11/20/11 12/33/12 23/34/23 24/35/24
f 23/8/23 9/36/9 96/37/96 31/9/31
f 25/38/25 24/7/24 30/10/30 29/23/29
f 31/9/31 28/39/28 27/19/27 30/10/30
f 10/1/10 11/20/11 24/35/24 25/40/25
f 30/10/30 27/19/27 26/21/26 29/23/29
f 12/33/12 142/41/142 9/42/9 23/34/23
f 28/39/28 12/33/12 11/20/11 27/19/27
f 142/41/142 12/33/12 28/39/28 2/43/2
f 13/22/13 159/44/159 29/23/29
f 33/16/33 307/45/307 308/46/308
f 16/18/16 19/4/19 20/32/20 15/47/15
f 35/48/35 116/49/116 53/50/53
f 117/51/117 116/49/116 62/52/62
f 119/53/119 118/54/118 171/55/171
f 223/56/223 227/57/227 225/58/225
f 226/59/226 225/58/225 227/57/227
f 223/56/223 224/60/224 119/53/119
f 227/57/227 119/53/119 171/55/171
f 119/53/119 227/57/227 223/56/223
f 162/61/162 225/58/225 57/62/57
f 228/63/228 59/64/59 58/65/58
f 121/66/121 171/55/171 230/67/230
f 62/52/62 310/68/310 164/69/164
f 66/70/66 167/71/167 165/72/165
f 164/69/164 310/68/310 170/73/170
f 310/68/310 169/74/169 170/73/170
f 232/75/232 236/76/236 171/55/171
f 170/73/170 169/74/169 233/77/233
f 239/78/239 242/79/242 67/80/67
f 235/81/235 63/82/63 234/83/234
f 68/84/68 235/85/235 240/86/240
f 236/76/236 232/75/232 235/85/235
f 127/87/127 122/88/122 236/89/236
f 122/90/122 173/91/173 171/55/171
f 123/92/123 122/88/122 127/87/127
f 176/93/176 39/94/39 202/95/202
f 1/96/1 177/97/177 268/98/268
f 144/99/144 14/100/14 268/98/268
f 238/101/238 41/102/41 322/103/322
f 5/104/5 126/105/126 125/106/125
f 97/107/97 163/108/163 70/109/70
f 159/110/159 143/111/143 59/112/59
f 97/107/97 70/109/70 126/113/126
f 311/114/311 70/109/70 163/108/163
f 189/115/189 309/116/309 260/117/260
f 71/118/71 42/119/42 311/114/311
f 42/120/42 189/121/189 129/122/129
f 183/123/183 239/78/239 312/124/312
f 234/83/234 233/125/233 312/124/312
f 234/83/234 312/124/312 67/80/67
f 187/126/187 242/79/242 184/127/184
f 241/128/241 127/87/127 186/129/186
f 285/130/285 67/80/67 325/131/325
f 67/80/67 242/79/242 325/131/325
f 188/132/188 68/84/68 313/133/313
f 188/132/188 327/134/327 68/84/68
f 243/135/243 150/136/150 313/133/313
f 287/137/287 127/87/127 244/138/244
f 186/129/186 127/87/127 128/139/128
f 129/122/129 189/121/189 77/140/77
f 42/141/42 129/122/129 182/142/182
f 245/143/245 248/144/248 76/145/76
f 130/146/130 76/145/76 246/147/246
f 180/148/180 130/146/130 41/149/41
f 131/150/131 178/151/178 314/152/314
f 137/153/137 132/154/132 247/155/247
f 248/144/248 249/156/249 250/157/250
f 79/158/79 248/144/248 77/140/77
f 129/122/129 77/140/77 248/144/248
f 248/144/248 250/157/250 76/145/76
f 133/159/133 190/160/190 132/161/132
f 132/161/132 137/153/137 133/159/133
f 78/162/78 133/159/133 134/163/134
f 304/164/304 251/165/251 252/166/252
f 251/165/251 304/164/304 135/167/135
f 193/168/193 252/166/252 251/165/251
f 250/157/250 135/167/135 304/164/304
f 256/169/256 252/166/252 138/170/138
f 252/166/252 136/171/136 304/164/304
f 194/172/194 253/173/253 256/169/256
f 253/173/253 194/172/194 195/174/195
f 257/175/257 196/176/196 83/177/83
f 46/178/46 258/179/258 84/180/84
f 85/181/85 256/182/256 258/179/258
f 87/183/87 257/175/257 195/174/195
f 85/184/85 205/185/205 316/186/316
f 197/187/197 256/182/256 85/181/85
f 256/182/256 197/187/197 280/188/280
f 281/189/281 259/190/259 280/191/280
f 172/192/172 198/193/198 319/194/319
f 66/195/66 141/196/141 321/197/321
f 262/198/262 185/199/185 73/200/73
f 261/201/261 263/202/263 84/203/84
f 289/204/289 329/205/329 153/206/153
f 266/207/266 166/208/166 320/209/320
f 266/207/266 165/210/165 166/208/166
f 64/211/64 66/195/66 321/197/321
f 163/212/163 36/213/36 71/214/71
f 126/215/126 7/216/7 9/217/9
f 306/218/306 56/219/56 161/220/161
f 306/218/306 267/221/267 322/103/322
f 160/222/160 306/218/306 265/223/265
f 160/222/160 124/224/124 55/225/55
f 159/110/159 59/112/59 96/226/96
f 175/227/175 272/228/272 270/229/270
f 272/228/272 39/230/39 190/231/190
f 273/232/273 78/233/78 80/234/80
f 203/235/203 301/236/301 275/237/275
f 100/238/100 203/235/203 275/237/275
f 212/239/212 187/240/187 101/241/101
f 292/242/292 276/243/276 146/244/146
f 89/245/89 146/244/146 277/246/277
f 48/247/48 297/248/297 103/249/103
f 147/250/147 280/251/280 279/252/279
f 105/253/105 284/254/284 49/255/49
f 88/256/88 105/253/105 209/257/209
f 148/258/148 140/259/140 88/256/88
f 211/260/211 88/256/88 209/257/209
f 74/261/74 149/262/149 325/131/325
f 242/79/242 74/263/74 325/264/325
f 286/265/286 244/138/244 109/266/109
f 328/267/328 127/87/127 287/137/287
f 216/268/216 52/269/52 328/267/328
f 288/270/288 152/271/152 264/272/264
f 151/273/151 288/270/288 264/272/264
f 219/274/219 289/204/289 52/275/52
f 154/276/154 113/277/113 292/242/292
f 220/278/220 292/242/292 113/277/113
f 292/242/292 220/278/220 101/241/101
f 221/279/221 293/280/293 50/281/50
f 205/282/205 94/283/94 102/284/102
f 115/285/115 290/286/290 220/278/220
f 48/247/48 206/287/206 330/288/330
f 114/289/114 295/290/295 294/291/294
f 296/292/296 52/293/52 216/294/216
f 331/295/331 216/294/216 112/296/112
f 332/297/332 294/298/294 298/299/298
f 299/300/299 112/296/112 111/301/111
f 298/299/298 109/302/109 110/303/110
f 103/249/103 297/248/297 207/304/207
f 104/305/104 332/297/332 208/306/208
f 300/307/300 333/308/333 156/309/156
f 105/310/105 333/311/333 209/312/209
f 213/313/213 300/307/300 214/314/214
f 44/315/44 254/316/254 139/317/139
f 157/318/157 158/319/158 271/320/271
f 221/321/221 334/322/334 217/323/217
f 113/324/113 271/320/271 220/325/220
f 334/326/334 271/320/271 113/324/113
f 303/327/303 157/318/157 222/328/222
f 5/104/5 201/329/201 13/330/13
f 97/331/97 2/332/2 163/108/163
f 126/113/126 142/333/142 97/331/97
f 305/334/305 177/97/177 1/96/1
f 125/106/125 322/103/322 5/104/5
f 322/103/322 265/223/265 306/218/306
f 226/59/226 171/55/171 120/335/120
f 116/336/116 60/337/60 62/52/62
f 160/338/160 224/60/224 56/339/56
f 232/75/232 171/55/171 118/54/118
f 64/340/64 230/67/230 231/341/231
f 140/259/140 317/342/317 284/343/284
f 125/106/125 181/344/181 180/345/180
f 177/97/177 124/224/124 178/346/178
f 316/186/316 102/347/102 278/348/278
f 61/349/61 69/350/69 270/229/270
f 324/351/324 148/258/148 88/256/88
f 151/273/151 264/272/264 329/205/329
f 291/352/291 212/239/212 101/241/101
f 298/299/298 294/298/294 299/300/299
f 332/297/332 298/353/298 155/354/155
f 65/355/65 62/52/62 60/337/60
f 164/69/164 117/51/117 62/52/62
f 164/69/164 63/356/63 117/51/117
f 117/51/117 63/356/63 302/357/302
f 63/356/63 118/54/118 302/357/302
f 232/75/232 118/54/118 63/356/63
f 302/357/302 160/338/160 55/358/55
f 118/54/118 119/53/119 224/60/224
f 160/338/160 118/54/118 224/60/224
f 161/359/161 56/360/56 223/56/223
f 161/361/161 225/58/225 162/61/162
f 226/59/226 57/62/57 225/58/225
f 120/335/120 121/362/121 228/63/228
f 229/363/229 228/63/228 121/362/121
f 171/55/171 121/362/121 120/335/120
f 59/64/59 228/63/228 229/363/229
f 226/59/226 227/57/227 171/55/171
f 230/67/230 229/363/229 121/66/121
f 64/340/64 36/364/36 163/365/163
f 62/52/62 65/355/65 310/68/310
f 302/357/302 55/358/55 54/366/54
f 164/69/164 170/73/170 234/83/234
f 167/71/167 231/341/231 171/55/171
f 171/55/171 231/341/231 230/67/230
f 167/71/167 166/367/166 165/72/165
f 63/82/63 164/69/164 234/83/234
f 307/368/307 54/369/54 55/225/55
f 122/88/122 171/55/171 236/76/236
f 173/91/173 172/370/172 167/71/167
f 235/85/235 67/80/67 240/86/240
f 235/85/235 234/83/234 67/80/67
f 235/81/235 232/75/232 63/82/63
f 68/84/68 236/89/236 235/85/235
f 68/84/68 127/87/127 236/89/236
f 123/92/123 173/91/173 122/90/122
f 123/92/123 172/370/172 173/91/173
f 268/371/268 40/372/40 237/373/237
f 237/373/237 202/95/202 175/374/175
f 40/372/40 176/93/176 237/373/237
f 144/99/144 3/375/3 14/100/14
f 131/150/131 247/155/247 178/151/178
f 179/376/179 265/223/265 322/103/322
f 10/1/10 25/40/25 7/2/7
f 181/377/181 126/105/126 70/109/70
f 5/378/5 7/216/7 126/379/126
f 67/80/67 312/124/312 239/78/239
f 16/18/16 17/17/17 18/24/18 19/4/19
f 68/84/68 244/138/244 127/87/127
f 240/86/240 67/80/67 285/130/285
f 285/130/285 243/135/243 240/86/240
f 240/86/240 243/135/243 68/84/68
f 186/380/186 73/381/73 241/128/241
f 73/381/73 185/382/185 241/128/241
f 127/87/127 241/128/241 185/382/185
f 68/84/68 243/135/243 313/133/313
f 150/136/150 188/132/188 313/133/313
f 327/134/327 244/383/244 68/84/68
f 245/143/245 70/384/70 182/385/182
f 76/145/76 130/146/130 245/143/245
f 130/146/130 180/148/180 181/386/181
f 41/149/41 314/152/314 179/387/179
f 137/153/137 131/150/131 314/152/314
f 39/230/39 272/228/272 202/388/202
f 272/228/272 175/227/175 202/388/202
f 191/389/191 249/390/249 192/391/192
f 249/392/249 135/167/135 250/157/250
f 76/145/76 253/173/253 137/153/137
f 137/153/137 314/152/314 76/145/76
f 134/163/134 80/393/80 78/162/78
f 304/164/304 136/171/136 250/157/250
f 253/173/253 76/145/76 136/171/136
f 256/169/256 253/173/253 136/171/136
f 195/174/195 139/317/139 254/316/254
f 253/173/253 195/174/195 254/316/254
f 134/394/134 253/173/253 254/316/254
f 134/394/134 254/316/254 82/395/82
f 80/393/80 134/394/134 82/395/82
f 254/316/254 44/315/44 82/395/82
f 138/396/138 315/397/315 255/398/255
f 193/168/193 315/397/315 138/170/138
f 255/398/255 256/169/256 138/396/138
f 195/174/195 257/175/257 139/317/139
f 256/182/256 255/399/255 258/179/258
f 280/188/280 259/190/259 256/169/256
f 140/259/140 195/174/195 194/172/194
f 85/181/85 316/186/316 197/187/197
f 284/343/284 317/342/317 283/400/283
f 317/342/317 140/259/140 194/172/194
f 195/174/195 140/259/140 87/183/87
f 318/401/318 87/183/87 140/259/140
f 90/402/90 79/403/79 77/404/77
f 260/117/260 266/207/266 90/402/90
f 320/209/320 166/208/166 319/194/319
f 93/405/93 91/406/91 261/201/261
f 198/407/198 95/408/95 93/405/93
f 95/408/95 200/409/200 91/406/91
f 262/410/262 329/205/329 92/411/92
f 94/283/94 205/282/205 46/412/46
f 261/201/261 91/406/91 92/411/92
f 263/413/263 92/411/92 264/272/264
f 166/208/166 172/192/172 319/194/319
f 266/207/266 66/195/66 165/210/165
f 309/116/309 141/196/141 260/117/260
f 321/197/321 71/414/71 36/415/36
f 66/195/66 260/117/260 141/196/141
f 59/112/59 163/108/163 96/226/96
f 163/108/163 2/332/2 96/226/96
f 268/371/268 53/416/53 54/369/54
f 57/417/57 58/418/58 201/329/201
f 162/419/162 57/417/57 201/329/201
f 162/419/162 201/329/201 267/221/267
f 9/217/9 142/333/142 126/113/126
f 5/104/5 322/103/322 201/329/201
f 161/220/161 162/419/162 267/221/267
f 308/420/308 307/368/307 55/225/55
f 124/421/124 308/420/308 55/225/55
f 237/373/237 269/422/269 268/371/268
f 269/422/269 35/423/35 53/416/53
f 270/229/270 69/350/69 175/227/175
f 98/424/98 65/425/65 60/426/60
f 190/231/190 78/233/78 272/427/272
f 323/428/323 272/228/272 273/232/273
f 272/228/272 323/428/323 98/424/98
f 323/428/323 273/232/273 99/429/99
f 274/430/274 323/428/323 99/429/99
f 80/234/80 82/431/82 99/429/99
f 82/431/82 274/430/274 99/429/99
f 275/237/275 204/432/204 83/433/83
f 275/237/275 276/243/276 100/238/100
f 275/434/275 277/246/277 276/243/276
f 196/435/196 86/436/86 275/434/275
f 217/323/217 334/326/334 113/324/113
f 187/240/187 184/437/184 101/241/101
f 279/252/279 316/186/316 278/348/278
f 197/187/197 316/186/316 279/252/279
f 279/252/279 280/188/280 197/187/197
f 280/191/280 147/438/147 281/439/281
f 259/190/259 281/440/281 317/342/317
f 282/441/282 317/342/317 281/442/281
f 283/400/283 317/342/317 282/441/282
f 50/443/50 210/444/210 324/351/324
f 88/256/88 140/259/140 284/254/284
f 149/262/149 51/445/51 106/446/106
f 325/131/325 106/446/106 107/447/107
f 107/448/107 285/130/285 325/131/325
f 307/368/307 144/449/144 54/369/54
f 285/130/285 213/450/213 214/451/214
f 108/452/108 150/136/150 243/453/243
f 150/136/150 108/452/108 188/132/188
f 326/454/326 327/134/327 188/132/188
f 326/454/326 108/452/108 110/455/110
f 109/266/109 244/138/244 327/456/327
f 327/456/327 326/454/326 109/266/109
f 244/138/244 286/265/286 287/137/287
f 152/271/152 102/284/102 94/283/94
f 288/270/288 114/457/114 218/458/218
f 329/205/329 219/274/219 114/457/114
f 151/273/151 329/205/329 114/457/114
f 217/459/217 154/460/154 221/279/221
f 290/286/290 291/352/291 101/241/101
f 220/278/220 290/286/290 101/241/101
f 154/460/154 146/461/146 293/462/293
f 293/280/293 210/463/210 50/281/50
f 115/285/115 51/464/51 291/352/291
f 276/243/276 277/246/277 146/244/146
f 294/298/294 48/247/48 330/288/330
f 114/289/114 219/465/219 295/290/295
f 295/290/295 296/292/296 331/295/331
f 296/292/296 219/465/219 52/466/52
f 297/248/297 48/247/48 294/298/294
f 331/467/331 294/291/294 295/290/295
f 294/298/294 332/297/332 297/248/297
f 112/296/112 299/300/299 331/295/331
f 104/305/104 297/248/297 332/297/332
f 111/301/111 109/302/109 298/299/298
f 208/306/208 332/297/332 333/311/333
f 156/468/156 332/297/332 155/354/155
f 333/308/333 332/297/332 156/468/156
f 333/308/333 334/326/334 209/312/209
f 211/469/211 209/470/209 334/326/334
f 271/320/271 334/326/334 333/308/333
f 157/318/157 300/307/300 222/328/222
f 303/327/303 335/471/335 157/318/157
f 115/472/115 220/325/220 271/320/271
f 158/473/158 115/472/115 271/320/271
f 51/474/51 335/471/335 106/475/106
f 51/474/51 115/472/115 335/471/335
f 335/471/335 158/319/158 157/318/157
f 3/375/3 307/368/307 145/476/145 4/477/4
f 143/111/143 159/110/159 13/330/13
f 201/329/201 322/103/322 267/221/267
f 97/331/97 142/333/142 2/332/2
f 6/478/6 177/97/177 305/334/305
f 167/71/167 171/55/171 173/91/173
f 53/416/53 268/371/268 269/422/269
f 127/87/127 328/267/328 128/139/128
f 126/105/126 181/377/181 125/106/125
f 180/345/180 41/102/41 238/101/238
f 179/376/179 322/103/322 41/102/41
f 61/349/61 35/479/35 69/350/69
f 333/308/333 300/307/300 271/320/271
f 300/307/300 157/318/157 271/320/271
f 107/447/107 213/450/213 285/130/285
f 252/166/252 256/169/256 136/171/136
f 174/480/174 274/481/274 203/482/203
f 15/47/15 8/483/8 34/15/34 16/18/16
f 159/44/159 25/38/25 29/23/29
f 21/26/21 308/46/308 6/27/6
f 26/21/26 10/1/10 5/3/5
f 159/44/159 7/484/7 25/38/25
f 35/485/35 61/486/61 116/49/116
f 269/422/269 237/373/237 175/374/175
f 53/50/53 117/51/117 54/366/54
f 56/360/56 224/60/224 223/56/223
f 226/59/226 58/65/58 57/62/57
f 120/335/120 58/65/58 226/59/226
f 229/363/229 163/365/163 59/64/59
f 230/67/230 163/365/163 229/363/229
f 66/70/66 64/340/64 231/341/231
f 310/68/310 65/355/65 168/487/168
f 174/488/174 169/74/169 310/68/310
f 168/487/168 174/488/174 310/68/310
f 266/207/266 260/117/260 66/195/66
f 274/430/274 174/489/174 168/490/168
f 183/491/183 233/492/233 37/493/37
f 200/494/200 172/192/172 38/495/38
f 38/496/38 172/370/172 123/92/123
f 179/376/179 178/346/178 265/223/265
f 125/106/125 238/101/238 322/103/322
f 180/345/180 238/101/238 125/106/125
f 311/114/311 42/119/42 182/497/182
f 42/498/42 309/116/309 189/115/189
f 100/238/100 183/499/183 37/500/37
f 72/501/72 123/92/123 127/87/127
f 92/502/92 72/503/72 185/504/185
f 239/78/239 184/127/184 242/79/242
f 75/505/75 186/380/186 128/506/128
f 215/507/215 75/505/75 128/508/128
f 262/198/262 73/200/73 75/509/75
f 246/147/246 41/149/41 130/146/130
f 40/510/40 177/511/177 247/155/247
f 132/154/132 40/510/40 247/155/247
f 39/512/39 176/513/176 132/161/132
f 319/194/319 192/514/192 320/209/320
f 192/391/192 249/156/249 248/144/248
f 199/515/199 81/516/81 319/517/319
f 135/167/135 191/389/191 81/518/81
f 198/193/198 199/515/199 319/194/319
f 43/519/43 193/168/193 81/518/81
f 76/145/76 250/157/250 136/171/136
f 43/519/43 315/397/315 193/168/193
f 204/520/204 82/431/82 44/521/44
f 83/177/83 44/315/44 139/522/139
f 83/177/83 139/317/139 257/175/257
f 46/178/46 205/185/205 258/179/258
f 257/175/257 86/523/86 196/176/196
f 86/523/86 257/175/257 87/183/87
f 317/342/317 194/172/194 256/169/256
f 318/401/318 89/524/89 87/183/87
f 309/116/309 42/498/42 71/414/71
f 90/402/90 77/404/77 260/117/260
f 266/207/266 79/403/79 90/402/90
f 91/406/91 72/525/72 92/502/92
f 185/199/185 262/198/262 92/502/92
f 46/412/46 84/203/84 263/202/263
f 84/180/84 255/399/255 45/526/45
f 153/527/153 262/198/262 75/528/75
f 46/412/46 264/529/264 94/283/94
f 261/201/261 92/411/92 263/413/263
f 95/408/95 91/406/91 93/405/93
f 200/494/200 95/530/95 172/192/172
f 160/222/160 265/223/265 124/224/124
f 141/196/141 71/414/71 321/197/321
f 7/216/7 159/531/159 96/226/96 9/217/9
f 143/111/143 58/418/58 59/532/59
f 35/533/35 269/422/269 69/534/69
f 69/535/69 269/422/269 175/374/175
f 205/185/205 102/347/102 316/186/316
f 270/229/270 60/426/60 61/349/61
f 272/228/272 98/424/98 270/229/270
f 323/428/323 65/425/65 98/424/98
f 323/428/323 168/490/168 65/425/65
f 274/430/274 168/490/168 323/428/323
f 99/429/99 273/232/273 80/234/80
f 204/432/204 44/536/44 83/433/83
f 301/537/301 274/430/274 204/520/204
f 82/431/82 204/520/204 274/430/274
f 37/500/37 203/235/203 100/238/100
f 203/482/203 274/430/274 301/537/301
f 83/433/83 196/435/196 275/434/275
f 275/434/275 86/436/86 277/246/277
f 210/463/210 293/462/293 89/245/89
f 146/244/146 154/276/154 292/242/292
f 102/538/102 47/539/47 278/540/278
f 278/348/278 206/541/206 48/542/48
f 47/539/47 206/541/206 278/540/278
f 60/337/60 116/336/116 61/486/61
f 279/252/279 278/348/278 48/542/48
f 103/543/103 279/252/279 48/542/48
f 147/250/147 279/252/279 103/543/103
f 104/544/104 147/438/147 207/545/207
f 147/438/147 104/544/104 281/439/281
f 208/546/208 282/441/282 104/544/104
f 282/441/282 208/546/208 283/400/283
f 283/547/283 208/546/208 49/255/49
f 148/258/148 318/401/318 140/259/140
f 210/444/210 148/548/148 324/351/324
f 89/524/89 148/548/148 210/444/210
f 50/443/50 324/351/324 211/260/211
f 88/256/88 211/260/211 324/351/324
f 74/261/74 212/549/212 149/262/149
f 212/549/212 51/445/51 149/262/149
f 214/451/214 243/550/243 285/130/285
f 109/551/109 326/454/326 110/455/110
f 286/265/286 109/552/109 111/553/111
f 287/137/287 111/553/111 112/554/112
f 287/137/287 112/554/112 216/268/216
f 47/555/47 330/556/330 206/287/206
f 151/273/151 114/457/114 288/270/288
f 288/270/288 218/458/218 152/271/152
f 294/291/294 218/557/218 114/289/114
f 152/271/152 94/558/94 264/272/264
f 218/458/218 47/559/47 152/271/152
f 215/560/215 52/275/52 289/204/289
f 289/204/289 153/561/153 215/560/215
f 330/556/330 47/555/47 218/557/218
f 115/285/115 291/352/291 290/286/290
f 216/294/216 331/295/331 296/292/296
f 219/465/219 296/292/296 295/290/295
f 108/562/108 298/299/298 110/303/110
f 156/468/156 108/562/108 214/314/214
f 156/468/156 214/314/214 300/307/300
f 213/313/213 222/328/222 300/307/300
f 107/563/107 303/327/303 222/328/222
f 303/327/303 106/475/106 335/471/335
f 174/564/174 233/77/233 169/74/169
f 73/381/73 186/380/186 75/565/75
f 129/122/129 248/144/248 245/143/245
f 176/513/176 40/510/40 132/161/132
f 261/201/261 45/566/45 43/567/43
f 84/203/84 45/566/45 261/201/261
f 134/394/134 137/153/137 253/173/253
f 251/165/251 135/167/135 193/168/193
f 170/73/170 233/77/233 234/83/234
f 37/493/37 233/492/233 174/564/174
f 183/123/183 184/127/184 239/78/239
f 212/568/212 74/569/74 187/570/187
f 203/482/203 37/571/37 174/480/174
f 100/238/100 276/243/276 183/499/183
f 276/243/276 184/437/184 183/499/183
f 291/352/291 51/464/51 212/572/212
f 292/242/292 101/241/101 276/243/276
f 132/161/132 190/160/190 39/512/39
f 53/50/53 116/49/116 117/51/117
f 117/51/117 302/357/302 54/366/54
f 160/338/160 302/357/302 118/54/118
f 223/56/223 225/58/225 161/361/161
f 120/335/120 228/63/228 58/65/58
f 64/211/64 321/197/321 36/415/36
f 66/70/66 231/341/231 167/71/167
f 172/370/172 166/367/166 167/71/167
f 202/95/202 237/373/237 176/93/176
f 247/155/247 177/511/177 178/151/178
f 311/114/311 182/573/182 70/574/70
f 189/575/189 260/117/260 77/404/77
f 38/496/38 123/92/123 72/501/72
f 185/576/185 72/501/72 127/87/127
f 329/205/329 262/410/262 153/206/153
f 153/561/153 75/528/75 215/560/215
f 129/122/129 245/143/245 182/142/182
f 70/577/70 245/143/245 130/146/130
f 130/146/130 181/386/181 70/577/70
f 79/158/79 192/391/192 248/144/248
f 78/162/78 190/160/190 133/159/133
f 319/194/319 191/578/191 192/514/192
f 320/209/320 192/514/192 79/403/79
f 135/167/135 249/392/249 191/389/191
f 81/518/81 193/168/193 135/167/135
f 199/515/199 43/579/43 81/516/81
f 93/580/93 261/201/261 43/567/43
f 43/519/43 45/526/45 315/397/315
f 255/399/255 315/397/315 45/526/45
f 84/180/84 258/179/258 255/399/255
f 79/403/79 266/207/266 320/209/320
f 199/581/199 198/407/198 93/580/93
f 43/567/43 199/582/199 93/580/93
f 172/192/172 95/530/95 198/193/198
f 91/406/91 38/583/38 72/525/72
f 200/409/200 38/583/38 91/406/91
f 264/272/264 92/411/92 329/205/329
f 141/196/141 309/116/309 71/414/71
f 312/124/312 233/492/233 183/491/183
f 306/218/306 160/222/160 56/219/56
f 6/478/6 308/420/308 124/421/124
f 268/98/268 54/369/54 144/584/144
f 6/478/6 305/334/305 4/477/4 145/476/145
f 124/421/124 177/97/177 6/478/6
f 270/229/270 98/424/98 60/426/60
f 78/233/78 273/232/273 272/427/272
f 276/243/276 101/241/101 184/437/184
f 89/245/89 277/246/277 86/436/86
f 293/462/293 146/461/146 89/245/89
f 207/545/207 147/438/147 103/543/103
f 297/248/297 104/305/104 207/304/207
f 282/441/282 281/442/281 104/544/104
f 284/254/284 283/547/283 49/255/49
f 333/311/333 105/310/105 49/585/49
f 154/460/154 217/459/217 113/277/113
f 89/524/89 318/401/318 148/548/148
f 88/256/88 284/254/284 105/253/105
f 325/131/325 149/262/149 106/446/106
f 243/550/243 214/451/214 108/452/108
f 326/454/326 188/132/188 108/452/108
f 287/137/287 286/265/286 111/553/111
f 215/586/215 128/139/128 328/267/328
f 52/269/52 215/586/215 328/267/328
f 294/291/294 330/556/330 218/557/218
f 47/559/47 102/284/102 152/271/152
f 289/204/289 219/274/219 329/205/329
f 221/279/221 154/460/154 293/280/293
f 111/301/111 298/299/298 299/300/299
f 108/562/108 155/354/155 298/299/298
f 49/587/49 208/306/208 333/311/333
f 213/313/213 107/563/107 222/328/222
f 211/469/211 334/326/334 50/588/50
f 115/472/115 158/319/158 335/471/335
f 107/563/107 106/475/106 303/327/303
f 58/418/58 143/111/143 201/329/201
f 64/340/64 163/365/163 230/67/230
f 161/220/161 267/221/267 306/218/306
f 328/589/328 287/137/287 216/268/216
f 137/153/137 247/155/247 131/150/131
f 178/151/178 179/387/179 314/152/314
f 246/147/246 314/152/314 41/149/41
f 294/298/294 331/467/331 299/300/299
f 108/562/108 156/468/156 155/354/155
f 307/45/307 8/483/8 145/590/145
f 252/166/252 193/168/193 138/170/138
f 301/236/301 204/432/204 275/237/275
f 246/147/246 76/145/76 314/152/314
f 221/591/221 50/588/50 334/322/334
f 242/79/242 187/570/187 74/261/74
f 259/592/259 317/342/317 256/169/256
f 71/214/71 311/114/311 163/108/163
f 307/45/307 34/15/34 8/483/8
f 21/26/21 33/16/33 308/46/308
f 33/16/33 34/15/34 307/45/307
f 19/4/19 18/24/18 14/5/14
f 1/25/1 18/24/18 22/11/22
f 3/6/3 4/593/4 20/32/20
f 81/516/81 191/578/191 319/517/319
f 3/375/3 144/449/144 307/368/307
f 177/97/177 40/372/40 268/98/268
f 96/37/96 2/43/2 28/39/28 31/9/31
f 201/329/201 143/111/143 13/330/13
f 268/98/268 14/100/14 1/96/1
f 133/159/133 137/153/137 134/163/134
f 264/529/264 46/412/46 263/202/263
f 89/524/89 86/523/86 87/183/87
f 178/346/178 124/224/124 265/223/265
f 205/185/205 85/184/85 258/179/258
