# Blender 5.1.1
# www.blender.org
mtllib edge.mtl
o Plane
v -4.000000 0.035188 3.964813
v -3.964813 0.000000 3.915050
v -3.915050 0.000000 3.964813
v -3.964813 0.035188 4.000000
v 3.964813 0.035188 4.000000
v 3.915050 0.000000 3.964813
v 3.964813 0.000000 3.915050
v 4.000000 0.035188 3.964813
v -4.000000 0.035188 -3.964813
v -3.964813 0.035188 -4.000000
v -3.915050 0.000000 -3.964813
v -3.964813 0.000000 -3.915050
v 4.000000 0.035188 -3.964813
v 3.964813 0.000000 -3.915050
v 3.915050 0.000000 -3.964813
v 3.964813 0.035188 -4.000000
v -3.660401 0.035188 -3.625213
v -3.695588 0.000000 -3.645826
v -3.645826 0.000000 -3.695588
v -3.625213 0.035188 -3.660401
v -3.660401 0.035188 3.625213
v -3.625213 0.035188 3.660401
v -3.645826 0.000000 3.695588
v -3.695588 0.000000 3.645826
v 3.625213 0.035188 3.660401
v 3.660401 0.035188 3.625213
v 3.695588 0.000000 3.645826
v 3.645826 0.000000 3.695588
v 3.660401 0.035188 -3.625213
v 3.625213 0.035188 -3.660401
v 3.645826 0.000000 -3.695588
v 3.695588 0.000000 -3.645826
v -4.000000 0.234512 3.964813
v -3.964813 0.234512 4.000000
v -3.915050 0.269700 3.964813
v -3.964813 0.269700 3.915050
v 3.964813 0.234512 4.000000
v 4.000000 0.234512 3.964813
v 3.964813 0.269700 3.915050
v 3.915050 0.269700 3.964813
v -4.000000 0.234512 -3.964813
v -3.964813 0.269700 -3.915050
v -3.915050 0.269700 -3.964813
v -3.964813 0.234512 -4.000000
v 4.000000 0.234512 -3.964813
v 3.964813 0.234512 -4.000000
v 3.915050 0.269700 -3.964813
v 3.964813 0.269700 -3.915050
v -3.660401 0.234512 -3.625213
v -3.625213 0.234512 -3.660401
v -3.645826 0.269700 -3.695588
v -3.695588 0.269700 -3.645826
v -3.660401 0.234512 3.625213
v -3.695588 0.269700 3.645826
v -3.645826 0.269700 3.695588
v -3.625213 0.234512 3.660401
v 3.625213 0.234512 3.660401
v 3.645826 0.269700 3.695588
v 3.695588 0.269700 3.645826
v 3.660401 0.234512 3.625213
v 3.660401 0.234512 -3.625213
v 3.695588 0.269700 -3.645826
v 3.645826 0.269700 -3.695588
v 3.625213 0.234512 -3.660401
vn -0.3574 -0.8629 0.3574
vn 0.3574 -0.8629 0.3574
vn -0.3574 -0.8629 -0.3574
vn 0.3574 -0.8629 -0.3574
vn 0.4706 -0.7463 0.4706
vn 0.4706 -0.7463 -0.4706
vn -0.4706 -0.7463 -0.4706
vn -0.4706 -0.7463 0.4706
vn -0.3574 0.8629 0.3574
vn 0.3574 0.8629 0.3574
vn -0.3574 0.8629 -0.3574
vn 0.3574 0.8629 -0.3574
vn 0.4706 0.7463 0.4706
vn 0.4706 0.7463 -0.4706
vn -0.4706 0.7463 -0.4706
vn -0.4706 0.7463 0.4706
vn 0.7071 -0.7071 -0.0000
vn -0.0000 -0.7071 -0.7071
vn -0.7071 -0.7071 -0.0000
vn -0.0000 -0.7071 0.7071
vn -0.0000 -1.0000 -0.0000
vn 0.7071 0.7071 -0.0000
vn -0.0000 0.7071 -0.7071
vn -0.7071 0.7071 -0.0000
vn -0.0000 0.7071 0.7071
vn -0.0000 1.0000 -0.0000
vn 0.7071 -0.0000 -0.7071
vn 0.7071 -0.0000 0.7071
vn -0.7071 -0.0000 0.7071
vn -0.7071 -0.0000 -0.7071
vn -1.0000 -0.0000 -0.0000
vn -0.0000 -0.0000 1.0000
vn 1.0000 -0.0000 -0.0000
vn -0.0000 -0.0000 -1.0000
vt 0.000000 0.004398
vt 0.004398 0.010619
vt 0.010619 0.004398
vt 0.004398 0.000000
vt 0.995602 0.000000
vt 0.989381 0.004398
vt 0.995602 0.010619
vt 1.000000 0.004398
vt 0.000000 0.995602
vt 0.004398 1.000000
vt 0.010619 0.995602
vt 0.004398 0.989381
vt 1.000000 0.995602
vt 0.995602 0.989381
vt 0.989381 0.995602
vt 0.995602 1.000000
vt 0.042450 0.953152
vt 0.038051 0.955728
vt 0.044272 0.961949
vt 0.046848 0.957550
vt 0.042450 0.046848
vt 0.046848 0.042450
vt 0.044272 0.038051
vt 0.038051 0.044272
vt 0.953152 0.042450
vt 0.957550 0.046848
vt 0.961949 0.044272
vt 0.955728 0.038051
vt 0.957550 0.953152
vt 0.953152 0.957550
vt 0.955728 0.961949
vt 0.961949 0.955728
vt 0.953152 0.487542
vt 0.046848 0.487542
vt 0.044272 0.483144
vt 0.955728 0.483144
vt 0.989381 0.483144
vt 0.010619 0.483144
vt 0.004398 0.487542
vt 0.995602 0.487542
vt 0.955728 0.516856
vt 0.044272 0.516856
vt 0.046848 0.512458
vt 0.953152 0.512458
vt 0.995602 0.512458
vt 0.004398 0.512458
vt 0.010619 0.516856
vt 0.989381 0.516856
vt 1.000000 0.512458
vt 1.000000 0.487542
vt 0.000000 0.512458
vt 0.000000 0.487542
vt 0.957550 0.512458
vt 0.957550 0.487542
vt 0.042450 0.512458
vt 0.042450 0.487542
s 0
usemtl Material.001
f 1/1/1 2/2/1 3/3/1 4/4/1
f 5/5/2 6/6/2 7/7/2 8/8/2
f 9/9/3 10/10/3 11/11/3 12/12/3
f 13/13/4 14/14/4 15/15/4 16/16/4
f 17/17/5 18/18/5 19/19/5 20/20/5
f 21/21/6 22/22/6 23/23/6 24/24/6
f 25/25/7 26/26/7 27/27/7 28/28/7
f 29/29/8 30/30/8 31/31/8 32/32/8
f 33/1/9 34/4/9 35/3/9 36/2/9
f 37/5/10 38/8/10 39/7/10 40/6/10
f 41/9/11 42/12/11 43/11/11 44/10/11
f 45/13/12 46/16/12 47/15/12 48/14/12
f 49/17/13 50/20/13 51/19/13 52/18/13
f 53/21/14 54/24/14 55/23/14 56/22/14
f 57/25/15 58/28/15 59/27/15 60/26/15
f 61/29/16 62/32/16 63/31/16 64/30/16
f 17/33/17 21/34/17 24/35/17 18/36/17
f 22/34/18 25/33/18 28/36/18 23/35/18
f 26/34/19 29/33/19 32/36/19 27/35/19
f 30/33/20 20/34/20 19/35/20 31/36/20
f 12/37/19 2/38/19 1/39/19 9/40/19
f 3/38/20 6/37/20 5/40/20 4/39/20
f 7/38/17 14/37/17 13/40/17 8/39/17
f 15/37/18 11/38/18 10/39/18 16/40/18
f 2/2/21 24/24/21 23/23/21 3/3/21
f 18/18/21 12/12/21 11/11/21 19/19/21
f 6/6/21 28/28/21 27/27/21 7/7/21
f 14/14/21 32/32/21 31/31/21 15/15/21
f 52/41/22 54/42/22 53/43/22 49/44/22
f 55/42/23 58/41/23 57/44/23 56/43/23
f 59/42/24 62/41/24 61/44/24 60/43/24
f 63/41/25 51/42/25 50/43/25 64/44/25
f 41/45/24 33/46/24 36/47/24 42/48/24
f 34/46/25 37/45/25 40/48/25 35/47/25
f 38/46/22 45/45/22 48/48/22 39/47/22
f 46/45/23 44/46/23 43/47/23 47/48/23
f 35/3/26 55/23/26 54/24/26 36/2/26
f 51/19/26 43/11/26 42/12/26 52/18/26
f 39/7/26 59/27/26 58/28/26 40/6/26
f 47/15/26 63/31/26 62/32/26 48/14/26
f 16/40/27 46/45/27 45/49/27 13/50/27
f 37/45/28 5/40/28 8/50/28 38/49/28
f 4/39/29 34/46/29 33/51/29 1/52/29
f 44/46/30 10/39/30 9/52/30 41/51/30
f 25/33/30 57/44/30 60/53/30 26/54/30
f 64/44/29 30/33/29 29/54/29 61/53/29
f 20/34/28 50/43/28 49/55/28 17/56/28
f 56/43/27 22/34/27 21/56/27 53/55/27
f 9/40/31 1/39/31 33/46/31 41/45/31
f 24/24/21 2/2/21 12/12/21 18/18/21
f 4/39/32 5/40/32 37/45/32 34/46/32
f 28/28/21 6/6/21 3/3/21 23/23/21
f 8/39/33 13/40/33 45/45/33 38/46/33
f 32/32/21 14/14/21 7/7/21 27/27/21
f 19/19/21 11/11/21 15/15/21 31/31/21
f 16/40/34 10/39/34 44/46/34 46/45/34
f 21/34/33 17/33/33 49/44/33 53/43/33
f 20/34/32 30/33/32 64/44/32 50/43/32
f 25/33/34 22/34/34 56/43/34 57/44/34
f 29/33/31 26/34/31 60/43/31 61/44/31
f 58/28/26 55/23/26 35/3/26 40/6/26
f 54/24/26 52/18/26 42/12/26 36/2/26
f 62/32/26 59/27/26 39/7/26 48/14/26
f 51/19/26 63/31/26 47/15/26 43/11/26
