# Blender 5.1.1
# www.blender.org
o Cube
v -0.220232 -1.000000 3.994144
v -0.220232 1.110864 3.994144
v -0.220232 -1.000000 -3.994144
v -0.220232 1.110864 -3.994144
v 0.220232 -1.000000 3.994144
v 0.220232 1.110864 3.994144
v 0.220232 -1.000000 -3.994144
v 0.220232 1.110864 -3.994144
vn -1.0000 -0.0000 -0.0000
vn -0.0000 -0.0000 -1.0000
vn 1.0000 -0.0000 -0.0000
vn -0.0000 -0.0000 1.0000
vn -0.0000 -1.0000 -0.0000
vn -0.0000 1.0000 -0.0000
vt 0.000000 0.367878
vt 0.000000 0.632122
vt 1.000000 0.632122
vt 1.000000 0.367878
vt 0.472431 0.367878
vt 0.472431 0.632122
vt 0.527569 0.632122
vt 0.527569 0.367878
vt 0.472431 1.000000
vt 0.527569 1.000000
vt 0.527569 0.000000
vt 0.472431 0.000000
s 0
f 1/1/1 2/2/1 4/3/1 3/4/1
f 3/5/2 4/6/2 8/7/2 7/8/2
f 7/4/3 8/3/3 6/2/3 5/1/3
f 5/8/4 6/7/4 2/6/4 1/5/4
f 3/9/5 7/10/5 5/11/5 1/12/5
f 8/10/6 4/9/6 2/12/6 6/11/6
